<?xml version="1.0" standalone="no"?>
<!DOCTYPE svg PUBLIC "-//W3C//DTD SVG 1.1//EN" "http://www.w3.org/Graphics/SVG/1.1/DTD/svg11.dtd" >
<svg xmlns="http://www.w3.org/2000/svg">
<defs>
<font id="TFDierama-Regular" horiz-adv-x="719" >
  <font-face 
    font-family="TFDierama"
    font-weight="400"
    font-stretch="normal"
    units-per-em="1000"
    panose-1="2 0 5 3 5 0 0 2 0 4"
    ascent="800"
    descent="-200"
    x-height="547"
    cap-height="736"
    bbox="-209 -201 1381 943"
    underline-thickness="13"
    underline-position="-77"
    unicode-range="U+0011-U+2122"
  />
<missing-glyph horiz-adv-x="500" 
 />
    <glyph glyph-name=".notdef" horiz-adv-x="500" 
 />
    <glyph glyph-name=".null" horiz-adv-x="0" 
 />
    <glyph glyph-name="nonmarkingreturn" horiz-adv-x="333" 
 />
    <glyph glyph-name="uni0011" horiz-adv-x="799" 
d="M769 139q0 -30 -11.5 -57t-31 -46.5t-46.5 -31t-57 -11.5q-61 0 -103 44t-42 102v78h-157v-78q0 -58 -42 -102q-41 -44 -104 -44q-30 0 -56.5 11.5t-46 31t-31 46.5t-11.5 57t11 57t32 47q44 41 102 41h79v167h-79q-29 0 -55 10.5t-47 30.5q-43 41 -43 104
q0 30 11.5 56.5t31 46t46 31t56.5 11.5q60 0 104 -44q20 -20 31 -45.5t11 -55.5v-79h157v79q0 59 42 101q42 44 103 44q30 0 57 -11.5t46.5 -31t31 -46t11.5 -56.5q0 -62 -44 -104q-20 -20 -46.5 -30.5t-55.5 -10.5h-78v-167h78q29 0 55.5 -10.5t46.5 -30.5q44 -42 44 -104z
M702 596q0 32 -23 55.5t-56 23.5t-56 -24q-22 -22 -22 -55v-79h78q33 0 56 23q23 25 23 56zM254 596q0 17 -6 30.5t-16 24.5q-22 24 -57 24q-32 0 -55 -23.5t-23 -55.5q0 -31 23 -56q23 -23 55 -23h79v79zM477 451h-156v-167h156v167zM702 139q0 31 -23 56q-22 22 -56 22
h-78v-78q0 -33 22 -55q23 -24 56 -24t56 23t23 56zM254 217h-79q-33 0 -55 -22q-23 -25 -23 -56q0 -33 23 -56t55 -23q35 0 57 24q10 11 16 24.5t6 30.5v78z" />
    <glyph glyph-name="uni0012" horiz-adv-x="279" 
d="M83 537h18v46q0 90 51.5 128t138.5 38q42 0 71 -7t46 -16q20 -11 32 -24q-6 -6 -11 -12l-18 -23q-6 -9 -11.5 -20l-10.5 -22l-10 -25q0 43 -27.5 61t-72.5 18t-67.5 -22.5t-22.5 -73.5v-46q14 0 24 1.5l19.5 3t20 2.5t26.5 1q20 0 34 -1t26 -2.5l24 -3t26 -1.5
q-1 -5 -3 -11q-3 -10 -3 -27q0 -16 3 -27q2 -6 3 -11q-14 0 -25.5 -1t-23.5 -1.5t-26.5 -1.5t-34.5 -1q-15 0 -25.5 1t-20 1.5t-19 1.5t-23.5 1v-291q0 -90 2.5 -139.5t5.5 -72.5q4 -27 8 -32q-8 -1 -18 -3q-8 -2 -18.5 -3t-21.5 -3t-23.5 -6.5t-23.5 -9.5l-27 -13
q7 6 13 38q5 27 9 84t4 160v291h-18q-16 0 -30.5 -0.5t-25.5 -1.5q-13 -1 -24 -3q1 6 3 13q3 12 3 30t-3 31q-2 8 -3 15q11 -2 24 -4q11 -2 25.5 -3t30.5 -1h18h-18z" />
    <glyph glyph-name="uni0013" horiz-adv-x="592" 
d="M593 -9q-60 0 -96.5 16t-56 51t-26 91t-6.5 135v214q0 49 -6.5 82t-20.5 53.5t-35 29t-50 8.5q-30 0 -51.5 -8.5t-34.5 -29t-19 -53.5t-6 -82v-214q0 -79 -6.5 -135t-26 -91t-56 -51t-96.5 -16v66q23 0 39.5 8t26.5 32t14.5 68.5t4.5 118.5v220q0 51 12.5 95.5t38.5 77.5
t66 52t95 19q54 0 94 -19t66 -52t38.5 -77.5t12.5 -95.5v-220q0 -74 4.5 -118.5t14.5 -68.5t26.5 -32t39.5 -8v-66v0z" />
    <glyph glyph-name="uni0014" horiz-adv-x="571" 
d="M19 511v224h536v-224h-536zM559 91q0 -19 -7.5 -36t-20.5 -29.5t-30 -20t-36 -7.5t-36.5 7.5t-30 20t-20 29.5t-7.5 36q0 20 7.5 37t20 29.5t30 20t36.5 7.5q20 0 37 -7.5t29.5 -20t20 -29.5t7.5 -37zM279 -6l-19.5 1t-48.5 8t-62.5 22t-62.5 42.5t-48 70t-19 104.5
q0 49 11 86.5t29.5 65t42 46t47.5 30.5q57 28 130 32v-508v0zM527 709h-482v-170h482v170zM552 91q0 36 -25.5 62t-61.5 26t-61.5 -26t-25.5 -62t25.5 -61.5t61.5 -25.5t61.5 25.5t25.5 61.5zM254 475q-58 -7 -104 -34q-19 -12 -38 -28.5t-34 -40.5t-24 -56t-9 -74
q0 -52 15.5 -89t38.5 -62t50 -39t50.5 -21t39 -9l15.5 -2v455zM515 112q0 -16 -12 -23.5t-22 -6.5l31 -42h-11l-30 42h-42v-42h-9v101h56q14 0 26.5 -5t12.5 -24zM506 112q0 9 -4.5 13.5t-10 6.5t-10 2h-5.5h-47v-45h49q6 0 17 3.5t11 19.5z" />
    <glyph glyph-name="space" unicode=" " horiz-adv-x="303" 
 />
    <glyph glyph-name="exclam" unicode="!" horiz-adv-x="271" 
d="M213 736q-7 -16 -13 -50q-5 -29 -9 -82t-4 -138v-271q-7 2 -15 4q-13 3 -36 3q-19 0 -33 -3l-16 -4v271q0 85 -3.5 138t-8.5 82q-5 34 -13 50q13 -1 26 -3q11 -2 24 -3t25 -1t25.5 1t24.5 3q13 2 26 3zM218 55q0 -26 -23.5 -42t-55.5 -16q-36 0 -56.5 16t-20.5 42
t21.5 44t52.5 18q34 0 58 -16.5t24 -45.5z" />
    <glyph glyph-name="quotedbl" unicode="&#x22;" horiz-adv-x="327" 
d="M249 509q-2 2 -6 4q-6 3 -16 3q-11 0 -17 -3q-4 -2 -6 -4l-25 243q7 -1 15 -3q7 -2 15.5 -3t17.5 -1q8 0 16.5 1t15.5 3q8 2 16 3zM122 509q-2 2 -6 4q-6 3 -17 3q-10 0 -16 -3q-4 -2 -6 -4l-26 243q7 -1 15 -3q7 -2 16 -3t17 -1t16.5 1t16.5 3q9 2 16 3z" />
    <glyph glyph-name="numbersign" unicode="#" horiz-adv-x="835" 
d="M809 536q-6 -7 -10 -14q-4 -6 -7.5 -12.5t-5.5 -12.5q-3 -11 -1 -27q1 -8 2 -15h-200l-36 -130h200q-6 -7 -11 -15q-5 -7 -9 -14t-6 -13q-2 -5 -1.5 -12t1.5 -13l2 -14h-198l-72 -281l-16 6l-15 4.5t-15 2.5t-15 -2.5t-16 -4.5q-9 -3 -17 -6l84 281h-147l-72 -282
q-8 3 -17 6q-8 2 -16 4.5t-16 2.5q-6 0 -14 -2.5l-15 -4.5q-8 -3 -17 -6l86 282h-194q7 8 12 16q5 7 9 14.5t6 13.5t1.5 12.5t-1.5 11.5q-1 6 -3 13h193l36 130h-193l11 15q10 13 13 26q2 6 2 13t-1 13q-1 7 -3 14h193l63 248l14 -6l13.5 -4.5t13.5 -2.5q8 0 17 2.5t17 4.5
q10 3 19 6l-75 -248h147l62 248q8 -3 15 -6l13.5 -4.5t13.5 -2.5q8 0 17 2.5t17 4.5q10 3 18 6l-76 -248h200v0zM359 455l-36 -130h147l36 130h-147z" />
    <glyph glyph-name="dollar" unicode="$" 
d="M637 220q0 -57 -20 -96.5t-53 -66t-75.5 -41t-87.5 -20.5v-88h-67v83h-9q-60 0 -103 7.5t-72 17.5q-33 11 -57 25q2 14 3 26q1 11 1.5 22.5t0.5 19.5q0 21 -5 46l-6 26q30 -28 69 -51q33 -20 78 -35.5t100 -15.5v266q-41 12 -82 26t-73.5 37t-53 57.5t-20.5 88.5
q0 44 18 78t48.5 58.5t72.5 38t90 16.5v56h67v-56q54 -2 91 -9.5t60 -15.5q27 -9 45 -19q-5 -7 -9 -15l-8.5 -15.5t-8.5 -17.5q-4 -10 -6 -22l-4 -23q-2 -13 -2 -26q-13 19 -35 36q-19 14 -49 27t-74 18v-234q42 -12 84.5 -27t76 -38t54.5 -58t21 -86zM334 664
q-24 -2 -45.5 -8.5t-38.5 -19t-27 -32t-10 -47.5q0 -22 9 -38.5t25.5 -29t38.5 -22.5t48 -18v215zM517 197q0 27 -9 47t-24.5 35t-36.5 26t-46 20v-240q54 11 85 39.5t31 72.5z" />
    <glyph glyph-name="percent" unicode="%" horiz-adv-x="968" 
d="M937 181q0 -43 -9.5 -78t-32 -60t-58 -39t-88.5 -14q-54 0 -90.5 14t-58.5 39t-31.5 60t-9.5 78q0 39 9.5 73.5t31.5 60t58.5 40t90.5 14.5q53 0 88.5 -14.5t58 -40t32 -60t9.5 -73.5zM795 779q-37 -47 -78 -106l-79 -120t-89 -153l-80 -153.5l-66 -131.5l-61 -127
q-26 0 -49.5 -2.5l-41.5 -4.5q-21 -3 -40 -6l89 137l90.5 147.5l102.5 180.5l56.5 109l55.5 110l58 120h132v0zM431 561q0 -42 -9.5 -77t-32 -60t-58 -39t-88.5 -14q-54 0 -90.5 14t-58.5 39t-31.5 60t-9.5 77q0 39 9.5 73.5t31.5 60t58.5 40t90.5 14.5q53 0 88.5 -14.5
t58 -40t32 -60t9.5 -73.5zM850 181q0 59 -26.5 90t-74.5 31t-75.5 -31t-27.5 -90q0 -62 27.5 -93t75.5 -31t74.5 31t26.5 93zM344 561q0 59 -26.5 90.5t-74.5 31.5t-75.5 -31.5t-27.5 -90.5q0 -62 27.5 -93t75.5 -31t74.5 31t26.5 93z" />
    <glyph glyph-name="ampersand" unicode="&#x26;" horiz-adv-x="755" 
d="M715 91q-8 -6 -14 -15q-5 -8 -9.5 -18.5t-4.5 -24.5q0 -21 3 -35q2 -8 3 -15q-16 0 -39.5 3t-52 10t-59.5 18.5t-63 29.5q-24 -15 -52 -26q-24 -10 -57 -18.5t-72 -8.5q-115 0 -178 53.5t-63 149.5q0 57 31 114.5t105 102.5q-7 16 -13 37q-5 18 -9 42.5t-4 54.5
q0 49 15 84.5t39.5 59t56.5 34.5t65 11q44 0 74.5 -15.5t50.5 -40.5t29 -55.5t9 -60.5q0 -47 -17.5 -82.5t-46 -59t-64 -35.5t-70.5 -12q11 -20 24 -39q11 -17 25 -36.5t28 -36.5q22 -26 44.5 -46.5t42.5 -35.5q23 -18 44 -31q17 21 30 47q11 23 22 56t14 75h-27
q-26 0 -46 -5q-11 -3 -20 -6q2 7 4 15q3 14 3 35q0 20 -3 32q-2 7 -4 12q20 -1 39 -3q17 -2 36 -2.5t35 -0.5q14 0 30.5 0.5t30.5 2.5q17 2 33 3q-5 -69 -25 -123.5t-43 -92.5q-26 -45 -58 -79q22 -6 47 -11q21 -5 47.5 -8.5t53.5 -3.5zM422 556q0 19 -5.5 37.5t-16.5 33
t-27.5 23.5t-37.5 9q-37 0 -58 -26.5t-21 -73.5q0 -25 3.5 -46.5t12 -37.5t23.5 -25t39 -9q10 0 25 5t29 17.5t24 35t10 57.5zM421 89q-21 18 -42 38q-18 17 -40 40t-42 49q-14 18 -28 41.5l-25 43.5l-25 48q-17 -9 -31 -27q-12 -15 -22 -40t-10 -63q0 -28 12.5 -55.5
t36 -49.5t58 -35t79.5 -13q17 0 31 3.5t25 8.5q12 5 23 11z" />
    <glyph glyph-name="quotesingle" unicode="'" horiz-adv-x="207" 
d="M122 509q-2 2 -6 4q-6 3 -17 3q-10 0 -16 -3q-4 -2 -6 -4l-26 243q7 -1 15 -3q7 -2 16 -3t17 -1t16.5 1t16.5 3q9 2 16 3z" />
    <glyph glyph-name="parenleft" unicode="(" horiz-adv-x="355" 
d="M277 -104q-32 0 -72 20t-75 70.5t-59 135t-24 213.5q0 116 24 198.5t59 135.5t75 78t72 25q-1 -6 -3 -13q-3 -12 -3 -26q0 -16 3 -25q2 -5 3 -10q-32 0 -55 -33t-38 -85.5t-22 -117t-7 -127.5q0 -81 7 -148.5t22 -115.5t38 -74.5t55 -26.5q-1 -7 -3 -14q-3 -12 -3 -25
q0 -16 3 -25q2 -5 3 -10z" />
    <glyph glyph-name="parenright" unicode=")" horiz-adv-x="357" 
d="M324 335q0 -86 -11 -152t-29.5 -114.5t-42.5 -82t-50 -53.5t-51 -28.5t-47 -8.5l4 10q3 9 3 25q0 13 -3 25l-4 14q32 0 55 26.5t38 74.5t22 115.5t7 148.5q0 63 -7 127.5t-22 117t-38 85.5t-55 33l4 10q3 9 3 25q0 14 -3 26q-2 7 -4 13q32 0 72.5 -25t75.5 -78t59 -135.5
t24 -198.5z" />
    <glyph glyph-name="asterisk" unicode="*" horiz-adv-x="278" 
d="M281 661l-113 -46l111 -48l-25 -40l-96 66l15 -114h-44l10 114l-94 -66l-24 38l108 50l-104 50l20 35l94 -67l-10 117h44l-15 -117l96 67l27 -39v0z" />
    <glyph glyph-name="plus" unicode="+" horiz-adv-x="709" 
d="M404 329v-200q-7 3 -15 7q-16 7 -37 7q-17 0 -33 -7l-14 -7v200h-236q3 6 7 12q7 12 7 27q0 14 -7 28q-4 7 -7 13h236v190q6 -3 14 -6q7 -2 15.5 -4t17.5 -2q11 0 19.5 2l16.5 4q9 3 16 6v-190h231l-6 -14q-2 -6 -4 -13t-2 -14q0 -8 2 -15.5t4 -12.5q3 -6 6 -11h-231z
" />
    <glyph glyph-name="comma" unicode="," horiz-adv-x="229" 
d="M198 151l-42 -103l-34 -87t-27 -74h-73q16 51 25.5 119t9.5 139q9 -1 20 -2q9 -1 21.5 -1.5t25.5 -0.5q31 0 53 5q11 3 21 5z" />
    <glyph glyph-name="hyphen" unicode="-" horiz-adv-x="491" 
d="M35 246q4 6 7 12q2 5 4 12t2 15t-2 15t-4 13q-3 7 -7 13h422l-6 -14l-4.5 -13t-2.5 -14q0 -8 2.5 -15.5t4.5 -12.5q3 -6 6 -11h-422z" />
    <glyph glyph-name="period" unicode="." horiz-adv-x="217" 
d="M189 55q0 -26 -24 -42t-56 -16q-35 0 -55.5 16t-20.5 42t21 44t53 18q34 0 58 -16.5t24 -45.5z" />
    <glyph glyph-name="slash" unicode="/" horiz-adv-x="263" 
d="M291 766l-51 -143l-44.5 -132t-40.5 -130q-18 -63 -36 -137.5l-33 -139.5q-18 -76 -33 -152h-103l59 160l25 71.5l26 75.5t24.5 75t20.5 70q16 57 31.5 123l28.5 124q15 68 28 135h98v0z" />
    <glyph glyph-name="zero" unicode="0" horiz-adv-x="720" 
d="M675 371q0 -85 -16 -155t-53 -120t-96.5 -77.5t-146.5 -27.5q-89 0 -149 27.5t-96 77.5t-51.5 120t-15.5 155q0 78 15.5 146.5t51.5 120t96 81t149 29.5q87 0 146.5 -29.5t96.5 -81t53 -120t16 -146.5zM571 371q0 146 -53.5 224t-154.5 78q-100 0 -154 -78t-54 -224
q0 -152 54 -229t154 -77q101 0 154.5 77t53.5 229z" />
    <glyph glyph-name="one" unicode="1" 
d="M470 0l-32 4q-14 2 -29.5 2.5t-27.5 0.5t-28 -0.5t-31 -2.5l-36 -4q13 12 23 44q8 27 15 78t7 136v363q-41 -7 -71.5 -16.5t-52.5 -17.5q-26 -10 -44 -20l6 25q5 23 5 42q0 9 -0.5 17.5t-1.5 16.5q-1 9 -2 16q47 9 87 18l35 8t33.5 8.5l28.5 8.5t20 8l69 1q-3 -16 -6 -50
q-2 -29 -4 -82t-2 -138v-208q0 -85 6 -136t14 -78q9 -32 19 -44z" />
    <glyph glyph-name="two" unicode="2" 
d="M606 -10q-18 2 -59 5q-35 2 -98.5 3.5t-166.5 1.5h-229v85l63 52l67.5 52.5t81.5 58.5l97.5 68t71 57.5t43.5 61t15 78.5q0 75 -46.5 115t-135.5 40q-63 0 -101.5 -15t-60.5 -34q-26 -22 -37 -50q0 16 -1 32q-1 14 -3 28t-7 24q-4 9 -8.5 17.5l-8.5 15.5q-4 8 -9 15
q6 2 21.5 9.5t43.5 16t70 15.5t100 7q71 0 125.5 -17t91 -47t55 -70t18.5 -86q0 -59 -14.5 -101.5t-43.5 -77.5t-72 -67t-101 -70q-31 -20 -61.5 -42.5t-53.5 -42.5l-52 -44h81q112 0 176.5 8.5t97.5 19.5q39 12 50 28q-2 -21 -4 -39q-2 -16 -3 -32.5t-1 -27.5
q0 -10 1 -18.5t3 -16.5q2 -9 4 -16z" />
    <glyph glyph-name="three" unicode="3" 
d="M637 206q0 -68 -31.5 -110.5t-80 -66t-106 -32t-110.5 -8.5q-54 0 -95 7t-70 16t-46.5 17t-23.5 9q5 7 9 15l8.5 15t8.5 17q5 10 7 24t3 28q1 16 1 33q20 -28 50 -51q26 -20 65 -36t93 -16q41 0 79 6.5t67 23t46 43.5t17 68q0 46 -22 73t-53 41.5t-65 18.5t-58 4
q-16 0 -33.5 -1.5t-31.5 -3.5q-17 -3 -32 -5q2 7 4 16q2 8 3 17t1 19t-1 18.5t-3 16.5q-2 9 -4 16q16 -2 33 -5q14 -2 31 -4t33 -2q36 0 67.5 7t54.5 22t36 38t13 55q0 37 -15.5 61t-40 38t-55 19.5t-60.5 5.5q-60 0 -98 -16t-61 -36q-26 -23 -40 -52q0 16 -1 32
q-1 14 -3 28t-7 24q-4 9 -8.5 17.5l-8.5 15.5q-4 8 -9 15q6 2 22.5 9.5t45.5 16t70.5 15.5t96.5 7q48 0 98 -8.5t90 -30t65.5 -59t25.5 -96.5q0 -55 -25.5 -88t-57.5 -51q-37 -21 -84 -29q55 -4 98 -24q18 -9 36 -22t31.5 -32t22 -44.5t8.5 -58.5z" />
    <glyph glyph-name="four" unicode="4" 
d="M678 302q-6 -8 -10 -19q-4 -9 -7.5 -20.5t-3.5 -25.5q0 -10 1 -19t3 -17q2 -9 4 -16l-39 4q-17 2 -37 3t-38 1q0 -66 4 -104.5t9 -58.5q6 -23 13 -30l-26 4q-11 2 -24.5 2.5t-25.5 0.5q-26 0 -49 -3l-26 -4q8 7 13 31q5 20 8.5 59t3.5 107h-110h-30q-58 0 -105 -2t-80 -4
q-39 -3 -69 -6q2 7 4 16q2 8 3 17t1 19q0 12 -1 24t-3 21q-2 11 -4 20q25 20 57 52l65.5 68.5t85.5 100.5q42 52 70.5 91.5t45.5 66.5q20 32 32 54l150 1q-3 -16 -6 -50q-2 -29 -4 -82t-2 -138v-187q30 0 53.5 3.5t40.5 8.5q19 5 33 11zM451 648l-47 -65l-44 -60l-45 -58
l-50.5 -60l-52.5 -60l-59 -65q32 -2 71 -3.5t87 -1.5h30h110v373z" />
    <glyph glyph-name="five" unicode="5" 
d="M636 235q0 -68 -26.5 -115t-71 -76t-103 -42t-122.5 -13q-54 0 -95.5 7t-70.5 16t-46.5 17t-23.5 9q5 7 9 15l8.5 15t8.5 17q5 10 6.5 24t3.5 28q2 16 2 33q19 -28 48 -51q25 -20 64.5 -36t94.5 -16q42 0 79.5 9.5t66.5 29t46 50t17 71.5q0 72 -50.5 113.5t-166.5 41.5
q-50 0 -87 -7t-62 -16q-29 -11 -50 -24q6 32 9.5 64t5 76.5t2 106.5t0.5 153h112q112 0 178.5 3t101.5 7q41 4 57 10q-6 -14 -10 -27q-4 -11 -7.5 -24t-3.5 -23q0 -13 1 -23.5t3 -18.5q2 -10 4 -17q-13 9 -53 15q-34 5 -98 9.5t-173 4.5h-25q3 -12 6 -28q2 -14 4 -32.5
t2 -41.5q0 -45 -5 -73q-3 -15 -5 -27l34 7q17 3 40 5t51 2q73 0 127.5 -16.5t90.5 -46.5t54 -72t18 -93z" />
    <glyph glyph-name="six" unicode="6" 
d="M675 249q0 -72 -27 -121.5t-69 -80.5t-93.5 -44.5t-100.5 -13.5q-89 0 -149 28.5t-96 79.5t-51.5 121t-15.5 154q0 85 21.5 154.5t62.5 119t100.5 76.5t135.5 27q59 0 101 -7t70 -15.5t43.5 -16t21.5 -9.5q-5 -7 -9 -15l-8.5 -15.5t-8.5 -17.5q-4 -10 -6 -24l-4 -28
q-2 -16 -2 -32q-16 28 -42 50q-23 19 -60 34t-92 15q-60 0 -101 -21t-66.5 -58.5t-37 -90.5t-11.5 -117q14 33 43 59q25 23 68 41t112 18q53 0 101.5 -15.5t86.5 -46.5t60.5 -78t22.5 -110zM569 243q0 47 -15 80t-41 54.5t-60.5 31.5t-73.5 10q-24 0 -55 -7t-59 -26.5
t-47 -53.5t-19 -88q0 -84 46 -131t138 -47q42 0 76.5 13t59 36.5t37.5 56t13 71.5z" />
    <glyph glyph-name="seven" unicode="7" 
d="M656 643q-31 -26 -60 -67t-54 -86.5t-46.5 -92t-37.5 -84.5q-25 -60 -41 -115.5t-24 -100.5q-10 -52 -14 -97l-36 4q-15 2 -30 2.5t-24 0.5t-23.5 -0.5t-28.5 -2.5l-34 -4l61 114l60 117.5l65 134.5l16.5 34l20.5 42.5l23 47l24 47.5l58 114h-190q-81 0 -130.5 -6.5
t-77.5 -14.5q-33 -10 -48 -21l4 32q2 14 3 28.5t1 24.5q0 11 -1 20t-3 16q-2 8 -4 15q18 -2 59 -5q35 -2 98.5 -3.5t166.5 -1.5h247q-1 -6 -3 -14q-3 -13 -3 -33t3 -32q2 -7 3 -13z" />
    <glyph glyph-name="eight" unicode="8" 
d="M667 206q0 -54 -23.5 -96t-64 -70t-95.5 -42.5t-117 -14.5q-54 0 -108 10.5t-97 34.5t-69.5 64t-26.5 98q0 29 7.5 52t20.5 41t29 31.5t33 23.5q40 23 89 33q-44 15 -78 41q-15 11 -29 25t-25 32t-18 39.5t-7 46.5q0 57 28 96t70 62.5t91 34t90 10.5q42 0 90.5 -8.5
t90.5 -31t69.5 -62t27.5 -101.5q0 -44 -23 -73.5t-52 -47.5q-33 -21 -76 -33q22 -5 52 -19t57 -37.5t45.5 -58t18.5 -80.5zM543 559q0 26 -11 48.5t-33 39.5t-55.5 27t-78.5 10q-83 0 -124.5 -32t-41.5 -89q0 -26 12.5 -45.5t32 -34t43.5 -24t45.5 -15t39 -8t24.5 -2.5
q6 0 30 5t50 19t46.5 38t20.5 63zM549 185q0 33 -15 57t-37.5 40.5t-49.5 27t-51.5 16.5t-42 8t-22.5 2q-7 0 -32.5 -7.5t-52.5 -24t-48.5 -43t-21.5 -64.5q0 -62 48 -102t143 -40q92 0 137 37t45 93z" />
    <glyph glyph-name="nine" unicode="9" 
d="M654 367q0 -97 -28 -168.5t-76.5 -118t-114.5 -69t-142 -22.5q-58 0 -100 7t-70 16t-43.5 17t-21.5 9q5 7 9 15l8.5 15t8.5 17q5 10 7 24t3 28q1 16 1 33q20 -27 51 -49q26 -19 66 -34.5t95 -15.5q50 0 94 17t77 52t52 89t19 128q-18 -31 -47 -56q-25 -21 -65.5 -38.5
t-100.5 -17.5q-52 0 -102 14t-89 44t-62.5 76t-23.5 110q0 72 26 121.5t66.5 80.5t90.5 44.5t99 13.5q90 0 150 -31.5t96 -84t51.5 -122t15.5 -144.5zM525 497q0 28 -8 58.5t-29.5 56t-58.5 42t-95 16.5q-33 0 -63.5 -10.5t-54 -32t-38 -56t-14.5 -82.5q0 -46 15.5 -78
t40.5 -51.5t58 -28t67 -8.5q46 0 80 16.5t56 42t33 56.5t11 59z" />
    <glyph glyph-name="colon" unicode=":" horiz-adv-x="229" 
d="M192 471q0 -26 -23.5 -42t-55.5 -16q-36 0 -56.5 16t-20.5 42t21.5 44t52.5 18q34 0 58 -16.5t24 -45.5zM192 83q0 -26 -23.5 -42t-55.5 -16q-36 0 -56.5 16t-20.5 42t21.5 44t52.5 18q34 0 58 -16.5t24 -45.5z" />
    <glyph glyph-name="semicolon" unicode=";" horiz-adv-x="229" 
d="M192 471q0 -26 -23.5 -42t-55.5 -16q-36 0 -56.5 16t-20.5 42t21.5 44t52.5 18q34 0 58 -16.5t24 -45.5zM195 151l-42 -103l-34.5 -87t-27.5 -74h-72q16 51 25.5 119t9.5 139q9 -1 20 -2q9 -1 21 -1.5t26 -0.5q31 0 53 5q11 3 21 5z" />
    <glyph glyph-name="less" unicode="&#x3c;" horiz-adv-x="709" 
d="M636 213q-2 -11 -4 -30t-2 -28t1.5 -26.5t3.5 -29.5l-46 23.5l-68.5 33.5l-78.5 36t-77 32q-38 15 -84 29.5l-89 27l-76.5 21.5t-45.5 13q2 7 3.5 20t1.5 28q0 14 -1.5 27t-3.5 21q12 4 45.5 13l76.5 21.5l89 27t84 29.5q36 14 77 32.5l78.5 36.5l68.5 33t46 23
q-2 -12 -3.5 -29t-1.5 -25q0 -9 2 -27t4 -28l-38.5 -10.5l-62 -17.5l-72 -21t-68.5 -22l-69 -24.5t-71 -27.5l-78 -32l79 -30q33 -13 71 -26l68 -24l68.5 -21.5l72 -21.5t62 -17z" />
    <glyph glyph-name="equal" unicode="=" horiz-adv-x="709" 
d="M64 419q4 6 7 12q2 5 4 12.5t2 15.5q0 7 -2 14t-4 13q-3 7 -7 13h566l-6 -14q-2 -6 -4.5 -12.5t-2.5 -13.5q0 -8 2.5 -15.5t4.5 -12.5l6 -12h-566zM64 237q4 6 7 12q2 5 4 12t2 15t-2 15t-4 13q-3 7 -7 13h566l-6 -14l-4.5 -13t-2.5 -14q0 -8 2.5 -15.5t4.5 -12.5
q3 -6 6 -11h-566z" />
    <glyph glyph-name="greater" unicode="&#x3e;" horiz-adv-x="709" 
d="M647 315q-12 -4 -45.5 -13l-76.5 -21.5l-89 -27t-84 -29.5q-36 -14 -77 -32l-78.5 -36l-68.5 -33.5l-46 -23.5q2 12 3.5 29.5t1.5 26.5t-2 28t-4 30l38.5 10t62 17l72.5 21.5l69 21.5l68 24t71 26l78 30l-78 32q-33 14 -70.5 27.5l-68.5 24.5t-69 22l-72.5 21l-62 17.5
l-38.5 10.5q2 10 4 28t2 27q0 8 -1.5 25t-3.5 29q15 -8 46 -23l68.5 -33l78.5 -36.5t77 -32.5q38 -15 84 -29.5l89 -27l76.5 -21.5t45.5 -13q-2 -8 -3.5 -21t-1.5 -27q0 -15 1.5 -28t3.5 -20z" />
    <glyph glyph-name="question" unicode="?" horiz-adv-x="563" 
d="M518 569q0 -52 -17 -85.5t-42.5 -57.5t-55 -43.5t-55 -43.5t-42.5 -57.5t-17 -86.5q-6 2 -15 4q-15 3 -37 3q-18 0 -32 -3l-16 -4q0 61 16.5 100.5t41 66.5t53 46t53 38t41 42.5t16.5 60.5q0 25 -8 46.5t-26 37.5t-46.5 25t-68.5 9q-51 0 -83.5 -18t-52.5 -40
q-23 -26 -35 -59q0 17 -2 33q-2 14 -3.5 28t-5.5 24q-4 9 -8.5 17.5l-8.5 15.5q-4 8 -9 14q23 18 54 32q26 12 64.5 22t86.5 10q66 0 115 -15t81 -39.5t48 -56.5t16 -66zM319 55q0 -26 -23.5 -42t-55.5 -16q-35 0 -56 16t-21 42t21.5 44t52.5 18q35 0 58.5 -16.5t23.5 -45.5
z" />
    <glyph glyph-name="at" unicode="@" horiz-adv-x="1091" 
d="M1057 405q0 -59 -18.5 -116t-54 -101.5t-87 -72t-117.5 -27.5q-61 0 -97 31t-36 102v35q-19 -35 -48 -62q-25 -23 -62 -43t-88 -20q-9 0 -35 5.5t-53 24.5t-48 56t-21 100q0 61 17 108.5t44.5 82.5t61.5 58.5t67.5 38t62.5 20.5t47 6q36 0 68.5 -11.5t59.5 -26t46.5 -26
t28.5 -11.5q6 0 13 1t12 2l12 2q-7 -13 -14 -31q-6 -15 -13 -35t-14 -44l-22 -82q-10 -36 -15 -61t-7.5 -41.5t-3 -26.5t-0.5 -15q0 -27 15.5 -47t52.5 -20q29 0 61.5 16t60 47t46 77t18.5 106q0 79 -33.5 140.5t-90 104t-131.5 64.5t-159 22q-105 0 -185.5 -30t-135.5 -81
t-83 -119t-28 -145q0 -71 25 -134.5t76 -111.5t127.5 -76.5t179.5 -28.5h89l5 -38q-15 -1 -32 -3q-14 -2 -30.5 -2.5t-31.5 -0.5q-112 0 -204.5 21t-158.5 67t-102 119.5t-36 178.5q0 97 37.5 175.5t106 134t165 86t214.5 30.5q95 0 181 -23t151.5 -69.5t104.5 -116.5
t39 -163zM703 495q-14 23 -31 41q-14 15 -33.5 27.5t-42.5 12.5q-35 0 -70.5 -16.5t-64.5 -47t-47.5 -73.5t-18.5 -96q0 -72 30.5 -105.5t86.5 -33.5q17 0 35.5 12.5t35.5 32.5t33 43.5t28 46t20.5 40t10.5 24.5l28 92v0z" />
    <glyph glyph-name="A" unicode="A" horiz-adv-x="717" 
d="M721 0l-29 4q-13 2 -27 2.5t-26 0.5q-26 0 -49 -3l-25 -4q-1 19 -6 47q-5 24 -15 62t-29 92l-25 72h-273l-28 -72q-22 -57 -32.5 -95.5t-14.5 -61.5q-4 -27 -3 -44l-25 4q-11 2 -24 2.5t-25 0.5q-26 0 -44 -3l-21 -4q16 30 41 83l53 119.5l77 186.5q40 101 69 192.5
l49 154.5q11 -1 22 -3q10 -2 21.5 -3t23.5 -1t25.5 1t24.5 3q13 2 25 3l43 -124l40 -113l39 -110q42 -112 73 -186t52 -119q25 -53 43 -84zM356 648h-2l-109 -297h218z" />
    <glyph glyph-name="B" unicode="B" horiz-adv-x="736" 
d="M693 221q0 -19 -2.5 -39.5t-9.5 -41.5t-20.5 -42t-36.5 -39q-26 -21 -58 -33t-66 -17.5t-69 -7t-67 -1.5q-12 0 -43 1t-66 2.5t-65 2.5t-40 1q-9 0 -19.5 -0.5t-19.5 -2.5l-22 -4q3 16 6 50q2 29 4 82t2 138v196q0 85 -4 138t-9 82q-6 34 -13 50q13 -1 26 -3
q11 -2 24.5 -3t24.5 -1q10 0 40.5 1t66 2.5t68 2.5t47.5 1q55 0 99.5 -5t86.5 -25q18 -9 35.5 -22.5t31 -31.5t21.5 -41t8 -50q0 -37 -8 -63.5t-22 -46.5q-17 -23 -48 -39.5t-66 -24.5q35 -6 66 -14.5t58 -29.5q35 -28 47 -60t12 -62zM546 540q0 35 -11.5 57t-37.5 40
q-13 9 -31 13.5t-36.5 6.5t-34 2h-23.5h-167q-1 -18 -2 -45q-1 -23 -1.5 -60t-0.5 -88v-49h171q9 0 37 1.5t58.5 13t54.5 36.5t24 72zM586 212q0 31 -9 52t-26 36q-32 28 -82 33.5t-105 5.5h-163v-69q0 -45 0.5 -80.5t1.5 -59.5q1 -28 2 -50h159q21 0 45.5 0.5t49 3.5
t47.5 10.5t40 22.5q19 15 29.5 38t10.5 57z" />
    <glyph glyph-name="C" unicode="C" horiz-adv-x="695" 
d="M665 136q-2 -12 -5 -23q-5 -22 -5 -42q0 -8 1 -16.5t2 -15.5l2 -16q-22 -9 -53 -17q-26 -7 -63.5 -12t-87.5 -5q-195 0 -292.5 94.5t-97.5 282.5q0 98 30.5 170t80.5 118.5t114.5 69t132.5 22.5q75 0 132 -10t108 -35q-5 -7 -9 -15l-8.5 -15.5t-8.5 -17.5q-8 -22 -10 -45
q-1 -13 -1 -26q-17 24 -44 42q-23 16 -61 28.5t-93 12.5q-60 0 -107 -21.5t-79 -60.5t-49 -93.5t-17 -121.5q0 -66 17.5 -119.5t52.5 -91.5t88 -58.5t125 -20.5q43 0 80 9t65 20q33 13 60 29z" />
    <glyph glyph-name="D" unicode="D" horiz-adv-x="792" 
d="M741 371q0 -56 -9.5 -102t-26 -82t-38 -63t-44.5 -46q-49 -40 -109.5 -59t-146.5 -19q-12 0 -43 1t-66 2.5t-65 2.5t-40 1q-9 0 -19.5 -0.5t-19.5 -2.5l-22 -4q3 16 6 50q2 29 4 82t2 138v196q0 85 -3.5 138t-8.5 82q-5 34 -13 50q12 -1 25 -3q11 -2 24.5 -3t24.5 -1
q10 0 39 1t64 2.5t68 2.5t51 1q81 0 144.5 -16.5t113.5 -60.5q23 -20 43 -46.5t34.5 -61.5t22.5 -79.5t8 -100.5zM633 375q0 145 -66.5 214.5t-191.5 69.5h-167q-1 -18 -2 -45q-1 -23 -1.5 -60t-0.5 -88v-196q0 -45 0.5 -80.5t1.5 -60.5q1 -29 2 -50h167q121 0 189.5 73.5
t68.5 222.5z" />
    <glyph glyph-name="E" unicode="E" horiz-adv-x="615" 
d="M581 -10q-18 2 -59 5q-35 2 -98.5 3.5t-166.5 1.5h-182q3 16 6 50q2 29 4 82t2 138v196q0 85 -2 138t-4 82q-3 34 -6 50l182 -1q103 -1 166.5 0.5t98.5 3.5q41 3 59 6q-2 -7 -4 -15q-2 -7 -3 -16t-1 -20q0 -10 1 -19t3 -17q2 -9 4 -16q-19 4 -60 8q-35 3 -97.5 5
t-164.5 2h-68q-1 -17 -2 -44q-1 -23 -1.5 -59.5t-0.5 -87.5v-49h24q102 0 165.5 2t98.5 5q41 4 60 7q-2 -7 -4 -15q-2 -7 -3 -16t-1 -20q0 -10 1 -19t3 -17q2 -9 4 -16q-19 3 -60 6q-35 2 -98.5 3.5t-165.5 1.5h-24v-69q0 -45 0.5 -80.5t1.5 -59.5q1 -28 2 -50h66
q103 0 166.5 2.5t98.5 4.5q41 3 59 6q-2 -7 -4 -15q-2 -7 -3 -16t-1 -20q0 -10 1 -19t3 -17q2 -9 4 -16z" />
    <glyph glyph-name="F" unicode="F" horiz-adv-x="595" 
d="M588 642q-19 4 -60 8q-35 3 -98 5t-165 2h-67q-1 -17 -2 -44q-1 -23 -1.5 -59.5t-0.5 -87.5v-49h24q102 0 165.5 2t98.5 5q41 4 60 7q-2 -7 -4 -15q-2 -7 -3 -16t-1 -20q0 -10 1 -19t3 -17q2 -9 4 -16q-19 3 -60 6q-35 2 -98.5 3.5t-165.5 1.5h-24v-69q0 -85 3 -138
t7 -82q4 -34 10 -50l-23 4q-11 2 -23.5 2.5t-24.5 0.5q-25 0 -42 -3q-10 -2 -19 -4q3 16 6 50q2 29 4 82t2 138v196q0 85 -3.5 138t-8.5 82q-5 34 -13 50l195 -1q103 0 166.5 1.5t98.5 3.5q41 3 59 5q-2 -7 -4 -15q-2 -7 -3 -16t-1 -20q0 -10 1 -19t3 -17q2 -9 4 -16z" />
    <glyph glyph-name="G" unicode="G" horiz-adv-x="767" 
d="M696 16q-35 -7 -75 -13q-34 -5 -76.5 -9.5t-88.5 -4.5q-195 0 -292.5 94.5t-97.5 282.5q0 98 30 170t81.5 118.5t121 69t147.5 22.5q28 0 60 -2.5t64 -7.5t62.5 -14t55.5 -21q-5 -7 -9 -15l-8.5 -15.5t-8.5 -17.5q-8 -22 -10 -45q-1 -13 -1 -26q-19 24 -49 42
q-26 16 -66 28.5t-99 12.5q-64 0 -113 -21.5t-81.5 -60.5t-49 -93.5t-16.5 -121.5q0 -66 17.5 -120.5t52.5 -93.5t88 -61t125 -22q26 0 49 3.5t40 8.5q20 5 38 12v212h-92q-22 0 -40 -1.5t-32 -3.5q-16 -3 -28 -6q2 7 4 15q2 7 3 16.5t1 19.5t-1 18t-3 14q-2 7 -4 13h301
q-2 -7 -4 -15q-2 -7 -3 -16t-1 -18v-260q0 -16 1 -29t3 -21q2 -10 4 -17z" />
    <glyph glyph-name="H" unicode="H" horiz-adv-x="777" 
d="M709 0q-8 2 -19 4q-18 3 -43 3t-43 -3q-11 -2 -19 -4q3 16 6 50q2 29 4 82t2 138v81h-410v-81q0 -85 2 -138t4 -82q3 -34 6 -50q-8 2 -19 4q-18 3 -43 3t-43 -3q-11 -2 -19 -4q3 16 6 50q2 29 4 82t2 138v196q0 85 -2 138t-4 82q-3 34 -6 50q8 -1 19 -3q9 -2 20 -3t23 -1
t23 1t20 3q11 2 19 3q-3 -16 -6 -50q-2 -29 -4 -82t-2 -138v-35h410v35q0 85 -2 138t-4 82q-3 34 -6 50q8 -1 19 -3q9 -2 20 -3t23 -1t23 1t20 3q11 2 19 3q-3 -16 -6 -50q-2 -29 -4 -82t-2 -138v-196q0 -85 2 -138t4 -82q3 -34 6 -50z" />
    <glyph glyph-name="I" unicode="I" horiz-adv-x="271" 
d="M199 0q-8 2 -19 4q-18 3 -43 3t-43 -3q-11 -2 -19 -4q3 16 6 50q2 29 4 82t2 138v196q0 85 -2 138t-4 82q-3 34 -6 50q8 -1 19 -3q9 -2 20 -3t23 -1t23 1t20 3q11 2 19 3q-3 -16 -6 -50q-2 -29 -4 -82t-2 -138v-196q0 -85 2 -138t4 -82q3 -34 6 -50z" />
    <glyph glyph-name="J" unicode="J" horiz-adv-x="494" 
d="M399 736q-3 -17 -6 -51q-2 -29 -4 -81.5t-2 -137.5q0 -37 0.5 -67t0.5 -59t0.5 -59.5t0.5 -66.5q0 -123 -66 -183.5t-192 -60.5q-18 0 -35 2t-31 4q-16 3 -30 7q2 9 3 19q1 8 1.5 18t0.5 18q0 20 -5 45l-6 26q13 -14 30 -25q14 -10 33 -17.5t41 -7.5q41 0 70 9t47.5 32.5
t27.5 64t9 102.5v199q0 85 -2 138t-4 82q-3 34 -6 50q9 -1 19 -3q8 -2 19 -3t23 -1t23.5 1t20.5 3q11 2 19 3z" />
    <glyph glyph-name="K" unicode="K" horiz-adv-x="704" 
d="M739 0q-21 2 -40 4q-17 2 -34.5 2.5t-29.5 0.5t-27 -0.5t-29 -2.5l-32 -4l-33 44q-15 20 -35 43t-43 45l-249 245v-107q0 -85 2 -138t4 -82q3 -34 6 -50q-8 2 -19 4q-18 3 -43 3t-43 -3q-11 -2 -19 -4q3 16 6 50q2 29 4 82t2 138v196q0 85 -2 138t-4 82q-3 34 -6 50
q8 -1 19 -3q9 -2 20 -3t23 -1t23 1t20 3q11 2 19 3q-3 -16 -6 -50q-2 -29 -4 -82t-2 -138v-63l232 201q27 23 50.5 46.5t40.5 42.5q20 22 37 43q13 -1 26 -3q11 -2 24.5 -3t25.5 -1t31 1t38 3q22 2 45 3l-44 -31l-60.5 -43l-72.5 -53l-80 -62l-185 -146l137 -131l44 -41
l49.5 -44.5l51 -45l49.5 -43.5z" />
    <glyph glyph-name="L" unicode="L" horiz-adv-x="559" 
d="M563 -10q-18 2 -59 5q-35 2 -98.5 3.5t-166.5 1.5h-164q3 16 6 50q2 29 4 82t2 138v196q0 85 -2 138t-5 82q-4 34 -8 50q10 -1 21 -3q9 -2 20.5 -3t23.5 -1t24.5 1t22.5 3q11 2 22 3q-5 -16 -9 -50q-4 -29 -7 -82t-3 -138v-196q0 -45 0.5 -80t1.5 -59q1 -28 2 -48h48
q103 0 166 3t98 7q41 4 60 10q-2 -9 -4 -20q-2 -9 -3 -19.5t-1 -21.5q0 -10 1 -19t3 -17q2 -9 4 -16z" />
    <glyph glyph-name="M" unicode="M" horiz-adv-x="900" 
d="M851 0l-29 4q-13 2 -27.5 2.5t-26.5 0.5q-26 0 -49 -3l-26 -4q7 16 13 50q5 29 9 82t4 138v329l-148 -406q-10 -27 -20.5 -59.5l-19.5 -60.5q-11 -33 -20 -66q-11 1 -22 3q-10 2 -22 2.5t-24 0.5q-26 0 -49 -3q-13 -2 -26 -3q-8 33 -17 66l-17 60.5t-20 59.5l-144 392
v-315q0 -85 5.5 -138t12.5 -82q8 -34 17 -50l-24 4q-11 2 -24 2.5t-25 0.5t-25.5 -0.5t-24.5 -2.5l-27 -4q9 16 16 50q6 29 11 82t5 138v323q0 40 -5 67t-11 44q-7 20 -16 32q21 -1 39 -3q16 -2 33 -3t29 -1t29.5 1t34.5 3q19 2 40 3l-2 -10t-1.5 -11.5t-0.5 -14.5
q0 -11 1.5 -24t5.5 -31.5t11.5 -43.5t20.5 -61l158 -439h1l159 439l32.5 89t13.5 71q0 14 -3 24q-2 6 -3 12q22 -1 41 -3q17 -2 34.5 -3t29.5 -1t26.5 1t28.5 3q16 2 31 3q-7 -26 -12 -57q-5 -26 -9 -61.5t-4 -76.5v-271q0 -85 5 -138t11 -82q7 -34 16 -50z" />
    <glyph glyph-name="N" unicode="N" horiz-adv-x="772" 
d="M715 -17q-10 6 -21 10q-10 4 -22.5 7t-26.5 3h-21t-18 -1q-9 -1 -17 -2l-412 578v-308q0 -85 3.5 -138t8.5 -82q5 -34 12 -50l-24 4q-21 3 -46 3q-11 0 -25 -0.5t-27 -2.5l-30 -4q10 16 19 50q8 29 13.5 82t5.5 138v283q0 53 -8 88t-18 56q-11 25 -26 39q19 -1 37 -3
q15 -2 31.5 -3t27.5 -1t21.5 1t18.5 3q10 2 17 3l413 -575v305q0 87 -5.5 140t-13.5 82q-9 34 -19 48q15 -1 30 -3q13 -2 27 -3t25 -1t22.5 1t20.5 3q11 2 21 3q-5 -16 -9 -50q-4 -29 -6.5 -82t-2.5 -138v-196q0 -79 3.5 -134t8.5 -89q5 -40 12 -64z" />
    <glyph glyph-name="O" unicode="O" horiz-adv-x="853" 
d="M788 371q0 -79 -19.5 -148.5t-61.5 -121t-109 -81t-162 -29.5q-107 0 -176.5 30t-110.5 82t-57.5 121t-16.5 147t18.5 146.5t60.5 120t111 81t171 29.5q105 0 173 -30.5t107.5 -82.5t55.5 -120.5t16 -143.5zM681 367q0 51 -9 105t-35.5 98.5t-74.5 72.5t-126 28
q-71 0 -119.5 -22t-78 -62t-42.5 -95t-13 -121q0 -61 13 -116t42.5 -96.5t78 -65.5t119.5 -24q78 0 126 28t74.5 71.5t35.5 96t9 102.5z" />
    <glyph glyph-name="P" unicode="P" horiz-adv-x="703" 
d="M658 487q0 -53 -14.5 -92.5t-38 -66.5t-54 -44t-63 -26.5t-64.5 -13t-59 -3.5h-171v-48q0 -56 4.5 -95t9.5 -64q6 -29 13 -47q-13 6 -27 10q-12 4 -25.5 7t-25.5 3q-25 0 -42 -3q-10 -2 -19 -4q3 16 6 50q2 29 4 82t2 138v196q0 85 -3.5 138t-8.5 82q-5 34 -13 50
q12 -1 25 -3q11 -2 24.5 -3t24.5 -1q10 0 40.5 1t66 2.5t68 2.5t47.5 1q56 0 109 -11t94 -38.5t65.5 -76t24.5 -123.5zM198 659q-1 -18 -2 -45q-1 -23 -1.5 -60t-0.5 -88v-147h186q4 0 17.5 1.5t32 7t39 16t37.5 29t28.5 46.5t11.5 67q0 63 -22 97.5t-51.5 51.5t-60 20.5
t-47.5 3.5h-167z" />
    <glyph glyph-name="Q" unicode="Q" horiz-adv-x="853" 
d="M853 -96q-18 6 -59 10q-35 4 -98.5 7t-166.5 3h-162q7 10 11 21q4 10 7 22t3 26q-92 7 -152.5 39t-96 83t-50 117t-14.5 139q0 78 18.5 146.5t60.5 120t111 81t171 29.5q105 0 173 -30.5t107.5 -82.5t55.5 -120.5t16 -143.5q0 -62 -11 -117t-37.5 -101.5t-71 -83.5
t-111.5 -63q74 0 129 5t93 11q44 7 74 15l-4 -22q-2 -10 -3 -21t-1 -21q0 -11 1 -22.5t3 -22.5zM681 367q0 51 -9 105t-35.5 98.5t-74.5 72.5t-126 28q-71 0 -119.5 -22t-78 -62t-42.5 -95t-13 -121q0 -61 13 -116t42.5 -96.5t78 -65.5t119.5 -24q78 0 126 28t74.5 71.5
t35.5 96t9 102.5z" />
    <glyph glyph-name="R" unicode="R" horiz-adv-x="701" 
d="M725 0l-41 4q-17 2 -35 2.5t-30 0.5t-27 -0.5t-29 -2.5l-33 -4q-13 21 -31 44q-15 20 -35.5 43t-44.5 45l-212 195h89q122 0 186 39t64 133q0 56 -22 88t-51.5 48t-60 20t-47.5 4h-167q-1 -18 -2 -45q-1 -23 -1.5 -60t-0.5 -88v-196q0 -85 2 -138t4 -82q3 -34 6 -50
q-8 2 -19 4q-18 3 -44 3q-25 0 -42 -3q-10 -2 -19 -4q3 16 6 50q2 29 4 82t2 138v196q0 85 -3.5 138t-8.5 82q-5 34 -13 50q12 -1 25 -3q11 -2 24.5 -3t24.5 -1q10 0 40.5 1t66 2.5t68 2.5t47.5 1q56 0 109 -11t94 -38t65.5 -72t24.5 -114q0 -58 -23 -102t-59.5 -73.5
t-81 -44t-86.5 -14.5l27 -24l92 -80l95 -79z" />
    <glyph glyph-name="S" unicode="S" horiz-adv-x="659" 
d="M615 220q0 -69 -29 -113t-74.5 -70t-100.5 -36t-108 -10q-60 0 -103 7.5t-72 17.5q-33 11 -57 25q2 14 3 26q1 11 1.5 22.5t0.5 19.5q0 21 -5 46l-6 26q30 -28 69 -51q33 -20 78.5 -35.5t100.5 -15.5q83 0 132.5 31t49.5 87q0 51 -30.5 79t-76.5 45.5t-99 31t-99 36
t-76.5 60.5t-30.5 105q0 46 20 82t54 60.5t80 37t98 12.5q66 0 111 -7t74 -15q33 -10 55 -23q-5 -7 -9 -15l-8.5 -15.5t-8.5 -17.5q-4 -10 -6 -22l-4 -23q-2 -13 -2 -26q-17 24 -44 42q-23 16 -60.5 28.5t-92.5 12.5q-27 0 -54 -5t-48 -17t-34 -33t-13 -53q0 -42 31.5 -65
t78.5 -39t102 -30.5t102 -38t78.5 -62t31.5 -102.5z" />
    <glyph glyph-name="T" unicode="T" horiz-adv-x="555" 
d="M568 629q-24 8 -50 14q-23 5 -52 9.5t-61 4.5h-66q-1 -17 -2 -44q-1 -23 -1.5 -59.5t-0.5 -87.5v-196q0 -85 5.5 -138t11.5 -82q7 -34 16 -50l-30 4q-13 2 -27.5 2.5t-26.5 0.5t-26.5 -0.5t-27.5 -2.5l-30 -4q10 16 17 50q6 29 11 82t5 138v196q0 51 -0.5 87.5t-1.5 59.5
q-1 27 -2 44h-66q-32 0 -61 -4.5t-52 -9.5q-26 -6 -50 -14q2 9 4 19q2 8 3 18.5t1 20.5q0 11 -1 21t-3 18q-2 10 -4 19l50 -5q23 -2 52 -3.5t61 -1.5h242q32 0 61 1.5t52 3.5l50 5q-2 -9 -4 -19q-2 -8 -3 -18t-1 -21q0 -10 1 -20.5t3 -18.5q2 -10 4 -19z" />
    <glyph glyph-name="U" unicode="U" horiz-adv-x="771" 
d="M711 736q-3 -16 -6 -50q-2 -29 -4 -82t-2 -138v-191q0 -41 -5 -76t-19 -64q-38 -76 -113.5 -112t-172.5 -36q-96 0 -170.5 36.5t-107.5 111.5q-14 30 -20 65.5t-6 74.5v191q0 85 -4 138t-9 82q-6 34 -13 50q13 -1 26 -3q11 -2 24.5 -3t25.5 -1t23 1t20 3q11 2 19 3
q-3 -16 -6 -50q-2 -29 -4 -82t-2 -138v-191q0 -39 9.5 -77t32.5 -67.5t63 -47.5t101 -18q63 0 103 18t63.5 47.5t32.5 67.5t9 77v191q0 85 -2 138t-4 82q-3 34 -6 50q8 -1 19 -3q9 -2 20 -3t23 -1t23 1t20 3q11 2 19 3z" />
    <glyph glyph-name="V" unicode="V" horiz-adv-x="701" 
d="M719 736q-16 -30 -41 -83l-53 -119.5l-77 -186.5q-40 -101 -68.5 -192.5l-48.5 -154.5l-22 4q-10 2 -22 2.5t-24 0.5q-26 0 -49 -3l-26 -4l-43 124l-39 113l-40 110q-41 112 -72.5 186.5t-52.5 119.5q-25 53 -43 83q15 -1 30 -3q13 -2 27 -3t26 -1t25 1t24 3q13 2 25 3
q1 -18 6 -46q5 -24 15 -62.5t29 -92.5l158 -447h2l165 447q22 58 32 96.5t15 61.5q5 27 4 43q12 -1 25 -3q11 -2 24 -3t25 -1t23.5 1t20.5 3q11 2 20 3z" />
    <glyph glyph-name="W" unicode="W" horiz-adv-x="987" 
d="M1009 736l-53 -148l-21 -63.5l-21.5 -64.5l-19.5 -61t-15 -52q-13 -52 -26.5 -96.5t-23.5 -86t-16.5 -82t-6.5 -82.5l-28 4q-12 2 -26.5 2.5t-26.5 0.5t-27 -0.5t-29 -2.5l-32 -4q0 19 -7 56.5t-18.5 85l-25 101l-26.5 104.5l-21 83.5l-20 82.5l-21 88l-26 -104
l-21 -84.5t-18 -65.5q-35 -130 -52.5 -214.5t-17.5 -132.5l-28 4q-12 2 -26 2.5t-26 0.5t-27 -0.5t-29 -2.5l-33 -4q0 19 -6.5 56.5t-17 85t-24 101l-26.5 104.5q-32 125 -56.5 201t-41.5 118q-19 49 -33 70q15 -1 30 -3q13 -2 27 -3t26 -1t25 1t24 3q13 2 25 3
q-1 -15 3 -42q3 -23 10 -61.5t21 -97.5l104 -432h2l111 432q14 52 20.5 89.5t8.5 62.5q3 29 2 49q15 -1 29 -3q12 -2 26 -3t26 -1t26 1t26 3q14 2 28 3q-1 -15 3 -42q3 -23 10 -61.5t21 -97.5l104 -432h2l111 432q14 52 20.5 89.5t8.5 62.5q3 29 2 49q12 -1 25 -3
q11 -2 24 -3t25 -1t23.5 1t20.5 3q11 2 20 3z" />
    <glyph glyph-name="X" unicode="X" horiz-adv-x="701" 
d="M761 -13l-35 7q-17 3 -41 5.5t-54 2.5q-14 0 -27.5 -0.5t-23.5 -1.5l-22 -2l-21 40l-25.5 43.5t-34.5 50.5l-132 177l-126 -177q-19 -26 -33 -50t-23 -42q-11 -21 -18 -40q-22 2 -41 4q-17 2 -33.5 2.5t-25.5 0.5q-8 0 -21.5 -0.5t-26.5 -2.5l-30 -4q38 35 78 77
q35 36 78 85t86 108l80 109l-86 107q-27 34 -62 73l-68.5 74.5t-62 63t-43.5 39.5q21 -1 40 -3q17 -2 33 -3t24 -1q9 0 24 1t29 3q17 2 36 3q9 -19 20 -40q10 -18 25.5 -42t35.5 -50l122 -155l123 153q19 23 35 46.5l29 43.5q15 23 27 44q17 -1 34 -3q14 -2 28.5 -3t22.5 -1
q9 0 25 1t32 3q18 2 39 3q-29 -20 -85.5 -65.5t-122.5 -123.5l-131 -158l93 -119q52 -66 98 -118l81 -89q41 -43 77 -76z" />
    <glyph glyph-name="Y" unicode="Y" horiz-adv-x="701" 
d="M763 736q-20 -7 -45 -25q-21 -15 -49 -42.5t-61 -72.5l-195 -267v-84q0 -75 7 -123.5t16 -77.5q11 -33 23 -51q-18 3 -36 7q-15 3 -32 5t-29 2q-26 0 -49 -3l-26 -4q8 15 13 47q5 27 8.5 75t3.5 123v77l-197 277q-32 45 -61 72t-51 41q-26 17 -48 24q28 -1 53 -2
q21 -1 42.5 -1.5t33.5 -0.5t29 0.5t32 1.5l36 2q-4 -8 -5 -19q-1 -9 2 -21t13 -27l183 -262h1l161 228q15 21 20 39.5t5 32.5q0 16 -4 29q21 -1 39 -2q16 -1 33 -1.5t29 -0.5t30 0.5t35 1.5q19 1 40 2z" />
    <glyph glyph-name="Z" unicode="Z" horiz-adv-x="573" 
d="M576 -10q-18 2 -59 5q-35 2 -98.5 3.5t-166.5 1.5h-267l405 657h-40q-109 0 -173 -4.5t-98 -9.5q-40 -6 -53 -14l4 22q2 10 3 21.5t1 21.5q0 11 -1 20t-3 16q-2 8 -4 15q18 -2 59 -5q35 -2 98.5 -3.5t166.5 -1.5h206l-405 -657h133q97 0 154.5 8.5t88.5 19.5q36 12 49 27
l-4 -36q-2 -15 -3 -30t-1 -26q0 -10 1 -18.5t3 -16.5q2 -9 4 -16z" />
    <glyph glyph-name="bracketleft" unicode="[" horiz-adv-x="301" 
d="M26 -124q8 82 14 165q5 71 9 152t4 150q0 32 -1 68.5t-3 73.5l-4 74t-5 70q-6 78 -14 157h217q-3 -3 -6 -7q-2 -4 -4 -9t-2 -11q0 -8 2 -13.5l4 -10.5q3 -5 6 -9l-114 13q3 -72 7 -142q2 -30 3 -63l2 -66t1.5 -65t0.5 -60q0 -30 -0.5 -63.5t-1.5 -68l-2 -69t-3 -66.5
q-4 -74 -7 -149l114 13l-6 -10l-4 -10.5t-2 -11.5q0 -7 2 -12.5l4 -10.5q3 -5 6 -9h-217z" />
    <glyph glyph-name="backslash" unicode="\" horiz-adv-x="257" 
d="M201 -68q-15 76 -33 152l-33 139.5t-36 137.5q-17 60 -40 130l-44 132l-51 143h98q13 -67 28 -135l28.5 -124t31.5 -123q9 -33 20.5 -70t24.5 -75l26 -75.5l25 -71.5l59 -160h-104z" />
    <glyph glyph-name="bracketright" unicode="]" horiz-adv-x="301" 
d="M61 -124q3 4 6 9l4 10.5t2 12.5q0 6 -2 11.5l-4 10.5l-6 10l114 -13q-3 75 -7 149q-1 32 -2.5 66.5t-2.5 69t-1.5 68t-0.5 63.5q0 28 0.5 60t1.5 65t2.5 66t2.5 63q4 70 7 142l-114 -13q3 4 6 9l4 10.5t2 13.5q0 6 -2 11t-4 9q-3 4 -6 7h217q-7 -79 -13 -157
q-3 -33 -5.5 -70t-4.5 -74t-3 -73.5t-1 -68.5q0 -69 4.5 -150t9.5 -152q6 -83 13 -165h-217z" />
    <glyph glyph-name="asciicircum" unicode="^" horiz-adv-x="567" 
d="M554 367l-22 2q-9 1 -19 1.5t-16 0.5q-5 0 -13.5 -0.5t-16.5 -1.5l-18 -2l-29 56l-28.5 51.5l-29.5 50.5q-11 20 -25 42.5l-26 42.5l-27 46l-26 -46l-24.5 -42.5l-25.5 -42.5q-14 -23 -28.5 -50.5l-27.5 -51.5l-29 -56l-20 2q-8 1 -16.5 1.5t-14.5 0.5t-16 -0.5t-20 -1.5
l-23 -2l46 64q20 27 41 58.5t37 58.5l35.5 61.5l33.5 62.5l35 69q5 -1 11 -2q5 -1 13 -2t19 -1q10 0 18 1t13 2q6 1 11 2l36 -68l34 -62.5l35 -62.5l38 -58l40 -59z" />
    <glyph glyph-name="underscore" unicode="_" horiz-adv-x="603" 
d="M611 -180h-611v45h611v-45v0z" />
    <glyph glyph-name="grave" unicode="`" horiz-adv-x="567" 
d="M413 610q-18 0 -32 1q-12 1 -23 1h-14h-24q-9 0 -19 -1l-12 18q-5 8 -11.5 16.5t-12.5 14.5q-14 14 -26.5 28.5l-23.5 26.5l-24 27q14 0 26 -1q11 -1 20 -1.5t13 -0.5t9.5 0.5t11.5 1.5q7 1 15 1l16 -22q7 -10 15 -20t16 -18t21 -19.5l27 -23.5z" />
    <glyph glyph-name="a" unicode="a" horiz-adv-x="567" 
d="M581 20q-12 0 -25 -1q-11 -1 -23.5 -2.5t-23.5 -4.5q-10 -2 -19 -5.5t-16 -6.5q-8 -4 -15 -7q-6 11 -10 23q-4 11 -8 26t-6 32q-38 -42 -87.5 -61.5t-109.5 -19.5q-57 0 -95.5 13t-62 35.5t-33.5 51.5t-10 60q0 60 26.5 95.5t67 55t88 25.5t88.5 6q30 0 52.5 -0.5
t37.5 -1.5q18 -1 30 -2v51q0 104 -147 104q-30 0 -55 -9t-42 -24t-26.5 -33t-9.5 -36q-4 8 -10 18q-5 8 -12 18t-17 21q-5 7 -10.5 11l-9.5 7q-4 4 -9 6q8 26 33 45q21 17 62 30.5t111 13.5q123 0 177.5 -47.5t54.5 -145.5v-173q0 -47 10 -79t22 -52q14 -23 32 -37zM426 273
q-11 1 -26 2q-13 1 -31.5 1.5t-43.5 0.5q-31 0 -64 -4.5t-60 -16.5t-44.5 -34.5t-17.5 -58.5q0 -30 13.5 -49t34 -30.5t45 -15.5t46.5 -4q20 0 45.5 8.5t48 26t38.5 45t16 65.5v64z" />
    <glyph glyph-name="b" unicode="b" horiz-adv-x="613" 
d="M583 279q0 -51 -15 -102t-45.5 -92t-77.5 -67t-110 -26q-36 0 -64.5 8t-49 19.5t-34 24.5t-19.5 23q0 -14 1 -26.5t2 -21.5q1 -11 2 -19q-7 2 -16 4q-15 3 -38 3t-40 -3q-10 -2 -17 -4q3 16 6 50q2 29 3.5 82t1.5 138v196q0 85 -1.5 138t-3.5 82q-3 34 -6 50q7 -1 17 -3
q8 -2 18.5 -3t21.5 -1t21 1t18 3q10 2 18 3q-2 -18 -5 -51q-2 -29 -3.5 -76.5t-1.5 -122.5q17 19 42 35q21 14 51 24.5t70 10.5q56 0 103 -15.5t80.5 -49t52 -86t18.5 -126.5zM485 277q0 53 -12.5 91.5t-34 63.5t-50 37t-61.5 12q-78 0 -121 -48.5t-43 -155.5
q0 -58 11 -98.5t32 -65t51.5 -35.5t69.5 -11q33 0 61.5 11t50 35.5t34 65t12.5 98.5z" />
    <glyph glyph-name="c" unicode="c" horiz-adv-x="528" 
d="M517 137q-2 -13 -5 -25q-5 -23 -5 -43q0 -8 0.5 -16.5t1.5 -15.5l2 -16q-29 -8 -61 -14q-27 -5 -61 -9.5t-69 -4.5q-60 0 -110.5 16.5t-87 51t-57 86.5t-20.5 122q0 57 18 108.5t53 90.5t87 62t120 23q50 0 84 -5t56 -12q26 -8 40 -18l-8 -16q-4 -7 -8 -15.5t-7 -16.5
t-4.5 -19.5t-2.5 -21.5l-2 -23q-11 19 -31 35q-17 14 -45 24.5t-70 10.5q-37 0 -69.5 -10.5t-57 -34.5t-38.5 -63.5t-14 -97.5q0 -44 12.5 -80.5t38 -63t63 -41t88.5 -14.5q36 0 67 10t54 23q26 15 48 33z" />
    <glyph glyph-name="d" unicode="d" horiz-adv-x="616" 
d="M627 20q-13 0 -26 -1q-11 -1 -24 -2.5t-24 -4.5q-10 -2 -18.5 -5.5l-15.5 -6.5q-8 -4 -15 -7q-5 10 -10 22q-5 11 -9 26.5t-6 35.5q-23 -33 -70.5 -59t-120.5 -26q-64 0 -108.5 22t-73 59t-41.5 86t-13 104q0 141 62.5 216t196.5 75q42 0 71.5 -8t49.5 -19q23 -12 37 -28
v100q0 40 -3.5 66t-8.5 42q-5 18 -12 29q13 -1 25 -3q11 -2 23 -3t23 -1t21 1t18 3q10 2 18 3l-5 -31q-2 -15 -3.5 -36.5t-1.5 -49.5v-430q0 -48 10 -80t22 -52q14 -24 32 -37zM471 277q0 51 -9 90t-29 65t-52.5 39.5t-79.5 13.5q-40 0 -68.5 -16t-47 -45.5t-27.5 -70
t-9 -90.5q0 -53 12.5 -90t34 -60.5t50.5 -34.5t61 -11q77 0 120.5 50t43.5 160z" />
    <glyph glyph-name="e" unicode="e" horiz-adv-x="592" 
d="M562 381q0 -28 -13 -49.5t-33 -36.5t-45.5 -22.5t-50.5 -7.5h-260q0 -46 17 -81.5t47.5 -59t73.5 -35.5t94 -12q35 0 63.5 6t49.5 14q25 9 45 20q-2 -8 -5 -18q-5 -18 -5 -36q0 -8 1 -15.5t2 -13.5q1 -7 2 -12q-24 -7 -53 -13q-25 -5 -57.5 -9.5t-70.5 -4.5
q-56 0 -111.5 14t-100 45.5t-72 82t-27.5 123.5q0 60 15.5 113.5t48.5 94t85 64t126 23.5q63 0 107.5 -15.5t72.5 -40.5t41 -56t13 -62zM457 381q0 44 -35 75t-97 31q-43 0 -74.5 -16t-51.5 -40t-29.5 -52t-9.5 -52h233q24 0 44 15.5t20 38.5z" />
    <glyph glyph-name="f" unicode="f" horiz-adv-x="427" 
d="M83 537h18v46q0 90 51.5 128t138.5 38q30 0 54.5 -5t41.5 -12q20 -8 36 -18q-5 -5 -9 -12q-4 -6 -8 -13.5t-7 -15.5q-3 -9 -4.5 -17.5t-3.5 -15.5q-2 -8 -2 -15q-8 14 -21 25q-11 9 -30 16.5t-47 7.5q-45 0 -73.5 -20t-28.5 -71v-46h20q54 0 89 1t55 3q24 2 36 4
q-1 -7 -3 -15q-3 -13 -3 -31t3 -30q2 -7 3 -13q-12 2 -36 3q-20 1 -55 1.5t-89 0.5h-18v-291q0 -90 2.5 -139.5t5.5 -72.5q4 -27 8 -32q-8 -1 -18 -3q-8 -2 -18.5 -3t-21.5 -3t-23.5 -6.5t-23.5 -9.5l-27 -13q7 6 13 38q5 27 9 84t4 160v291h-18q-16 0 -30.5 -0.5
t-25.5 -1.5q-13 -1 -24 -3q1 6 3 13q3 12 3 30t-3 31q-2 8 -3 15q11 -2 24 -4q11 -2 25.5 -3t30.5 -1h18h-18z" />
    <glyph glyph-name="g" unicode="g" horiz-adv-x="571" 
d="M603 441l-27 4q-12 2 -25.5 3t-25.5 1h-40q8 -10 15 -24q6 -12 10.5 -30t4.5 -44q0 -34 -14 -65.5t-42.5 -56t-72.5 -39.5t-105 -15h-66q-46 0 -74 -5.5t-28 -28.5q0 -10 8.5 -17t21 -11.5t28 -6.5t29.5 -2h91q50 0 96.5 -7t83.5 -23.5t59 -44t22 -69.5q0 -49 -29 -80
t-71 -48.5t-88 -24t-81 -6.5q-57 0 -106.5 6.5t-86.5 22.5t-58 41.5t-21 63.5q0 12 3.5 26t12.5 27.5t24.5 26.5t39.5 23q-13 6 -25.5 12.5t-23 16t-17 22t-6.5 29.5q0 32 18 52t41 31q26 13 59 20q-24 13 -43 33q-17 17 -30 45t-13 66q0 60 21.5 97t54.5 58t72.5 28t75.5 7
q31 0 59 -4.5t52.5 -10.5t46.5 -10.5t42 -4.5q30 0 53.5 4.5t40.5 10.5q19 7 34 15q-1 -15 -3 -28q-2 -11 -2.5 -23.5t-0.5 -20.5q0 -17 3 -29q2 -7 3 -13zM419 365q0 54 -33.5 89t-103.5 35q-64 0 -100 -29.5t-36 -94.5q0 -28 10.5 -50.5t27.5 -38.5t40.5 -24.5t48.5 -8.5
q74 0 110 31.5t36 90.5zM437 -59q0 24 -9 39t-30 23.5t-55.5 12t-85.5 3.5h-98q-14 -4 -25 -13q-10 -8 -17.5 -19.5t-7.5 -28.5q0 -25 12.5 -42.5t35 -28.5t54.5 -16t72 -5q32 0 60 4.5t49 13.5t33 23t12 34z" />
    <glyph glyph-name="h" unicode="h" horiz-adv-x="608" 
d="M571 0l-21 4q-18 3 -42 3q-23 0 -40 -3q-10 -2 -18 -4q3 16 6 50q2 29 3.5 82t1.5 138v6q0 104 -34 153.5t-106 49.5q-38 0 -67 -15.5t-48.5 -43.5t-29.5 -67t-10 -85v-10q0 -81 2 -130.5t4 -78.5q3 -33 5 -49q-8 2 -18 4q-16 3 -40 3q-22 0 -39 -3q-10 -2 -18 -4
q3 16 6 50q2 29 3.5 82t1.5 138v196q0 85 -1.5 138t-3.5 82q-3 34 -6 50q8 -1 18 -3q8 -2 18 -3t21 -1t21.5 1t18.5 3q10 2 18 3q-2 -15 -5 -48q-2 -29 -4 -78.5t-2 -129.5v-7q11 23 35 41q20 16 54.5 28.5t88.5 12.5q56 0 95.5 -13.5t65 -42t37.5 -74t12 -109.5v-46
q0 -85 3 -138t6 -82q4 -34 8 -50z" />
    <glyph glyph-name="i" unicode="i" horiz-adv-x="217" 
d="M187 680q0 -26 -23 -39.5t-55 -13.5q-29 0 -52.5 13.5t-23.5 39.5t23.5 40t52.5 14q32 0 55 -14t23 -40zM165 0q-8 2 -17 4q-15 3 -39 3q-22 0 -37 -3q-9 -2 -17 -4q2 16 5 50q2 29 3.5 82t1.5 138v8q0 85 -1.5 138t-3.5 82q-3 34 -5 50q8 -1 17 -3q8 -2 17 -3t20 -1
t21 1t18 3q9 2 17 3q-2 -16 -5 -50q-2 -29 -3.5 -82t-1.5 -138v-8q0 -85 1.5 -138t3.5 -82q3 -34 5 -50z" />
    <glyph glyph-name="j" unicode="j" horiz-adv-x="224" 
d="M191 680q0 -26 -23 -39.5t-55 -13.5q-29 0 -52.5 13.5t-23.5 39.5t23.5 40t52.5 14q32 0 55 -14t23 -40zM169 548q-2 -16 -5 -50q-2 -29 -3.5 -82t-1.5 -138v-192q0 -47 -3.5 -83t-12 -63.5t-22.5 -48.5t-34 -37t-45 -25t-48 -13t-41 -4.5t-24 -0.5q-32 0 -57.5 5.5
t-43.5 13.5q-21 9 -37 19q4 4 8 9t8 11t8 14q4 9 6 19.5t3 19.5q1 11 1 21q10 -14 25 -25q13 -10 33 -17.5t49 -7.5q80 0 113 48q11 15 16.5 33.5t7.5 37.5t2 38v36v192q0 85 -1.5 138t-3.5 82q-3 34 -6 50q7 -1 16 -3q8 -2 18 -3t21 -1t20.5 1t17.5 3q9 2 16 3z" />
    <glyph glyph-name="k" unicode="k" horiz-adv-x="545" 
d="M604 0q-15 1 -30 3q-13 2 -26.5 2.5t-24.5 0.5t-27 -0.5t-31 -2.5q-18 -2 -36 -3q-11 19 -25 39l-27.5 38t-34.5 42l-177 195v-44q0 -85 2 -138t4 -82q3 -34 5 -50q-8 2 -17 4q-15 3 -38 3t-38 -3q-9 -2 -16 -4q2 16 5 50q2 29 3.5 82t1.5 138v196q0 85 -1.5 138t-3.5 82
q-3 34 -5 50q7 -1 16 -3q8 -2 17.5 -3t20.5 -1t20.5 1t17.5 3q9 2 17 3q-2 -16 -5 -50q-2 -29 -4 -82t-2 -138v-138l112 100q21 19 40.5 39.5l35.5 38.5l35 41q15 -1 29 -3q12 -2 25.5 -2.5t24.5 -0.5t26.5 0.5t29.5 2.5q17 2 34 3q-16 -11 -47.5 -34.5l-65.5 -49.5
l-64.5 -50t-44.5 -36l-70 -58l74 -76q14 -15 33 -33l40.5 -38l44 -40.5l43.5 -39.5z" />
    <glyph glyph-name="l" unicode="l" horiz-adv-x="240" 
d="M176 0q-8 2 -17 4q-15 3 -38 3t-38 -3q-9 -2 -16 -4q2 16 5 50q2 29 3.5 82t1.5 138v196q0 85 -1.5 138t-3.5 82q-3 34 -5 50q7 -1 16 -3q8 -2 17.5 -3t20.5 -1t20.5 1t17.5 3q9 2 17 3q-2 -16 -5 -50q-2 -29 -4 -82t-2 -138v-196q0 -85 2 -138t4 -82q3 -34 5 -50z" />
    <glyph glyph-name="m" unicode="m" horiz-adv-x="951" 
d="M917 0l-22 4q-19 3 -43 3q-22 0 -39 -3q-10 -2 -18 -4q3 16 6 50q2 29 3.5 82t1.5 138v15q0 194 -131 194q-66 0 -106.5 -51.5t-40.5 -142.5v-15q0 -85 3 -138t6 -82q4 -34 8 -50l-21 4q-10 2 -21 2.5t-22 0.5t-21 -0.5t-18 -2.5q-9 -2 -17 -4q2 16 5 50q2 29 3.5 82
t1.5 138v15q0 194 -132 194q-68 0 -107 -53t-39 -141v-15q0 -85 1.5 -138t3.5 -82q3 -34 5 -50q-8 2 -18 4q-16 3 -40 3q-21 0 -38 -3q-10 -2 -18 -4q2 16 5 50q2 29 3.5 82t1.5 138v46q0 68 -1.5 112t-3.5 71q-3 32 -5 49q8 -1 18 -3q8 -2 17.5 -3t20.5 -1q12 0 21.5 1
t17.5 3l15 3q-1 -8 -3 -19q-3 -18 -3 -49v-7q12 23 35 41q20 16 52 28.5t81 12.5q75 0 119.5 -27t66.5 -87q2 4 9.5 22.5t28 38.5t56 36.5t92.5 16.5q106 0 154 -58t48 -181v-46q0 -85 2.5 -138t6.5 -82q4 -34 9 -50z" />
    <glyph glyph-name="n" unicode="n" horiz-adv-x="600" 
d="M562 0l-21 4q-9 2 -20 2.5t-22 0.5q-23 0 -40 -3q-10 -2 -18 -4q2 16 5 50q2 29 3.5 82t1.5 138v7q0 104 -33.5 153t-105.5 49q-38 0 -67 -15.5t-48.5 -42.5t-29.5 -64t-10 -80v-7q0 -85 1.5 -138t3.5 -82q3 -34 5 -50q-8 2 -18 4q-16 3 -39 3q-22 0 -39 -3
q-10 -2 -18 -4q2 16 5 50q2 29 3.5 82t1.5 138v196q0 13 -1.5 27t-3.5 26q-3 14 -5 29q8 -1 18 -3q8 -2 18 -3t21 -1t21 1t18 3q10 2 18 3q-2 -6 -5 -17q-5 -20 -5 -51v-7q11 23 35 41q20 16 54.5 28.5t88.5 12.5q56 0 95.5 -13.5t65 -42t37.5 -74t12 -109.5v-46
q0 -85 3 -138t6 -82q4 -34 8 -50z" />
    <glyph glyph-name="o" unicode="o" horiz-adv-x="605" 
d="M573 268q0 -58 -17 -108t-50.5 -87t-82.5 -58.5t-114 -21.5q-76 0 -128 19t-84 55t-46.5 86.5t-14.5 113.5q0 56 14 107.5t46 91.5t84.5 63.5t128.5 23.5q80 0 131 -24t80.5 -63.5t41 -91t11.5 -106.5zM477 265q0 33 -4.5 71t-21 70t-49.5 53.5t-91 21.5q-57 0 -92 -19
t-54.5 -49.5t-26.5 -69.5t-7 -79q0 -100 42.5 -149t137.5 -49q44 0 75.5 16t51.5 43t29.5 63.5t9.5 76.5z" />
    <glyph glyph-name="p" unicode="p" horiz-adv-x="613" 
d="M573 293q0 -72 -19.5 -128t-53.5 -94.5t-81 -58.5t-103 -20q-42 0 -72.5 10t-50.5 21q-24 13 -40 30q0 -84 3 -132.5t6 -72.5q4 -28 8 -36q-9 1 -20 3q-9 2 -19.5 3t-21.5 1t-21 -1t-18 -3q-9 -2 -16 -3q3 16 6 50q2 29 3.5 82t1.5 138v196q0 85 -1.5 138t-3.5 82
q-3 34 -6 50q7 -1 16 -3q8 -2 18 -3t21 -1t20.5 1t17.5 3q9 2 16 3q-1 -9 -2 -20q-1 -9 -2 -19.5t-1 -21.5q11 10 26 21.5t35.5 21.5t47.5 16.5t62 6.5q17 0 41.5 -3t52 -12.5t54 -27t48 -46.5t35 -71t13.5 -100zM475 275q0 59 -13 98t-35 62t-51 33t-62 10
q-83 0 -122 -55.5t-39 -158.5q0 -51 12.5 -88.5t34 -62t51 -36t63.5 -11.5q33 0 62 10.5t51 35.5t35 65t13 98z" />
    <glyph glyph-name="q" unicode="q" horiz-adv-x="616" 
d="M571 -188q-8 1 -17 3q-8 2 -17.5 3t-20.5 1t-22 -1t-20 -3q-11 -2 -20 -3q5 9 9 38q3 25 5.5 73.5t2.5 133.5q-16 -18 -40 -32q-20 -12 -50.5 -22.5t-71.5 -10.5q-131 0 -194 71.5t-63 208.5q0 64 15.5 116t46.5 88.5t78 56.5t111 20q41 0 71 -9t51 -20q25 -13 42 -30
q0 21 -3 36q-2 9 -3 18q8 -1 17 -3q8 -2 17.5 -3t20.5 -1t20.5 1t17.5 3q9 2 17 3q-2 -16 -5 -50q-2 -29 -4 -82t-2 -138v-196q0 -85 2 -138t4 -82q3 -34 5 -50zM467 264q0 39 -6 77t-22.5 68.5t-47 49.5t-80.5 19q-33 0 -62 -10t-51.5 -33t-35.5 -62t-13 -98q0 -58 13 -98
t35.5 -65t51.5 -35.5t62 -10.5q49 0 79.5 18t47.5 46.5t23 64t6 69.5z" />
    <glyph glyph-name="r" unicode="r" horiz-adv-x="395" 
d="M391 432q-7 11 -19 19q-11 7 -29.5 12.5t-47.5 5.5t-54.5 -10t-44.5 -34.5t-30 -65t-11 -102.5v-12q0 -75 5.5 -123t12.5 -75q8 -32 18 -47l-30 4q-13 2 -27 2.5t-25 0.5q-22 0 -37 -3q-9 -2 -17 -4q2 16 5 50q2 29 3.5 82t1.5 138v8q0 91 -3 143.5t-8 81.5q-5 33 -12 45
q12 -1 23 -3q10 -2 21.5 -3t22.5 -1q12 0 21.5 1t16.5 3q8 2 14 3q-1 -8 -3 -19q-3 -18 -3 -49v-7q15 22 35 40q17 15 44 27.5t63 12.5q27 0 45 -2.5t29 -5.5q13 -4 20 -9q-1 -6 -3 -13q-2 -6 -3 -14t-1 -16q0 -11 1 -22t3 -20q2 -11 3 -19z" />
    <glyph glyph-name="s" unicode="s" horiz-adv-x="464" 
d="M439 162q0 -47 -19 -79t-49 -52t-67.5 -28.5t-74.5 -8.5q-60 0 -102 9t-70 20q-33 12 -54 28q4 5 8 12q3 6 6.5 15.5t6.5 20.5q2 9 3.5 19.5t3.5 19.5q2 11 2 21q17 -25 44 -44q23 -17 60.5 -30.5t91.5 -13.5q50 0 78.5 20t28.5 63q0 28 -22.5 44.5t-55.5 28.5t-72.5 24
t-72.5 30.5t-55.5 47.5t-22.5 75q0 72 53 112.5t145 40.5q41 0 73.5 -7t55.5 -15q27 -10 48 -22q-4 -6 -8 -13q-4 -6 -8 -13.5t-7 -15.5q-4 -10 -6 -20.5t-3 -19.5q-1 -11 -1 -20q-14 20 -34 37q-17 14 -44.5 25.5t-65.5 11.5q-54 0 -78 -21t-24 -59q0 -28 23 -44.5t57 -29
t74 -24t74 -29.5t57 -45t23 -71z" />
    <glyph glyph-name="t" unicode="t" horiz-adv-x="417" 
d="M401 147q-2 -18 -5 -36q-2 -15 -3.5 -30t-1.5 -24q0 -8 0.5 -14.5t1.5 -11.5t2 -9q-19 -8 -40 -14q-18 -5 -40 -10t-44 -5q-37 0 -68.5 8.5t-54 27.5t-35 50.5t-12.5 76.5v305h-18q-16 0 -30.5 -2t-25.5 -4q-13 -3 -24 -6q1 8 3 16q3 14 3 32q0 19 -3 32q-2 8 -3 16
q11 -2 24 -4q11 -2 25.5 -3t30.5 -1h22v8q0 20 -1.5 40t-3.5 36q-3 18 -5 36q26 0 46.5 3.5t34.5 8.5q17 5 29 12q-2 -20 -5 -43q-2 -20 -3.5 -44t-1.5 -49v-8h14q54 0 89 1t55 3q24 2 36 4q-1 -8 -3 -16q-3 -13 -3 -32q0 -18 3 -32q2 -8 3 -16q-12 3 -36 6q-20 2 -55 4
t-89 2h-14v-260q0 -25 3 -47.5t13 -39.5t29 -27t51 -10q28 0 48.5 10.5t34.5 24.5q16 16 27 35z" />
    <glyph glyph-name="u" unicode="u" horiz-adv-x="601" 
d="M594 20q-9 0 -20 -1q-9 -1 -19.5 -2.5t-21.5 -4.5q-10 -2 -19 -5.5t-16 -6.5q-8 -4 -15 -7q-5 11 -10 25q-5 12 -9 28t-7 35q-41 -51 -86 -69.5t-94 -18.5q-39 0 -77.5 6.5t-68.5 29t-49 66t-19 118.5v65q0 87 -3.5 139.5t-8.5 81.5q-5 34 -12 49q12 -1 23 -3
q10 -2 22 -3t23 -1t21.5 1t18.5 3q10 2 19 3q-2 -16 -5 -50q-2 -29 -3.5 -82t-1.5 -138v-19q0 -52 9.5 -87t27.5 -56.5t45 -30.5t63 -9q46 0 75 19t45.5 49.5t23 68.5t6.5 76v46q0 64 -1.5 105t-3.5 65q-3 28 -6 43q8 -1 17 -3q8 -2 17.5 -3t20.5 -1t21.5 1t18.5 3
q10 2 19 3q-2 -16 -5 -50q-2 -29 -3.5 -82t-1.5 -138v-128q0 -40 7.5 -65.5t17.5 -39.5q11 -17 25 -25z" />
    <glyph glyph-name="v" unicode="v" horiz-adv-x="564" 
d="M579 547q-15 -17 -34 -50q-17 -28 -39.5 -74.5t-50.5 -118.5l-43 -111q-11 -27 -22 -60.5l-20 -62.5q-11 -34 -21 -70l-23 4q-11 2 -22.5 2.5t-22.5 0.5t-23 -0.5t-23 -2.5l-24 -4q-10 36 -21 70l-20 62.5t-22 60.5l-44 111q-28 72 -50.5 118t-37.5 74q-18 33 -31 51
q16 -1 31 -3q13 -2 27 -2.5t25 -0.5t23 0.5t22 2.5q11 2 23 3q-3 -9 -2 -26q1 -14 5 -36.5t16 -56.5l126 -349h2l126 349q11 32 16 54.5t7 36.5q2 17 0 28q12 -1 24 -3q11 -2 22.5 -2.5t22.5 -0.5t24.5 0.5t25.5 2.5q14 2 28 3z" />
    <glyph glyph-name="w" unicode="w" horiz-adv-x="797" 
d="M813 547q-12 -16 -28 -48q-14 -27 -32 -74t-40 -121l-33 -111q-8 -28 -16 -61.5t-14 -62.5l-14 -69l-30 4q-13 2 -26 2.5t-21 0.5q-9 0 -22 -0.5t-25 -2.5l-29 -4l-10 70l-11 62.5t-13 60.5l-49 196h-1l-50 -196q-7 -27 -13 -60.5l-11 -62.5l-10 -70l-29 4
q-12 2 -24.5 2.5t-21.5 0.5q-8 0 -21.5 -0.5t-25.5 -2.5q-14 -2 -30 -4l-14 70q-6 29 -14 62.5t-16 60.5l-34 111q-23 74 -40.5 121t-31.5 74q-16 32 -28 48q16 -1 32 -3q14 -2 28 -2.5t22 -0.5q9 0 20.5 0.5t22.5 2.5q12 2 25 3q-3 -9 -4 -26q-1 -14 2 -36.5t12 -56.5
l94 -349h2l79 349q8 33 10 56t0 37q-2 17 -6 26q15 -1 29 -3q12 -2 25 -2.5t21 -0.5q9 0 21.5 0.5t24.5 2.5q14 2 28 3q-3 -11 -4 -28q-1 -14 1 -36.5t9 -54.5l78 -349h2l94 349q8 29 10.5 51t2.5 37q0 18 -3 31q14 -1 26 -3q11 -2 22.5 -2.5t20.5 -0.5t22.5 0.5t26.5 2.5
q15 2 32 3z" />
    <glyph glyph-name="x" unicode="x" horiz-adv-x="527" 
d="M562 0l-37 4q-15 2 -30 2.5t-23 0.5t-20 -0.5t-24 -2.5l-29 -4q-5 15 -14 33q-8 16 -21 38.5t-33 49.5l-67 92l-67 -94q-20 -28 -31.5 -49.5l-19.5 -37.5q-9 -18 -13 -32q-14 2 -26 4q-11 2 -22.5 2.5t-19.5 0.5t-21 -0.5t-27 -2.5l-33 -4l90 104l36 42l33.5 39.5
l28.5 33.5t20 24l21 26l-84 106q-11 14 -32 38.5l-44 50.5l-44 49t-32 34q21 -1 39 -3q16 -2 30.5 -2.5t22.5 -0.5t20 0.5t23 2.5q13 2 27 3q2 -14 8 -32q5 -16 17 -37.5t32 -49.5l71 -95l66 94q18 25 29.5 46.5t19.5 38.5q9 19 13 35q12 -1 23 -3q20 -3 37 -3q8 0 22.5 0.5
t29.5 2.5q18 2 36 3l-30 -33.5l-41.5 -48l-41.5 -49.5l-32 -39l-81 -102l34 -36l73 -80l68 -77z" />
    <glyph glyph-name="y" unicode="y" horiz-adv-x="564" 
d="M588 547q-16 -17 -35 -50q-17 -28 -39 -74.5t-50 -118.5l-144 -373q-12 -32 -17.5 -55.5t-7.5 -39.5q-2 -18 0 -31q-12 1 -24 3q-21 3 -45 3q-11 0 -26 -2l-29 -4q-16 -3 -33 -5q19 19 38 47q17 24 36.5 61t38.5 91l-31 1q-10 36 -21 70l-21.5 62.5t-22.5 60.5l-46 111
q-31 76 -53.5 123l-36.5 74q-17 32 -28 46q16 -1 32 -3q14 -2 28.5 -2.5t25.5 -0.5t22.5 0.5t22.5 2.5q12 2 23 3q-3 -9 -2 -26q1 -14 5 -36.5t16 -56.5l125 -349h2l127 349q12 34 17 56.5t7 36.5q2 17 -1 26q12 -1 24 -3q21 -3 44 -3q11 0 24.5 0.5t25.5 2.5q14 2 29 3z
" />
    <glyph glyph-name="z" unicode="z" horiz-adv-x="503" 
d="M151 73h54q94 0 150.5 4.5t88.5 9.5q37 6 53 14l-4 -23q-2 -10 -3 -21t-1 -20t1 -19.5t3 -19.5q2 -11 4 -20q-16 6 -53 11q-32 5 -88.5 8t-150.5 3h-222l347 467h-27q-93 0 -150 -4t-89 -9q-37 -6 -53 -13q1 12 3 23q3 20 3 40q0 9 -0.5 19.5t-2.5 19.5q-2 11 -3 20
q16 -6 53 -11q32 -5 89 -8t150 -3h194z" />
    <glyph glyph-name="braceleft" unicode="{" horiz-adv-x="313" 
d="M46 -124q25 52 45 113q17 52 31 119t14 139q-6 4 -9 5q-14 8 -31.5 13t-33.5 9q-18 4 -36 7l2 21q1 8 1.5 16.5t0.5 13.5t-0.5 14t-1.5 17l-2 21q19 1 37 5q16 3 33 8.5t31 13.5l9 6q0 81 -14 148t-31 117q-20 58 -45 104h244q-3 -3 -6 -7l-4.5 -9t-2.5 -11
q0 -8 2.5 -13.5t4.5 -10.5q3 -5 6 -9l-114 13q16 -67 27 -131q10 -55 18 -113.5t8 -99.5l-30 -8q-13 -4 -27.5 -9.5t-26.5 -13.5l-28.5 -17l-25.5 -15l25.5 -15.5l28.5 -17.5q12 -7 26.5 -12.5l27.5 -10.5q15 -5 30 -9q0 -59 -8 -118.5t-18 -109.5q-11 -58 -27 -112l114 13
l-6 -10q-2 -5 -4.5 -10.5t-2.5 -11.5q0 -7 2.5 -12.5t4.5 -10.5q3 -5 6 -9h-244z" />
    <glyph glyph-name="bar" unicode="|" horiz-adv-x="281" 
d="M163 -59q-4 1 -9 2t-10.5 1.5t-11.5 0.5t-11 -0.5t-10 -1.5l-10 -2q1 7 3 25q2 15 2.5 41.5t0.5 69.5v570q0 42 -0.5 68t-2.5 41q-2 18 -3 25q5 0 10 -1t10 -1.5t11 -0.5t11.5 0.5t10.5 1.5t9 1q-1 -7 -3 -25q-2 -15 -2.5 -41t-0.5 -68v-570q0 -43 0.5 -69.5t2.5 -41.5
q2 -18 3 -25z" />
    <glyph glyph-name="braceright" unicode="}" horiz-adv-x="313" 
d="M287 281q-18 -3 -36 -7q-16 -4 -33.5 -9t-31.5 -13l-4 -2t-5 -3q0 -72 14 -139t31 -119q20 -61 45 -113h-244q4 4 7 9l4 10.5t2 12.5q0 6 -2 11.5l-4 10.5q-3 5 -7 10l114 -13q-15 54 -26 112q-10 50 -18.5 109.5t-8.5 118.5q15 4 30 9l28 10.5t26 12.5l28.5 17.5
t26.5 15.5l-26.5 15l-28.5 17q-11 8 -26 13.5t-28 9.5l-30 8q0 41 8.5 99.5t18.5 113.5q11 64 26 131l-114 -13q4 4 7 9l4 10.5t2 13.5q0 6 -2 11t-4 9q-3 4 -7 7h244q-25 -46 -45 -104q-17 -50 -31 -117t-14 -148q3 -2 5 -3t4 -3q14 -8 31 -13.5t33 -8.5q18 -4 37 -5
l-2 -21q-1 -8 -1.5 -17t-0.5 -14t0.5 -13.5t1.5 -16.5z" />
    <glyph glyph-name="asciitilde" unicode="~" horiz-adv-x="567" 
d="M551 326q-13 -32 -28 -56t-34.5 -40.5t-44.5 -25t-59 -8.5t-59 14t-47 30.5t-43.5 30.5t-50.5 14q-33 0 -57 -13t-40 -29q-18 -18 -31 -42q2 9 1 19q-1 8 -2.5 17t-6.5 17q-2 5 -5.5 8t-6.5 5q-4 3 -8 4q51 111 166 111q40 0 65 -13.5t45 -29t40 -29t50 -13.5
q35 0 57 12.5t36 27.5q16 18 24 39q1 -11 4 -20q2 -8 5 -15t5 -9q9 -4 16 -5q4 -1 9 -1z" />
    <glyph glyph-name="uni0081" horiz-adv-x="717" 
d="M438 865q0 -16 -6 -30.5t-16.5 -25t-25 -17t-30.5 -6.5q-33 -1 -56.5 22.5t-22.5 56.5q0 17 6.5 31t17 24.5t25 16.5t30.5 6q32 0 54.5 -23t23.5 -55zM721 0l-29 4q-13 2 -27 2.5t-26 0.5q-26 0 -49 -3l-25 -4q-1 19 -6 47q-5 24 -15 62t-29 92l-25 72h-273l-28 -72
q-22 -57 -32.5 -95.5t-14.5 -61.5q-4 -27 -3 -44l-25 4q-11 2 -24 2.5t-25 0.5q-26 0 -44 -3l-21 -4q16 30 41 83l53 119.5l77 186.5q40 101 69 192.5l49 154.5q11 -1 22 -3q10 -2 21.5 -3t23.5 -1t25.5 1t24.5 3q13 2 25 3l43 -124l40 -113l39 -110q42 -112 73 -186
t52 -119q25 -53 43 -84zM394 865q0 14 -10.5 25t-24.5 11q-15 0 -25.5 -10.5t-10.5 -25.5t10.5 -25.5t25.5 -10.5q14 0 24.5 10.5t10.5 25.5zM356 648h-2l-109 -297h218z" />
    <glyph glyph-name="uni008D" horiz-adv-x="528" 
d="M517 137q-2 -13 -5 -25q-5 -23 -5 -43q0 -8 0.5 -16.5t1.5 -15.5l2 -16q-29 -8 -61 -14q-27 -5 -61 -9.5t-69 -4.5v-32q38 1 68 -7q26 -7 46.5 -22.5t20.5 -46.5q0 -21 -14.5 -37.5t-38 -27t-53 -16t-60.5 -5.5q-37 0 -62 3t-40 8q-18 5 -28 11q6 3 11 7t8.5 8.5
t5.5 11.5q2 3 2 9.5t-1 12.5l-2 16q11 -10 27 -18q14 -7 33.5 -12t45.5 -5q25 0 41.5 3.5t26.5 8.5t14 12t4 13q0 16 -15.5 23.5t-39.5 7.5q-6 0 -13 -1l-14 -2l-16 -2v8q0 10 -4 15q-3 5 -9 8q-4 2 -7 4l30 46q-54 4 -98.5 23t-76.5 53t-49.5 83.5t-17.5 114.5
q0 57 18 108.5t53 90.5t87 62t120 23q50 0 84 -5t56 -12q26 -8 40 -18l-8 -16q-4 -7 -8 -15.5t-7 -16.5t-4.5 -19.5t-2.5 -21.5l-2 -23q-11 19 -31 35q-17 14 -45 24.5t-70 10.5q-37 0 -69.5 -10.5t-57 -34.5t-38.5 -63.5t-14 -97.5q0 -44 12.5 -80.5t38 -63t63 -41
t88.5 -14.5q36 0 67 10t54 23q26 15 48 33z" />
    <glyph glyph-name="uni008E" horiz-adv-x="592" 
d="M405 742l-23 -27l-24 -26.5t-27 -28.5q-6 -6 -12.5 -14.5t-11.5 -16.5l-12 -18q-10 1 -19 1h-24h-13.5t-23.5 -1q-14 -1 -32 -1l33 29l26.5 23.5t20.5 19.5t16 18t15 20l16 22q8 0 15 -1q6 -1 12 -1.5t9 -0.5q4 0 13 0.5t20 1.5q12 1 26 1zM562 381q0 -28 -13 -49.5
t-33 -36.5t-45.5 -22.5t-50.5 -7.5h-260q0 -46 17 -81.5t47.5 -59t73.5 -35.5t94 -12q35 0 63.5 6t49.5 14q25 9 45 20q-2 -8 -5 -18q-5 -18 -5 -36q0 -8 1 -15.5t2 -13.5q1 -7 2 -12q-24 -7 -53 -13q-25 -5 -57.5 -9.5t-70.5 -4.5q-56 0 -111.5 14t-100 45.5t-72 82
t-27.5 123.5q0 60 15.5 113.5t48.5 94t85 64t126 23.5q63 0 107.5 -15.5t72.5 -40.5t41 -56t13 -62zM457 381q0 44 -35 75t-97 31q-43 0 -74.5 -16t-51.5 -40t-29.5 -52t-9.5 -52h233q24 0 44 15.5t20 38.5z" />
    <glyph glyph-name="uni008F" horiz-adv-x="592" 
d="M413 610q-18 0 -32 1q-12 1 -23 1h-14h-24q-9 0 -19 -1l-12 18q-5 8 -11.5 16.5t-12.5 14.5q-14 14 -26.5 28.5l-23.5 26.5l-24 27q14 0 26 -1q11 -1 20 -1.5t13 -0.5t9.5 0.5t11.5 1.5q7 1 15 1l16 -22q7 -10 15 -20t16 -18t21 -19.5l27 -23.5zM562 381q0 -28 -13 -49.5
t-33 -36.5t-45.5 -22.5t-50.5 -7.5h-260q0 -46 17 -81.5t47.5 -59t73.5 -35.5t94 -12q35 0 63.5 6t49.5 14q25 9 45 20q-2 -8 -5 -18q-5 -18 -5 -36q0 -8 1 -15.5t2 -13.5q1 -7 2 -12q-24 -7 -53 -13q-25 -5 -57.5 -9.5t-70.5 -4.5q-56 0 -111.5 14t-100 45.5t-72 82
t-27.5 123.5q0 60 15.5 113.5t48.5 94t85 64t126 23.5q63 0 107.5 -15.5t72.5 -40.5t41 -56t13 -62zM457 381q0 44 -35 75t-97 31q-43 0 -74.5 -16t-51.5 -40t-29.5 -52t-9.5 -52h233q24 0 44 15.5t20 38.5z" />
    <glyph glyph-name="uni0090" horiz-adv-x="592" 
d="M455 603q-15 0 -26 1q-10 1 -19 1h-11h-19q-6 0 -13 -1q-6 10 -11 20l-10.5 17.5t-10.5 16.5q-3 5 -7 11t-9 12q-5 7 -10 15l-9 -15q-4 -6 -7.5 -12t-6.5 -10q-5 -7 -10.5 -17t-10.5 -18l-10 -20q-7 1 -14 1h-20h-11.5t-19.5 -1q-11 -1 -25 -1l27 32l23 26.5l19 21.5
t13.5 19t11.5 22l12 25q8 0 15 -1q6 -1 12.5 -1h10.5h11t13 1q8 1 16 1q5 -13 11 -25q5 -11 11.5 -22t13.5 -19l19 -22l23 -27zM562 381q0 -28 -13 -49.5t-33 -36.5t-45.5 -22.5t-50.5 -7.5h-260q0 -46 17 -81.5t47.5 -59t73.5 -35.5t94 -12q35 0 63.5 6t49.5 14q25 9 45 20
q-2 -8 -5 -18q-5 -18 -5 -36q0 -8 1 -15.5t2 -13.5q1 -7 2 -12q-24 -7 -53 -13q-25 -5 -57.5 -9.5t-70.5 -4.5q-56 0 -111.5 14t-100 45.5t-72 82t-27.5 123.5q0 60 15.5 113.5t48.5 94t85 64t126 23.5q63 0 107.5 -15.5t72.5 -40.5t41 -56t13 -62zM457 381q0 44 -35 75
t-97 31q-43 0 -74.5 -16t-51.5 -40t-29.5 -52t-9.5 -52h233q24 0 44 15.5t20 38.5z" />
    <glyph glyph-name="uni009D" horiz-adv-x="601" 
d="M413 610q-18 0 -32 1q-12 1 -23 1h-14h-24q-9 0 -19 -1l-12 18q-5 8 -11.5 16.5t-12.5 14.5q-14 14 -26.5 28.5l-23.5 26.5l-24 27q14 0 26 -1q11 -1 20 -1.5t13 -0.5t9.5 0.5t11.5 1.5q7 1 15 1l16 -22q7 -10 15 -20t16 -18t21 -19.5l27 -23.5zM594 20q-9 0 -20 -1
q-9 -1 -19.5 -2.5t-21.5 -4.5q-10 -2 -19 -5.5t-16 -6.5q-8 -4 -15 -7q-5 11 -10 25q-5 12 -9 28t-7 35q-41 -51 -86 -69.5t-94 -18.5q-39 0 -77.5 6.5t-68.5 29t-49 66t-19 118.5v65q0 87 -3.5 139.5t-8.5 81.5q-5 34 -12 49q12 -1 23 -3q10 -2 22 -3t23 -1t21.5 1t18.5 3
q10 2 19 3q-2 -16 -5 -50q-2 -29 -3.5 -82t-1.5 -138v-19q0 -52 9.5 -87t27.5 -56.5t45 -30.5t63 -9q46 0 75 19t45.5 49.5t23 68.5t6.5 76v46q0 64 -1.5 105t-3.5 65q-3 28 -6 43q8 -1 17 -3q8 -2 17.5 -3t20.5 -1t21.5 1t18.5 3q10 2 19 3q-2 -16 -5 -50q-2 -29 -3.5 -82
t-1.5 -138v-128q0 -40 7.5 -65.5t17.5 -39.5q11 -17 25 -25z" />
    <glyph glyph-name="uni009E" horiz-adv-x="601" 
d="M441 603q-15 0 -26 1q-10 1 -19 1h-11h-18q-6 0 -13 -1q-6 10 -11 20l-10.5 17.5t-11.5 16.5q-3 5 -7 11l-8 12q-4 7 -10 15l-9 -15q-4 -6 -7.5 -12t-6.5 -10q-5 -7 -10.5 -17t-10.5 -18l-10 -20q-7 1 -14 1h-20h-11.5t-19.5 -1q-11 -1 -25 -1l27 32l23 26.5l19 21.5
t13.5 19t11.5 22l12 25q8 0 15 -1q6 -1 12.5 -1h10.5h11.5t12.5 1q7 1 15 1l12 -25q5 -11 11.5 -22t13.5 -19l18.5 -22l22.5 -27zM594 20q-9 0 -20 -1q-9 -1 -19.5 -2.5t-21.5 -4.5q-10 -2 -19 -5.5t-16 -6.5q-8 -4 -15 -7q-5 11 -10 25q-5 12 -9 28t-7 35
q-41 -51 -86 -69.5t-94 -18.5q-39 0 -77.5 6.5t-68.5 29t-49 66t-19 118.5v65q0 87 -3.5 139.5t-8.5 81.5q-5 34 -12 49q12 -1 23 -3q10 -2 22 -3t23 -1t21.5 1t18.5 3q10 2 19 3q-2 -16 -5 -50q-2 -29 -3.5 -82t-1.5 -138v-19q0 -52 9.5 -87t27.5 -56.5t45 -30.5t63 -9
q46 0 75 19t45.5 49.5t23 68.5t6.5 76v46q0 64 -1.5 105t-3.5 65q-3 28 -6 43q8 -1 17 -3q8 -2 17.5 -3t20.5 -1t21.5 1t18.5 3q10 2 19 3q-2 -16 -5 -50q-2 -29 -3.5 -82t-1.5 -138v-128q0 -40 7.5 -65.5t17.5 -39.5q11 -17 25 -25z" />
    <glyph glyph-name="uni00A0" unicode="&#xa0;" horiz-adv-x="609" 
d="M607 461q-14 7 -45 12q-26 5 -73.5 8.5t-124.5 3.5h-23v-301q0 -66 2.5 -112t5.5 -75q4 -34 8 -56q-8 1 -17 3q-15 3 -38 3t-38 -3q-9 -2 -16 -3q5 22 9 56q3 29 5.5 75t2.5 112v301h-26q-77 0 -124 -3.5t-74 -8.5q-32 -5 -46 -12q1 8 3 17q3 15 3 37q0 24 -3 39
q-2 9 -3 17q14 -7 46 -12q27 -5 74 -8.5t124 -3.5h26q0 63 -2.5 106.5t-5.5 70.5q-4 32 -9 51q7 -1 16 -3q15 -3 38 -3t38 3q9 2 17 3q-4 -19 -8 -51q-3 -27 -5.5 -70.5t-2.5 -106.5h23q77 0 124.5 3.5t73.5 8.5q31 5 45 12q-1 -8 -3 -17q-3 -15 -3 -39q0 -22 3 -37
q2 -9 3 -17z" />
    <glyph glyph-name="exclamdown" unicode="&#xa1;" horiz-adv-x="279" 
d="M239 647q0 -21 -7.5 -39t-21 -31.5t-32 -21.5t-39.5 -8q-42 0 -71 29t-29 71q0 21 8 39.5t21.5 32t31.5 21t39 7.5t39.5 -7.5t32 -21t21 -32t7.5 -39.5zM199 646q0 26 -17.5 44.5t-43.5 18.5t-43.5 -18.5t-17.5 -44.5q0 -25 18 -43t43 -18t43 18t18 43z" />
    <glyph glyph-name="cent" unicode="&#xa2;" horiz-adv-x="543" 
d="M507 239q-2 -12 -5 -24q-5 -23 -5 -43q0 -8 1 -16.5t2 -15.5l2 -16q-23 -7 -50 -12q-23 -5 -52.5 -9t-61.5 -6v-162h-67v163q-52 5 -95.5 24t-74.5 53t-48 83.5t-17 113.5q0 52 15 100t44.5 85.5t73.5 63t102 32.5v122h67v-120q43 -2 72.5 -7t48.5 -11q22 -7 35 -16
l-8 -16q-4 -7 -8 -15.5t-7 -16.5q-3 -9 -4.5 -20t-3.5 -21q-2 -11 -2 -23q-9 17 -26 31q-14 12 -38 23.5t-59 14.5v-405h1q36 0 66.5 10t53.5 23q26 15 48 33zM271 575q-28 -6 -52.5 -20t-42.5 -38t-28.5 -59.5t-10.5 -84.5q0 -73 33 -124t101 -68v394z" />
    <glyph glyph-name="sterling" unicode="&#xa3;" 
d="M641 -10q-18 2 -59 5q-35 2 -98.5 3.5t-166.5 1.5h-229v85q63 19 112 51q21 14 41 31.5t35.5 39t25 48t9.5 57.5h-34q-41 0 -69 -4.5t-46 -9.5q-21 -6 -35 -15q1 11 3 22q2 9 2.5 20t0.5 19q0 20 -3 35q-2 9 -3 16q20 -2 46 -5q23 -2 54.5 -4t72.5 -2q-4 21 -23 41
l-40 43.5t-38 52t-17 66.5q0 41 15 70.5t42 49.5t64.5 29.5t82.5 9.5q41 0 73.5 -7t55.5 -15q27 -10 48 -22q-4 -5 -8 -12q-4 -6 -8 -13.5t-7 -15.5q-3 -10 -5 -22.5t-3 -23.5q-1 -13 -1 -26q-14 21 -34 39q-17 15 -44.5 27t-66.5 12q-54 0 -77.5 -20.5t-23.5 -58.5
q0 -22 13.5 -44t32.5 -46t38.5 -51.5t31.5 -60.5h30q35 0 60.5 3t42.5 7q20 4 35 9q-1 -9 -3 -20q-3 -18 -3 -38q0 -19 3 -34q2 -9 3 -16q-15 3 -38 7q-20 3 -50 5t-72 2q0 -31 -8.5 -57t-22 -47.5t-31.5 -39t-36 -31.5q-43 -32 -98 -52h104q112 0 176.5 8.5t97.5 19.5
q39 12 50 28q-2 -21 -4 -39q-2 -16 -3 -32.5t-1 -27.5q0 -10 1 -18.5t3 -16.5q2 -9 4 -16z" />
    <glyph glyph-name="currency" unicode="&#xa4;" horiz-adv-x="611" 
d="M575 317q0 -68 -37.5 -106.5t-100.5 -38.5q-18 0 -32 1.5t-27 5.5t-26.5 10.5t-30.5 15.5q30 0 57.5 7t48.5 19.5t33 30t12 39.5q0 44 -27 68.5t-67 39.5t-87.5 26t-87.5 29t-67 48.5t-27 83.5q0 72 53 112.5t144 40.5q41 0 73.5 -7t55.5 -15q27 -10 48 -22q-4 -6 -8 -13
q-4 -6 -8 -13.5t-7 -15.5q-6 -21 -8 -40q-1 -11 -1 -20q-14 20 -34 37q-17 14 -44.5 25.5t-66.5 11.5q-54 0 -77.5 -21t-23.5 -59q0 -32 27.5 -49t68.5 -29t89 -23t89 -31t68.5 -54.5t27.5 -93.5zM513 23q0 -47 -16.5 -79.5t-45 -52.5t-66.5 -29t-82 -9q-60 0 -102.5 8.5
t-70.5 19.5q-33 12 -54 28q4 6 8 13q3 6 6.5 15t6.5 20q2 9 3.5 19.5t3.5 19.5q2 11 3 22q17 -26 44 -45q23 -17 60.5 -30.5t91.5 -13.5q49 0 77.5 20t28.5 64q0 32 -27.5 49.5t-69 29.5t-90 23t-90 31t-69 53t-27.5 88q0 47 14 77.5t35 48.5t45 25t43 7t33 -1.5t26.5 -5.5
t26 -10.5t30.5 -15.5q-77 0 -114.5 -29.5t-37.5 -80.5q0 -41 28 -64.5t69.5 -38t90.5 -26t90.5 -28.5t69.5 -45t28 -77z" />
    <glyph glyph-name="yen" unicode="&#xa5;" horiz-adv-x="320" 
d="M263 373q0 -27 -10.5 -50.5t-28 -41.5t-41.5 -28t-51 -10t-51 10t-41.5 28t-28 41.5t-10.5 50.5t10.5 51t28 41.5t41.5 28t51 10.5t51 -10.5t41.5 -28t28 -41.5t10.5 -51z" />
    <glyph glyph-name="brokenbar" unicode="&#xa6;" horiz-adv-x="689" 
d="M625 736q-9 -16 -16 -50q-6 -29 -11 -82t-5 -138v-196q0 -85 2.5 -138t6.5 -82q4 -34 9 -50q-8 2 -18 4q-8 2 -19.5 2.5t-23.5 0.5t-25.5 -3t-24.5 -7q-13 -4 -27 -10q7 18 13 47q5 25 9 64t4 95v48h-100v-143q0 -85 2 -138t4 -82q3 -34 6 -50q-8 1 -18 3q-8 2 -19.5 3
t-23.5 1t-25.5 -3t-24.5 -7q-13 -4 -27 -10q7 18 13 47q5 25 9 63.5t4 95.5v221q-40 2 -86.5 13.5t-86 38.5t-65.5 73.5t-26 119.5q0 75 25 123.5t66 76t93.5 38.5t108.5 11q15 0 47.5 -1t68 -2.5t66 -2.5t40.5 -1q12 0 25 1t24 3q13 2 26 3zM499 466q0 51 -0.5 88t-1.5 60
q-1 27 -2 45h-95v-340h99v147zM300 659q-13 0 -38.5 -5.5t-51 -24t-44.5 -52.5t-19 -91q0 -54 20 -87t46.5 -51t51.5 -23.5t35 -5.5v340z" />
    <glyph glyph-name="section" unicode="&#xa7;" horiz-adv-x="688" 
d="M103 537h18v26q0 51 17 86t46.5 57.5t68.5 32.5t82 10q69 0 110 -17.5t62.5 -46t27.5 -63.5t6 -70q-2 -6 -6 -12q-3 -5 -5.5 -11t-4.5 -12q-2 -10 -2 -17v-9q-48 0 -78 -6.5t-46.5 -18t-22.5 -27t-6 -34.5q0 -28 22.5 -44.5t57 -29t74 -24t74 -30t57 -47.5t22.5 -75
q0 -44 -19 -75t-49 -50t-67 -27.5t-74 -8.5q-60 0 -102.5 9t-70.5 20q-33 12 -54 28q4 5 8 12q8 12 14 36q2 9 3.5 19.5t3.5 19.5q2 11 2 21q17 -25 44 -44q23 -17 60.5 -30.5t91.5 -13.5q49 0 78 20t29 63q0 28 -22.5 44.5t-55.5 28.5t-72.5 24t-72.5 30.5t-55.5 47.5
t-22.5 75q0 36 14 63.5t37.5 47t54.5 29.5t65 10q0 29 -5 51.5t-18.5 37.5t-37 23t-61.5 8q-22 0 -42.5 -4t-36 -15.5t-24.5 -32t-9 -53.5v-399q0 -90 2.5 -139.5t5.5 -72.5q4 -27 8 -32q-8 -1 -18 -3q-8 -2 -18.5 -3t-21.5 -3t-23.5 -6.5t-23.5 -9.5l-27 -13q7 6 13 38
q5 27 9 84t4 160v291h-18q-16 0 -30.5 -0.5t-25.5 -1.5q-13 -1 -24 -3q1 6 3 13q3 12 3 30t-3 31q-2 8 -3 15q11 -2 24 -4q11 -2 25.5 -3t30.5 -1h18h-18z" />
    <glyph glyph-name="dieresis" unicode="&#xa8;" horiz-adv-x="388" 
d="M389 575q0 -39 -14.5 -73t-40 -59.5t-59.5 -40.5t-73 -15t-73 15t-59.5 40.5t-40 59.5t-14.5 73t14.5 73.5t40 60t59.5 40t73 14.5t73 -14.5t59.5 -40t40 -60t14.5 -73.5zM375 575q0 36 -13.5 68t-37 56t-55 38t-67.5 14t-68 -14t-56 -38t-37.5 -56t-13.5 -68t13.5 -68
t37.5 -56t56 -38t68 -14t67.5 14t55 38t37 56t13.5 68zM304 617q0 -16 -6.5 -28t-17 -19.5t-22.5 -10.5t-24 -2l63 -82h-23l-60 82h-84v-82h-18v202h113q15 0 29 -2.5t25 -9t18 -18t7 -30.5zM284 617q0 18 -7.5 27t-17.5 13t-20 4h-14h-95v-90h99q9 0 18.5 1.5t17.5 6
t13.5 13.5t5.5 25z" />
    <glyph glyph-name="copyright" unicode="&#xa9;" horiz-adv-x="843" 
d="M792 372q0 -82 -31 -154t-85 -126t-126 -85t-154 -31t-154 31t-126 85t-85 126t-31 154t31 154t85 126t126 85t154 31t154 -31t126 -85t85 -126t31 -154zM751 373q0 74 -28 138.5t-76 112.5t-112.5 75.5t-138.5 27.5q-73 0 -138 -27.5t-113 -75.5t-76 -112.5t-28 -138.5
q0 -73 28 -137.5t76 -112.5t113 -76t138 -28q74 0 138.5 28t112.5 76t76 112.5t28 137.5zM575 169q-45 -30 -82 -41t-82 -11q-58 0 -105 20t-80 54t-50.5 80t-17.5 98q0 53 17.5 99.5t50.5 81.5t80 55t105 20q42 0 81 -11t83 -43l-39 -56q-37 23 -63.5 30.5t-59.5 8.5
q-44 1 -78 -13.5t-57 -39.5t-35 -58.5t-12 -71.5t12 -71.5t35.5 -59t57 -40.5t75.5 -15q35 0 65.5 9.5t62.5 30.5l36 -56v0z" />
    <glyph glyph-name="ordfeminine" unicode="&#xaa;" horiz-adv-x="304" 
d="M304 537h-16v202l-52 -202h-15l-49 202v-202h-16v214h29l43 -180l48 180h28v-214v0zM128 737h-39v-200h-17v200h-40v14h96v-14v0z" />
    <glyph glyph-name="guillemotleft" unicode="&#xab;" horiz-adv-x="567" 
d="M405 742l-23 -27l-24 -26.5t-27 -28.5q-6 -6 -12.5 -14.5t-11.5 -16.5l-12 -18q-10 1 -19 1h-24h-13.5t-23.5 -1q-14 -1 -32 -1l33 29l26.5 23.5t20.5 19.5t16 18t15 20l16 22q8 0 15 -1q6 -1 12 -1.5t9 -0.5q4 0 13 0.5t20 1.5q12 1 26 1z" />
    <glyph glyph-name="logicalnot" unicode="&#xac;" horiz-adv-x="601" 
d="M423 676q0 -22 -15.5 -37t-37.5 -15t-37 15t-15 37t15 37t37 15t37.5 -15t15.5 -37zM249 676q0 -22 -15.5 -37t-36.5 -15q-22 0 -37 15t-15 37t15 37t37 15q21 0 36.5 -15t15.5 -37z" />
    <glyph glyph-name="uni00AD" unicode="&#xad;" horiz-adv-x="709" 
d="M311 237l-36.5 -73.5l-28.5 -58.5l-25 -53q-20 0 -39 -1.5t-33 -3.5q-17 -3 -32 -6q17 24 36 55l39.5 61.5l48.5 79.5h-177q4 6 7 12q2 5 4 12t2 15t-2 15t-4 13q-3 7 -7 13h224l27.5 47l27.5 49l3 6h-282q4 6 7 12q2 5 4 12.5t2 15.5q0 7 -2 14t-4 13q-3 7 -7 13h323
l34 68.5l29 59.5l28 58h106l-38 -51l-40.5 -58t-50.5 -77h175l-6 -14q-2 -6 -4.5 -12.5t-2.5 -13.5q0 -8 2.5 -15.5t4.5 -12.5l6 -12h-221q-6 -9 -11 -18.5t-11 -19.5l-17.5 -32.5l-16.5 -31.5h277l-6 -14l-4.5 -13t-2.5 -14q0 -8 2.5 -15.5t4.5 -12.5q3 -6 6 -11h-319z" />
    <glyph glyph-name="registered" unicode="&#xae;" horiz-adv-x="1119" 
d="M1069 -10q-18 2 -59 5q-35 2 -98.5 3.5t-166.5 1.5h-182q3 29 6 68q2 33 4 80t2 106v19h-281l-49 -72q-39 -58 -61.5 -96.5t-33.5 -61.5q-13 -27 -16 -43l-24 4q-11 2 -24 2.5t-25 0.5t-26 -0.5t-27 -2.5l-29 -4q26 30 66 83l90 119.5l133 186.5q71 101 127.5 192.5
l94.5 154.5l255 -1q103 0 166.5 1.5t98.5 3.5q41 3 59 5q-2 -7 -4 -15q-2 -7 -3 -16t-1 -20q0 -10 1 -19t3 -17q2 -9 4 -16q-19 4 -60 8q-35 3 -97.5 5t-164.5 2h-68q-1 -17 -2 -44q-1 -23 -1.5 -59.5t-0.5 -87.5v-49h24q102 0 165.5 2t98.5 5q41 4 60 7q-2 -7 -4 -15
q-2 -7 -3 -16t-1 -20q0 -10 1 -19t3 -17q2 -9 4 -16q-19 3 -60 6q-35 2 -98.5 3.5t-165.5 1.5h-24v-69q0 -45 0.5 -80.5t1.5 -59.5q1 -28 2 -50h66q103 0 166.5 2.5t98.5 4.5q41 3 59 6q-2 -7 -4 -15q-2 -7 -3 -16t-1 -20q0 -10 1 -19t3 -17q2 -9 4 -16zM576 465q1 52 0 89
t-3 60q-2 27 -4 45h-10l-212 -308h228l1 114v0z" />
    <glyph glyph-name="macron" unicode="&#xaf;" horiz-adv-x="853" 
d="M831 748q-14 -11 -32 -28l-86 -80q42 -52 58.5 -121.5t16.5 -147.5q0 -79 -19.5 -148.5t-61.5 -121t-109 -81t-162 -29.5q-88 0 -150.5 20t-104.5 57l-25 -30.5l-19 -22.5l-16 -19q-24 0 -47 -2.5l-41 -4.5l-41 -6l39 38l102 102q-32 51 -45 114t-13 134q0 78 18.5 146.5
t60.5 120t111 81t171 29.5q73 0 127 -15t94 -42q24 27 35 41q7 9 13 16h126v0zM595 619q-27 24 -66 38t-93 14q-71 0 -119.5 -22t-78 -62t-42.5 -95t-13 -121q0 -46 7 -88.5t23 -78.5l101.5 105l109.5 116l85 95.5zM681 367q0 51 -9 103.5t-35 97.5l-83 -84.5l-91 -96.5
l-114.5 -127.5l-99.5 -113.5q30 -36 75.5 -56.5t111.5 -20.5q78 0 126 28t74.5 71.5t35.5 96t9 102.5z" />
    <glyph glyph-name="degree" unicode="&#xb0;" horiz-adv-x="247" 
d="M227 299l-27 2q-11 1 -23 1.5t-20 0.5t-18 -0.5t-20 -1.5l-23 -2l-2 6q8 8 14 26q5 16 9.5 45t4.5 78v210q-25 -4 -46 -10t-35 -11q-17 -6 -30 -12q3 9 5 17q2 7 3 14.5t1 12.5v11t-1 11q-1 6 -2 11l58 11l45.5 10t32.5 9h50q-2 -10 -4 -31q-2 -18 -3.5 -49t-1.5 -82
v-122q0 -49 5.5 -79t11.5 -47q7 -20 16 -29z" />
    <glyph glyph-name="plusminus" unicode="&#xb1;" horiz-adv-x="709" 
d="M404 379v-199q-7 4 -15 7q-7 2 -16.5 4t-20.5 2q-10 0 -18 -2t-15 -4q-8 -3 -14 -7v199h-236q3 6 7 12q7 12 7 28q0 13 -7 27q-4 7 -7 13h236v191q6 -3 14 -6l15.5 -4.5t17.5 -2.5q11 0 19.5 2.5t16.5 4.5q9 3 16 6v-191h231l-6 -14l-4 -12.5t-2 -13.5q0 -8 2 -15.5
t4 -12.5l6 -12h-231zM64 7q4 6 7 12q2 5 4 12.5t2 15.5q0 7 -2 14t-4 13q-3 7 -7 13h566l-6 -14q-2 -6 -4.5 -12.5t-2.5 -13.5q0 -8 2.5 -15.5t4.5 -12.5l6 -12h-566z" />
    <glyph glyph-name="uni00B2" unicode="&#xb2;" horiz-adv-x="709" 
d="M636 267q-2 -10 -4 -29t-2 -29q0 -8 1.5 -25.5t3.5 -30.5l-46 23.5l-68.5 33.5l-78.5 36.5t-77 32.5q-38 14 -84 28.5l-89 27l-76.5 22t-45.5 12.5q2 8 3.5 21t1.5 28q0 14 -1.5 27t-3.5 21q12 3 45.5 12.5l76.5 22l89 27t84 29.5q36 14 77 32l78.5 36l68.5 33.5l46 23.5
q-2 -13 -3.5 -29.5t-1.5 -24.5q0 -10 2 -28t4 -27l-38.5 -10.5t-62 -18l-72 -21.5t-68.5 -22q-31 -10 -69 -24.5l-71 -27.5l-78 -31l79 -30q33 -13 71 -26.5l68 -24.5q31 -10 68.5 -21l72 -21l62 -17.5zM64 7q4 6 7 12q2 5 4 12.5t2 15.5q0 7 -2 14t-4 13q-3 7 -7 13h566
l-6 -14q-2 -6 -4.5 -12.5t-2.5 -13.5q0 -8 2.5 -15.5t4.5 -12.5l6 -12h-566z" />
    <glyph glyph-name="uni00B3" unicode="&#xb3;" horiz-adv-x="709" 
d="M637 369q-13 -3 -46.5 -12t-76 -21.5l-89 -27t-84.5 -29.5q-36 -13 -77 -31.5l-78.5 -36.5l-68 -34l-46.5 -24q2 13 4 30.5t2 25.5q0 10 -2 29t-4 29l38 10.5l62 17.5l72.5 21t68.5 21l68.5 24.5l70.5 26.5l78 30l-78 31l-70.5 27.5t-68.5 24.5q-31 11 -68.5 22
l-72.5 21.5l-62 18l-38 10.5q2 9 4 27t2 28q0 8 -2 24.5t-4 29.5l46.5 -23.5l68 -33.5l78.5 -36t77 -32q38 -15 84.5 -29.5l89 -27l76 -22t46.5 -12.5q-2 -8 -4 -21t-2 -27q0 -15 2 -28t4 -21zM64 7q4 6 7 12q2 5 4 12.5t2 15.5q0 7 -2 14t-4 13q-3 7 -7 13h566l-6 -14
q-2 -6 -4.5 -12.5t-2.5 -13.5q0 -8 2.5 -15.5t4.5 -12.5l6 -12h-566z" />
    <glyph glyph-name="acute" unicode="&#xb4;" 
d="M777 736q-20 -7 -45 -25q-21 -15 -49.5 -42.5t-61.5 -72.5l-170 -233h172q-2 -6 -5 -11l-4 -10.5t-2 -10.5q0 -7 2 -12.5l4 -10.5q3 -5 5 -9h-197v-64h197q-2 -6 -5 -12q-2 -5 -4 -11t-2 -11q0 -7 2 -12l4 -10q3 -5 5 -9h-195q4 -52 11 -86.5t15 -54.5q9 -24 19 -36
q-19 3 -37 7q-16 3 -32.5 5t-28.5 2q-26 0 -49 -3l-26 -4q6 12 11 34q5 19 8.5 52t5.5 84h-216l6 10q5 10 5 21t-5 23q-3 6 -6 11h216v64h-216q3 4 6 9q5 10 5 23q0 11 -5 21q-3 5 -6 11h187l-168 236q-32 45 -60.5 72t-50.5 41q-26 17 -48 24l52 -2q21 -1 42.5 -1.5
t33.5 -0.5t28.5 0.5t32.5 1.5l37 2q-4 -8 -5 -19q-1 -9 2 -21t13 -27l182 -262h2l160 228q15 21 20 39.5t6 32.5q1 16 -4 29q20 -1 38 -2q16 -1 33 -1.5t29 -0.5t30 0.5t35 1.5z" />
    <glyph glyph-name="uni00B5" unicode="&#xb5;" horiz-adv-x="401" 
d="M407 441q0 -40 -17.5 -68.5t-46.5 -46t-68 -25.5t-81 -8q-35 0 -62 4t-46.5 9.5t-32 10.5t-18.5 6q4 6 8 11l6.5 10.5t5.5 10.5t3.5 15t2.5 20q1 11 2 24q14 -19 34 -34q17 -13 42.5 -24t60.5 -11q26 0 50 5.5t42.5 16.5t29.5 28t11 41q0 42 -32 65.5t-106 23.5
q-32 0 -57 -5t-42 -11q-20 -7 -35 -16q4 21 6.5 42t3.5 48t1.5 64t0.5 92h76q72 0 116.5 2.5t69.5 5.5q29 4 42 8q-5 -10 -9 -20q-4 -8 -7 -17t-3 -15q0 -14 5 -29l5 -15q-12 7 -39 12q-23 5 -66 8.5t-114 3.5h-11q2 -7 4 -21.5t2 -35.5q0 -20 -1.5 -34t-3.5 -21q8 2 28 5
t48 3q98 0 145 -38t47 -100z" />
    <glyph glyph-name="paragraph" unicode="&#xb6;" horiz-adv-x="427" 
d="M403 292q-14 2 -42 4q-24 2 -65.5 2.5t-108.5 0.5h-152v54l41 31l44 31.5t53 34.5l63 39.5t46 33t28.5 35.5t9.5 45q0 43 -29.5 65.5t-85.5 22.5q-40 0 -64.5 -8.5t-38.5 -19.5q-16 -12 -23 -28l-6 1q0 10 -1 19q-1 8 -2.5 16t-4.5 14q-2 5 -5.5 10.5l-6.5 10.5
q-4 5 -8 11q6 1 17.5 5.5t30 9.5t46 9t66.5 4q47 0 83 -10.5t60 -28.5t36 -42t12 -51q0 -35 -9.5 -60.5t-28 -46.5t-47 -39.5l-66.5 -41.5q-32 -19 -60.5 -39.5l-41.5 -30.5h44q72 0 113 4.5t62 10.5q25 7 33 15l6 -2q-1 -12 -3 -23q-2 -9 -2.5 -18.5t-0.5 -15.5
q0 -5 1 -11.5t3 -11.5q2 -6 4 -11z" />
    <glyph glyph-name="uni2219" unicode="&#xb7;" horiz-adv-x="401" 
d="M390 423q0 -40 -21 -65.5t-53 -40t-70 -19.5t-72 -5q-35 0 -62 4t-46.5 9.5t-32 10.5t-18.5 6l8 10l6 10.5t5 10.5q3 6 4.5 15.5t2.5 19.5q1 11 2 24q14 -18 34 -33q17 -13 43 -23.5t60 -10.5q26 0 50 3.5t42.5 12.5t29.5 24.5t11 38.5q0 26 -14 41.5t-33.5 23.5
t-41.5 10t-37 2q-23 0 -44 -3l-24 -4l4 12q3 11 3 23q0 13 -3 23l-4 12l24 -4q11 -2 22.5 -3t21.5 -1q46 0 77 16t31 52q0 21 -10 34.5t-25.5 21.5t-34.5 11t-38 3q-38 0 -62.5 -9t-38.5 -20q-17 -13 -25 -30l-6 1q-1 10 -2 19q-1 8 -2.5 16t-3.5 13q-2 6 -5.5 11.5
l-6.5 10.5q-4 5 -6 10q5 1 16.5 5.5t31 10t46.5 9.5t64 4q32 0 65 -5t59.5 -18t43 -36t16.5 -58q0 -24 -9.5 -41.5t-23.5 -28.5t-29.5 -18t-27.5 -10q14 -2 32.5 -8t35.5 -18t29 -32t12 -50z" />
    <glyph glyph-name="uni2219" unicode="&#x2219;" horiz-adv-x="401" 
d="M390 423q0 -40 -21 -65.5t-53 -40t-70 -19.5t-72 -5q-35 0 -62 4t-46.5 9.5t-32 10.5t-18.5 6l8 10l6 10.5t5 10.5q3 6 4.5 15.5t2.5 19.5q1 11 2 24q14 -18 34 -33q17 -13 43 -23.5t60 -10.5q26 0 50 3.5t42.5 12.5t29.5 24.5t11 38.5q0 26 -14 41.5t-33.5 23.5
t-41.5 10t-37 2q-23 0 -44 -3l-24 -4l4 12q3 11 3 23q0 13 -3 23l-4 12l24 -4q11 -2 22.5 -3t21.5 -1q46 0 77 16t31 52q0 21 -10 34.5t-25.5 21.5t-34.5 11t-38 3q-38 0 -62.5 -9t-38.5 -20q-17 -13 -25 -30l-6 1q-1 10 -2 19q-1 8 -2.5 16t-3.5 13q-2 6 -5.5 11.5
l-6.5 10.5q-4 5 -6 10q5 1 16.5 5.5t31 10t46.5 9.5t64 4q32 0 65 -5t59.5 -18t43 -36t16.5 -58q0 -24 -9.5 -41.5t-23.5 -28.5t-29.5 -18t-27.5 -10q14 -2 32.5 -8t35.5 -18t29 -32t12 -50z" />
    <glyph glyph-name="cedilla" unicode="&#xb8;" horiz-adv-x="427" 
d="M404 -7q-14 2 -42 4q-24 2 -66 3t-109 1h-152v54l42 31l44.5 31.5t52.5 34.5l63 39.5t46 33t28.5 35.5t9.5 45q0 43 -30 65.5t-86 22.5q-40 0 -64 -8.5t-38 -19.5q-16 -12 -23 -28l-7 1q0 10 -1 19q-1 8 -2.5 16t-4.5 14q-2 5 -5 10.5l-6 10.5q-4 5 -8 11q6 1 17.5 5.5
t30 9.5t46 9t65.5 4q47 0 83 -10.5t60 -28.5t36.5 -42t12.5 -51q0 -35 -9.5 -60.5t-28.5 -46.5t-47.5 -39.5l-66.5 -41.5q-32 -19 -60 -39.5l-41 -30.5h43q72 0 113.5 4.5t62.5 10.5q25 7 32 15l6 -2l-2 -23l-2 -18.5t-1 -15.5q0 -5 1 -11.5t3 -11.5z" />
    <glyph glyph-name="uni00B9" unicode="&#xb9;" horiz-adv-x="401" 
d="M481 681q-21 -16 -40 -40t-35.5 -51t-30 -54l-24.5 -49q-16 -35 -26.5 -68t-15.5 -59q-6 -31 -9 -59l-25 2q-11 1 -21 1.5t-16 0.5q-5 0 -15.5 -0.5t-20.5 -1.5q-11 -1 -25 -2l41 70l40 70.5t43 79.5l21 38l26.5 49l25.5 46l17 30h-119q-51 0 -84 -4.5t-53 -10.5
q-23 -7 -34 -15l4 23q2 10 2.5 20t0.5 15q0 13 -3 23l-4 12q13 -1 41 -3q24 -2 66 -3t109 -1h164l-2 -10l-2 -10.5t-1 -10.5t1 -10t2 -9t2 -9z" />
    <glyph glyph-name="ordmasculine" unicode="&#xba;" horiz-adv-x="709" 
d="M566 252q-7 -3 -15 -7q-15 -8 -29 -24q-6 -8 -10 -15.5t-6 -14.5q-3 -8 -4 -15l-149 135l-148 -135q-1 7 -4 15q-2 7 -6 14.5t-10 15.5q-7 8 -14.5 14t-14.5 10q-8 4 -15 7l152 113l-151 114q7 3 14 7l13 8.5t13 12.5q7 8 11 16t7 15q4 8 6 16l147 -133l148 133
q2 -8 6 -16q3 -7 7.5 -15t10.5 -16t13 -12.5l13 -8.5q7 -4 14 -7l-151 -113l152 -114v0z" />
    <glyph glyph-name="guillemotright" unicode="&#xbb;" horiz-adv-x="399" 
d="M397 418q-11 0 -22 -1q-9 -1 -19 -1.5t-17 -2.5q-6 -2 -12 -3.5t-11 -3.5q-6 -2 -11 -4q-3 6 -7 13q-5 10 -10 32q-48 -44 -125 -44q-38 0 -64 8t-41.5 21.5t-22.5 31t-7 36.5q0 36 18 57.5t44.5 33t58 15.5t58.5 4q31 0 49.5 -1t25.5 -2v28q0 58 -92 58
q-38 0 -60.5 -18.5t-22.5 -39.5h-6q-3 5 -7 10l-8.5 10.5t-10.5 11.5q-3 4 -6 6.5t-6 4.5q-4 3 -7 4q5 17 22 29q14 11 41 19.5t74 8.5q83 0 118.5 -28.5t35.5 -88.5v-102q0 -26 7.5 -45.5t17.5 -32.5q11 -15 25 -24zM35 300v56h308v-56h-308zM281 567q-6 1 -21.5 1.5
t-40.5 0.5q-19 0 -40 -2.5t-38.5 -9t-28.5 -19t-11 -33.5q0 -16 8.5 -26.5t21.5 -16.5t28.5 -8.5t29.5 -2.5q12 0 28 4.5t30 14.5t24 25.5t10 37.5v34z" />
    <glyph glyph-name="onequarter" unicode="&#xbc;" horiz-adv-x="393" 
d="M371 567q0 -35 -11.5 -65t-33.5 -52t-55 -34.5t-75 -12.5q-50 0 -84.5 11.5t-56 32.5t-31 51.5t-9.5 68.5q0 33 9.5 64t30.5 54.5t55.5 37.5t85.5 14q53 0 87 -14t53.5 -38t27 -54.5t7.5 -63.5zM46 299v58h292v-58h-292zM302 565q0 19 -3 41t-13.5 40.5t-31.5 30.5
t-57 12t-58.5 -11t-34.5 -28.5t-16.5 -39.5t-4.5 -45q0 -57 27 -85.5t87 -28.5q28 0 48 9t32.5 24.5t18.5 36.5t6 44z" />
    <glyph glyph-name="onehalf" unicode="&#xbd;" horiz-adv-x="397" 
d="M395 125q0 -40 -21 -65.5t-52.5 -40t-69.5 -19.5t-73 -5t-62 4t-46.5 9.5t-32 10.5t-18.5 6l8 10l6 10.5t5 10.5q6 13 8 35q1 11 1 24q15 -18 35 -33q17 -13 42.5 -23.5t59.5 -10.5q26 0 50 3.5t42.5 12.5t29.5 24.5t11 38.5q0 26 -14 41.5t-33.5 23.5t-41 10t-36.5 2
q-11 0 -22.5 -0.5t-22.5 -2.5l-24 -4l4 12q3 11 3 23q0 13 -3 23l-4 12l24 -4q11 -2 22.5 -3t22.5 -1q45 0 76.5 16t31.5 52q0 21 -10 34.5t-25.5 21.5t-34.5 11t-38 3q-38 0 -62.5 -9t-38.5 -20q-17 -13 -25 -30l-7 1q0 10 -1 19q-1 8 -2.5 16t-3.5 13q-2 6 -5.5 11.5
l-6.5 10.5q-4 5 -7 10q6 1 17.5 5.5t30.5 10t46.5 9.5t63.5 4q32 0 65 -5t59.5 -18t43.5 -36t17 -58q0 -24 -9.5 -41.5t-24 -28.5t-30 -18t-27.5 -10q14 -2 32.5 -8t35.5 -18t29 -32t12 -50z" />
    <glyph glyph-name="threequarters" unicode="&#xbe;" horiz-adv-x="949" 
d="M919 381q0 -28 -13 -49.5t-33.5 -36.5t-45.5 -22.5t-50 -7.5h-260q0 -46 17 -81.5t47.5 -59t73 -35.5t94.5 -12q35 0 63.5 6t49.5 14q25 9 45 20q-2 -8 -5 -18q-5 -18 -5 -36q0 -8 0.5 -15.5t1.5 -13.5q1 -7 2 -12q-23 -7 -52 -13q-25 -5 -57.5 -9.5t-70.5 -4.5
q-67 0 -132 19.5t-110 64.5q-21 -19 -43 -34.5t-49 -27t-63 -18t-86 -6.5q-57 0 -95.5 13t-62 35.5t-33.5 51.5t-10 60q0 60 26.5 95.5t67 55t88 25.5t88.5 6q30 0 52.5 -0.5t37.5 -1.5q18 -1 30 -2v51q0 104 -147 104q-30 0 -55 -9t-42 -24t-26.5 -33t-9.5 -36q-4 8 -10 18
q-5 8 -12 18t-17 21q-5 7 -10.5 11l-9.5 7q-4 4 -9 6q8 26 33 45q21 17 62 30.5t111 13.5q149 0 201 -73q33 35 82 54.5t117 19.5q63 0 107.5 -15.5t72.5 -40.5t41 -56t13 -62zM813 381q0 44 -35 75t-97 31q-43 0 -74.5 -16t-51 -40t-29 -52t-9.5 -52h233q24 0 43.5 15.5
t19.5 38.5zM426 273q-11 1 -26 2q-13 1 -31.5 1.5t-43.5 0.5q-31 0 -64 -4.5t-60 -16.5t-44.5 -34.5t-17.5 -58.5q0 -30 13.5 -49t34 -30.5t45 -15.5t46.5 -4q20 0 45.5 8.5t48 26t38.5 45t16 65.5v64z" />
    <glyph glyph-name="questiondown" unicode="&#xbf;" horiz-adv-x="605" 
d="M519 467q31 -40 42.5 -91.5t11.5 -107.5q0 -58 -17 -108t-50.5 -87t-82.5 -58.5t-114 -21.5q-57 0 -101 11.5t-76 32.5l-24 -30q-5 -6 -9 -10q-22 0 -42.5 -2t-37.5 -4q-19 -3 -36 -6l27 27l31.5 31l41.5 41q-25 35 -36 80.5t-11 102.5q0 56 14 107.5t46 91.5t84.5 63.5
t128.5 23.5q57 0 99 -12.5t72 -34.5l24 27l9 11q2 0 6 -1t10 -1.5t17 -0.5t21 1t18 3q10 2 18 3zM425 442q-19 18 -46.5 28.5t-67.5 10.5q-57 0 -92 -19t-54.5 -49.5t-26.5 -69.5t-7 -79q0 -69 20 -112l104 107.5l116 123.5q11 11 25 26.5zM477 265q0 32 -3.5 67.5
t-18.5 67.5l-48 -51l-119.5 -133.5l-99.5 -113.5q44 -36 123 -36q44 0 75.5 16t51.5 43t29.5 63.5t9.5 76.5z" />
    <glyph glyph-name="Agrave" unicode="&#xc0;" horiz-adv-x="563" 
d="M423 501q0 -26 -21 -44t-53 -18q-34 0 -58 16.5t-24 45.5q0 26 24 42t56 16q35 0 55.5 -16t20.5 -42zM534 -126q-23 -18 -54 -32q-26 -12 -64.5 -22t-86.5 -10q-66 0 -115 15t-81 39.5t-48 56.5t-16 66q0 52 17 85.5t42.5 57.5t55 43.5t55 43.5t42.5 58t17 86q7 -1 15 -3
q7 -2 16 -3t20 -1q9 0 17.5 1t15.5 3q8 2 16 3q0 -61 -16.5 -100.5t-41 -66.5t-53 -46t-53 -38t-41 -42.5t-16.5 -60.5q0 -25 8 -46.5t26 -37.5t46.5 -25t68.5 -9q51 0 83.5 18t52.5 40q23 26 35 59q0 -17 1 -33q1 -14 3.5 -28t6.5 -24q4 -9 8.5 -17.5l8.5 -15.5q4 -8 9 -14
z" />
    <glyph glyph-name="Aacute" unicode="&#xc1;" horiz-adv-x="271" 
d="M211 501q0 -26 -21 -44t-53 -18q-34 0 -58 16.5t-24 45.5q0 26 24 42t56 16q35 0 55.5 -16t20.5 -42zM211 -180q-12 1 -25 3q-11 2 -24 3t-25 1t-25.5 -1t-24.5 -3q-13 -2 -26 -3q8 16 13 50q5 29 8.5 82t3.5 138v271q7 -1 15 -3q7 -2 16 -3t20 -1q9 0 17.5 1t15.5 3
q8 2 16 3v-271q0 -85 4 -138t9 -82q5 -34 12 -50z" />
    <glyph glyph-name="Acircumflex" unicode="&#xc2;" horiz-adv-x="415" 
d="M362 179q-3 -4 -6 -10l-4.5 -11.5t-2.5 -14.5q0 -5 1 -11.5t3 -11.5q2 -6 3 -11l-26 2q-11 1 -24.5 2t-24.5 1q0 -37 2 -58.5t5 -32.5q4 -13 7 -17l-2 -6q-8 1 -17 2q-8 1 -16 1.5t-16 0.5t-16.5 -0.5t-15.5 -1.5l-16 -2l-3 6q4 5 8 18q3 11 5.5 32.5t2.5 59.5h-69h-19
q-38 0 -69 -0.5t-54 -2.5q-26 -2 -48 -4q1 5 3 11q2 5 3 11.5t1 11.5q0 14 -3 26q-2 7 -3 13q17 13 38 31q18 16 43.5 41t56.5 59l45.5 54t29.5 39q13 18 21 33h104q-2 -10 -4 -31q-2 -18 -3 -49t-1 -82v-106q18 0 32.5 2.5t24.5 4.5q11 3 20 6l4 -5v0zM209 375l-15.5 -19
l-21 -26l-23.5 -28.5t-23 -26.5l-27 -29l-29 -30.5l-26 -26.5l-18 -18q39 -3 95 -3h19q17 0 39 0.5t30 0.5v206z" />
    <glyph glyph-name="Atilde" unicode="&#xc3;" horiz-adv-x="304" 
d="M288 537v202l-52 -202h-15l-49 202v-202h-16v214h29l43 -180l48 180h28v-214h-16zM133 596q0 -28 -15 -45t-45 -17q-11 0 -22.5 3t-19.5 8v1v13h2q6 -4 18.5 -7.5t21.5 -3.5q26 0 35 13.5t9 33.5q0 19 -13.5 28.5t-29.5 18t-29.5 21t-13.5 37.5q0 24 15.5 38.5t38.5 14.5
q10 0 18.5 -2t19.5 -7v-1v-14l-2 1q-18 9 -36 9q-19 0 -28.5 -11t-9.5 -28q0 -19 13.5 -28.5t29.5 -18t29.5 -21t13.5 -36.5z" />
    <glyph glyph-name="Adieresis" unicode="&#xc4;" 
d="M696 714q-4 -5 -8 -12q-4 -6 -8 -13.5t-7 -15.5q-3 -9 -4.5 -17.5t-3.5 -15.5q-2 -8 -2 -15q-8 15 -22 26q-12 10 -30.5 18t-46.5 8q-22 0 -42.5 -3t-37 -13t-28.5 -28.5t-17 -49.5l-8 -49h29q40 0 70 2t50 4l41 5q-1 -7 -3 -15q-3 -13 -3 -31t3 -30q2 -7 3 -13
q-20 3 -45 5q-21 2 -50.5 3t-65.5 1h-38l-27 -228t-26 -171.5t-32 -121.5t-46 -79t-68.5 -42.5t-98.5 -12.5q-41 0 -66.5 7.5t-39.5 18.5t-18.5 23t-4.5 22q0 11 4.5 21t10.5 17q7 8 15 14q8 -15 22 -26q12 -10 30.5 -18t46.5 -8q32 0 55.5 8t41.5 31t32.5 63.5t27.5 105.5
t26.5 157.5l30.5 218.5h-13q-21 0 -38 -1t-28 -3q-13 -2 -24 -5q1 6 3 13q3 12 3 30t-3 31q-2 8 -3 15l30 -5q14 -2 31.5 -4t35.5 -2h15l7 49q9 60 32.5 93t54.5 49.5t63.5 20t59.5 3.5q30 0 54.5 -5t41.5 -12q20 -8 36 -18z" />
    <glyph glyph-name="Aring" unicode="&#xc5;" horiz-adv-x="709" 
d="M616 431q-40 -18 -76 -27t-76 -9q-42 0 -72 8.5t-56 19t-52 19t-61 8.5q-32 0 -69 -8t-78 -25q4 8 7 16l4 14.5t2 13.5t-2 13t-4 13q-3 7 -7 13q80 31 151 31q41 0 68 -8.5t52 -19t52.5 -19.5t68.5 -9q36 0 71 9t77 27l-6 -14q-2 -6 -4.5 -12.5t-2.5 -12.5t2.5 -13
l4.5 -13q3 -7 6 -15zM616 240q-40 -17 -76 -26.5t-76 -9.5q-42 0 -72 8.5t-56 19t-52 19t-61 8.5q-32 0 -69 -8t-78 -25q4 8 7 16l4 14.5t2 14.5q0 6 -2 12.5l-4 12.5q-3 7 -7 13q80 31 151 31q41 0 68 -8.5t52 -19t52.5 -19t68.5 -8.5q36 0 71 8.5t77 27.5l-6 -14l-4.5 -13
t-2.5 -13t2.5 -13l4.5 -13q3 -7 6 -15z" />
    <glyph glyph-name="AE" unicode="&#xc6;" horiz-adv-x="783" 
d="M732 0h-732v731h732v-731v0z" />
    <glyph glyph-name="Ccedilla" unicode="&#xc7;" horiz-adv-x="497" 
d="M443 165l-38 34l-32 28t-27 22q-10 8 -24 16l-27 15q-15 8 -30 14l2 18q1 8 1.5 15.5t0.5 12.5t-0.5 12.5t-1.5 15.5q-1 9 -2 19l30 14q13 6 27 14t24 16q11 8 27 22.5l32 28.5q18 17 38 34q-1 -17 -2 -31q-1 -12 -1.5 -23t-0.5 -14v-9.5t1 -12.5q1 -7 1 -16
q-12 -6 -24 -13l-22 -12.5t-20 -13.5q-5 -4 -12 -9t-15 -10l-18 -12q9 -6 18 -11l15 -9.5t12 -8.5q8 -6 19 -12.5t22 -11.5l25 -12q0 -10 -1 -18q-1 -7 -1 -13.5v-10.5q0 -3 0.5 -14t1.5 -23q1 -14 2 -31zM214 165l-38 34l-32 28t-27 22q-10 8 -24 16l-27 15q-15 8 -30 14
l2 18q1 8 1 15.5v12.5v12.5t-1 15.5q-1 9 -2 19l30 14q13 6 26.5 14t24.5 16t27 22l32 28l38 35q-1 -17 -2 -31q-1 -12 -1.5 -23t-0.5 -14t0.5 -9.5t0.5 -12.5v-16q-13 -6 -24 -13l-21 -12.5t-20 -13.5q-5 -4 -12 -9t-15 -10l-18 -12q9 -6 18 -11l15 -9.5t11 -8.5
q9 -6 20 -12.5t22 -11.5l24 -12v-18q0 -7 -0.5 -13.5t-0.5 -10.5q0 -3 0.5 -14t1.5 -23q1 -14 2 -31z" />
    <glyph glyph-name="Egrave" unicode="&#xc8;" horiz-adv-x="497" 
d="M461 294q-15 -6 -30 -14q-13 -7 -26 -15t-24 -16l-26.5 -22l-32.5 -28l-39 -34q1 17 2 31q1 12 1.5 23t0.5 14v24q0 8 -1 18l24 12q11 5 22.5 11.5t19.5 12.5q5 4 12 8.5l15 9.5q9 5 18 11l-18 12l-15.5 10t-12.5 9q-8 7 -19 13.5l-22 12.5q-12 7 -24 13q1 9 1 16v22
q0 3 -0.5 14t-1.5 23q-1 14 -2 31q21 -17 39 -34l32 -28.5t27 -22.5t24 -16t26 -14l30 -14q0 -10 -1 -19q-1 -8 -1.5 -15.5t-0.5 -12.5t0.5 -12.5t1.5 -15.5q1 -9 1 -18zM232 294q-15 -6 -30 -14l-26.5 -15t-24.5 -16l-26.5 -22l-32.5 -28l-38 -34q1 17 2 31q1 12 1.5 23
t0.5 14v24q0 8 -1 18l24 12q11 5 22.5 11.5t19.5 12.5q10 9 26 18q9 5 18 11l-18 12q-8 5 -15 10t-12 9q-8 7 -19.5 13.5l-21.5 12.5q-11 7 -24 13q1 9 1 16v22q0 3 -0.5 14t-1.5 23q-1 14 -2 31l38 -35l32.5 -28l26.5 -22q11 -8 24.5 -16t26.5 -14l30 -14q0 -10 -1 -19
q-1 -8 -1.5 -15.5t-0.5 -12.5t0.5 -12.5t1.5 -15.5q1 -9 1 -18z" />
    <glyph glyph-name="Eacute" unicode="&#xc9;" horiz-adv-x="656" 
d="M625 55q0 -26 -24 -42t-56 -16q-35 0 -55.5 16t-20.5 42t21 44t53 18q34 0 58 -16.5t24 -45.5zM406 55q0 -26 -23.5 -42t-55.5 -16q-36 0 -56.5 16t-20.5 42t21.5 44t52.5 18q34 0 58 -16.5t24 -45.5zM189 55q0 -26 -24 -42t-56 -16q-35 0 -55.5 16t-20.5 42t21 44t53 18
q34 0 58 -16.5t24 -45.5z" />
    <glyph glyph-name="Edieresis" unicode="&#xcb;" horiz-adv-x="717" 
d="M462 770q-18 0 -32 1q-12 1 -23 1h-14h-24q-9 0 -19 -1l-12 18q-5 8 -11 16.5t-13 14.5l-26 28.5l-24 26.5l-23 27q14 0 25 -1q10 -1 19.5 -1.5t13.5 -0.5t10 0.5t12 1.5q7 1 14 1q8 -11 17 -22l15.5 -20t15.5 -18t21 -19.5l26 -23.5zM721 0l-29 4q-13 2 -27 2.5t-26 0.5
q-26 0 -49 -3l-25 -4q-1 19 -6 47q-5 24 -15 62t-29 92l-25 72h-273l-28 -72q-22 -57 -32.5 -95.5t-14.5 -61.5q-4 -27 -3 -44l-25 4q-11 2 -24 2.5t-25 0.5q-26 0 -44 -3l-21 -4q16 30 41 83l53 119.5l77 186.5q40 101 69 192.5l49 154.5q11 -1 22 -3q10 -2 21.5 -3
t23.5 -1t25.5 1t24.5 3q13 2 25 3l43 -124l40 -113l39 -110q42 -112 73 -186t52 -119q25 -53 43 -84zM356 648h-2l-109 -297h218z" />
    <glyph glyph-name="Igrave" unicode="&#xcc;" horiz-adv-x="723" 
d="M550 875q-19 -44 -43 -67t-72 -23q-24 0 -41 9.5t-32 21.5t-30 21.5t-35 9.5q-23 0 -39.5 -9t-27.5 -20q-13 -13 -22 -29q1 6 1 13q0 14 -6 24q-2 3 -4.5 4.5t-4.5 3.5q-3 2 -5 3q33 77 115 77q27 0 44 -9t31 -20.5t28 -20.5t35 -9q24 0 40 8.5t25 19.5q11 12 16 27
q0 -7 1 -13q2 -12 9 -18q3 -1 11 -3q4 -1 6 -1zM721 0l-29 4q-13 2 -27 2.5t-26 0.5q-26 0 -49 -3l-25 -4q-1 19 -6 47q-5 24 -15 62t-29 92l-25 72h-273l-28 -72q-22 -57 -32.5 -95.5t-14.5 -61.5q-4 -27 -3 -44l-25 4q-11 2 -24 2.5t-25 0.5q-26 0 -44 -3l-21 -4
q16 30 41 83l53 119.5l77 186.5q40 101 69 192.5l49 154.5q11 -1 22 -3q10 -2 21.5 -3t23.5 -1t25.5 1t24.5 3q13 2 25 3l43 -124l40 -113l39 -110q42 -112 73 -186t52 -119q25 -53 43 -84zM356 648h-2l-109 -297h218z" />
    <glyph glyph-name="Iacute" unicode="&#xcd;" horiz-adv-x="853" 
d="M626 875q-19 -44 -43 -67t-72 -23q-24 0 -41 9.5t-32 21.5t-30 21.5t-35 9.5q-23 0 -39.5 -9t-27.5 -20q-13 -13 -22 -29q1 6 1 13q0 14 -6 24q-2 3 -4.5 4.5t-4.5 3.5q-3 2 -5 3q33 77 115 77q27 0 44 -9t31 -20.5t28 -20.5t35 -9q24 0 40 8.5t25 19.5q11 12 16 27
q0 -7 1 -13q2 -12 9 -18q3 -1 11 -3q4 -1 6 -1zM788 371q0 -79 -19.5 -148.5t-61.5 -121t-109 -81t-162 -29.5q-107 0 -176.5 30t-110.5 82t-57.5 121t-16.5 147t18.5 146.5t60.5 120t111 81t171 29.5q105 0 173 -30.5t107.5 -82.5t55.5 -120.5t16 -143.5zM681 367
q0 51 -9 105t-35.5 98.5t-74.5 72.5t-126 28q-71 0 -119.5 -22t-78 -62t-42.5 -95t-13 -121q0 -61 13 -116t42.5 -96.5t78 -65.5t119.5 -24q78 0 126 28t74.5 71.5t35.5 96t9 102.5z" />
    <glyph glyph-name="Icircumflex" unicode="&#xce;" horiz-adv-x="1159" 
d="M1130 -10q-18 2 -59 5q-35 2 -98.5 3.5t-166.5 1.5h-182q1 5 2 12l3 34q-38 -25 -85.5 -40t-107.5 -15q-107 0 -176.5 30t-110.5 82t-57.5 121t-16.5 147t18.5 146.5t60.5 120t111 81t171 29.5q60 0 108 -14t85 -37q0 7 -1 13.5l-2 12.5q-1 7 -2 13l182 -1
q103 -1 166.5 0.5t98.5 3.5q41 3 59 6q-2 -7 -4 -15q-2 -7 -3 -16t-1 -20q0 -10 1 -19t3 -17q2 -9 4 -16q-19 4 -60 8q-35 3 -98 5t-165 2h-67q-1 -17 -2 -44q-1 -23 -1.5 -59.5t-0.5 -87.5v-49h24q102 0 165.5 2t98.5 5q41 4 60 7q-2 -7 -4 -15q-2 -7 -3 -16t-1 -20
q0 -10 1 -19t3 -17q2 -9 4 -16q-19 3 -60 6q-35 2 -98.5 3.5t-165.5 1.5h-24v-69q0 -45 0.5 -80.5t1.5 -59.5q1 -28 2 -50h66q103 0 166 2.5t98 4.5q41 3 60 6q-2 -7 -4 -15q-2 -7 -3 -16t-1 -20q0 -10 1 -19t3 -17q2 -9 4 -16zM636 466v81q0 16 -1 26q-27 43 -74.5 70.5
t-124.5 27.5q-71 0 -119.5 -22t-78 -62t-42.5 -95t-13 -121q0 -61 13 -116t42.5 -96.5t78 -65.5t119.5 -24q77 0 124.5 27t74.5 70q1 15 1 32v72v196z" />
    <glyph glyph-name="Idieresis" unicode="&#xcf;" horiz-adv-x="1005" 
d="M975 381q0 -28 -13 -49.5t-33.5 -36.5t-45.5 -22.5t-50 -7.5h-260q0 -46 17 -81.5t47.5 -59t73 -35.5t94.5 -12q35 0 63.5 6t49.5 14q25 9 45 20q-2 -8 -5 -18q-5 -18 -5 -36q0 -8 0.5 -15.5t1.5 -13.5q1 -7 2 -12q-23 -7 -52 -13q-25 -5 -57.5 -9.5t-70.5 -4.5
q-36 0 -71.5 5.5t-68.5 17.5t-62.5 30.5t-52.5 44.5q-33 -46 -86 -73t-127 -27q-76 0 -128 19t-84 55t-46.5 86.5t-14.5 113.5q0 56 14 107.5t46 91.5t84.5 63.5t128.5 23.5q82 0 134 -25t81 -67q33 43 86.5 68.5t130.5 25.5q63 0 107.5 -15.5t72.5 -40.5t41 -56t13 -62z
M869 381q0 44 -35 75t-97 31q-43 0 -74.5 -16t-51 -40t-29 -52t-9.5 -52h233q24 0 43.5 15.5t19.5 38.5zM477 265q0 33 -4.5 71t-21 70t-49.5 53.5t-91 21.5q-57 0 -92 -19t-54.5 -49.5t-26.5 -69.5t-7 -79q0 -100 42.5 -149t137.5 -49q44 0 75.5 16t51.5 43t29.5 63.5
t9.5 76.5z" />
    <glyph glyph-name="Eth" unicode="&#xd0;" horiz-adv-x="709" 
d="M64 329q4 6 7 12q2 5 4 12t2 15t-2 15t-4 13q-3 7 -7 13h566l-6 -14l-4.5 -13t-2.5 -14q0 -8 2.5 -15.5t4.5 -12.5q3 -6 6 -11h-566z" />
    <glyph glyph-name="Ntilde" unicode="&#xd1;" horiz-adv-x="1096" 
d="M1060 243q-7 2 -25 4q-15 2 -41 2.5t-69 0.5h-750q-42 0 -68.5 -0.5t-41.5 -2.5q-18 -2 -25 -4q1 5 2 11q1 5 1 12v14v14.5t-1 11.5l-2 12q7 -1 25 -3q15 -2 41.5 -3t68.5 -1h750q43 0 69 1t41 3q18 2 25 3q0 -6 -1 -12q-1 -5 -1.5 -11.5t-0.5 -14.5q0 -7 0.5 -14
t1.5 -12q1 -6 1 -11z" />
    <glyph glyph-name="Ograve" unicode="&#xd2;" horiz-adv-x="381" 
d="M374 738q-16 -51 -25.5 -119.5t-9.5 -138.5q-9 1 -20 2q-9 1 -21 1h-26q-31 0 -53 -5q-11 -3 -21 -5l42 103q9 21 17.5 43.5l16.5 44l15 40.5t12 34h73v0zM169 738q-17 -51 -26.5 -119.5t-9.5 -138.5q-9 1 -20 2q-9 1 -20.5 1h-25.5q-31 0 -53 -5q-11 -3 -21 -5l42 103
q9 21 17.5 43.5l16.5 44l15 40.5t12 34h73v0z" />
    <glyph glyph-name="Oacute" unicode="&#xd3;" horiz-adv-x="381" 
d="M387 739l-42 -103l-34.5 -87t-27.5 -74h-72q16 51 25.5 119t9.5 139q9 -1 20 -2q9 -1 21 -1.5t26 -0.5q31 0 53 5q11 3 21 5zM181 739l-42 -103l-34 -87t-27 -74h-73q17 51 26.5 119t9.5 139q9 -1 20 -2q9 -1 21 -1.5t25 -0.5q31 0 53 5q11 3 21 5z" />
    <glyph glyph-name="Ocircumflex" unicode="&#xd4;" horiz-adv-x="229" 
d="M182 738q-16 -51 -25.5 -119.5t-9.5 -138.5q-9 1 -20 2q-9 1 -21 1h-26q-31 0 -53 -5q-11 -3 -21 -5l42 103q9 21 17.5 43.5l16.5 44l15 40.5t12 34h73v0z" />
    <glyph glyph-name="Otilde" unicode="&#xd5;" horiz-adv-x="229" 
d="M205 739l-42 -103l-34.5 -87t-27.5 -74h-72q16 51 25.5 119t9.5 139q9 -1 20 -2q9 -1 21 -1.5t26 -0.5q31 0 53 5q11 3 21 5z" />
    <glyph glyph-name="Odieresis" unicode="&#xd6;" horiz-adv-x="709" 
d="M431 553q0 -26 -24 -42.5t-56 -16.5q-35 0 -55.5 16.5t-20.5 42.5t21 43.5t53 17.5q34 0 58 -16.5t24 -44.5zM64 329q4 6 7 12q2 5 4 12t2 15t-2 15t-4 13q-3 7 -7 13h566l-6 -14l-4.5 -13t-2.5 -14q0 -8 2.5 -15.5t4.5 -12.5q3 -6 6 -11h-566zM431 178q0 -26 -24 -42.5
t-56 -16.5q-35 0 -55.5 16.5t-20.5 42.5t21 43.5t53 17.5q34 0 58 -16.5t24 -44.5z" />
    <glyph glyph-name="multiply" unicode="&#xd7;" horiz-adv-x="464" 
d="M435 125q0 -32 -15.5 -57t-42.5 -42t-63.5 -26t-77.5 -9q-36 0 -71.5 6.5t-64 21t-46 38.5t-17.5 59q0 28 12.5 47.5t30 31.5t36 18.5t29.5 9.5l-26 13t-31 21t-25.5 31.5t-10.5 42.5q0 35 18.5 58t46.5 37.5t60 20.5t59 6q28 0 60.5 -5t60 -18.5t46 -37t18.5 -61.5
q0 -21 -10 -36.5t-24.5 -26.5t-29.5 -17.5t-25 -9.5q15 -4 33 -13.5t33.5 -23.5t26 -33.5t10.5 -45.5zM347 333q0 30 -27.5 50.5t-84.5 20.5q-52 0 -78 -18t-26 -50q0 -22 17 -36t38.5 -22.5t42 -11.5t26.5 -3q4 0 19 3t31 10.5t29 21t13 35.5zM351 113q0 28 -20 45
t-44.5 26t-46.5 12t-27 3q-4 0 -20 -4.5t-33 -13.5t-30.5 -24t-13.5 -36q0 -36 30.5 -58t90.5 -22q57 0 85.5 20t28.5 52z" />
    <glyph glyph-name="Oslash" unicode="&#xd8;" horiz-adv-x="564" 
d="M440 676q0 -22 -15.5 -37t-37.5 -15q-21 0 -36.5 15t-15.5 37t15.5 37t36.5 15q22 0 37.5 -15t15.5 -37zM267 676q0 -22 -15.5 -37t-37.5 -15t-37 15t-15 37t15 37t37 15t37.5 -15t15.5 -37zM588 547q-16 -17 -35 -50q-17 -28 -39 -74.5t-50 -118.5l-144 -373
q-12 -32 -17.5 -55.5t-7.5 -39.5q-2 -18 0 -31q-12 1 -24 3q-21 3 -45 3q-11 0 -26 -2l-29 -4q-16 -3 -33 -5q19 19 38 47q17 24 36.5 61t38.5 91l-31 1q-10 36 -21 70l-21.5 62.5t-22.5 60.5l-46 111q-31 76 -53.5 123l-36.5 74q-17 32 -28 46q16 -1 32 -3q14 -2 28.5 -2.5
t25.5 -0.5t22.5 0.5t22.5 2.5q12 2 23 3q-3 -9 -2 -26q1 -14 5 -36.5t16 -56.5l125 -349h2l127 349q12 34 17 56.5t7 36.5q2 17 -1 26q12 -1 24 -3q21 -3 44 -3q11 0 24.5 0.5t25.5 2.5q14 2 29 3z" />
    <glyph glyph-name="Ugrave" unicode="&#xd9;" horiz-adv-x="701" 
d="M505 823q0 -22 -15.5 -37t-36.5 -15q-22 0 -37 15t-15 37q0 21 15 36.5t37 15.5q21 0 36.5 -15.5t15.5 -36.5zM332 823q0 -22 -15.5 -37t-37.5 -15q-21 0 -36.5 15t-15.5 37q0 21 15.5 36.5t36.5 15.5q22 0 37.5 -15.5t15.5 -36.5zM763 736q-20 -7 -45 -25
q-21 -15 -49 -42.5t-61 -72.5l-195 -267v-84q0 -75 7 -123.5t16 -77.5q11 -33 23 -51q-18 3 -36 7q-15 3 -32 5t-29 2q-26 0 -49 -3l-26 -4q8 15 13 47q5 27 8.5 75t3.5 123v77l-197 277q-32 45 -61 72t-51 41q-26 17 -48 24q28 -1 53 -2q21 -1 42.5 -1.5t33.5 -0.5t29 0.5
t32 1.5l36 2q-4 -8 -5 -19q-1 -9 2 -21t13 -27l183 -262h1l161 228q15 21 20 39.5t5 32.5q0 16 -4 29q21 -1 39 -2q16 -1 33 -1.5t29 -0.5t30 0.5t35 1.5q19 1 40 2z" />
    <glyph glyph-name="Uacute" unicode="&#xda;" horiz-adv-x="168" 
d="M397 779q-37 -47 -78 -106l-79 -120t-89 -153l-80 -153.5l-66 -131.5l-61 -127q-26 0 -49.5 -2.5l-41.5 -4.5q-21 -3 -40 -6l89 137l90.5 147.5l102.5 180.5l56.5 109l55.5 110l58 120h132v0z" />
    <glyph glyph-name="Ucircumflex" unicode="&#xdb;" horiz-adv-x="688" 
d="M647 151q0 -43 -18 -73t-45.5 -48.5t-61.5 -26.5t-67 -8q-59 0 -98.5 17t-63.5 47.5t-34 72.5t-10 92q0 51 14.5 92.5t41.5 71t66.5 45.5t89.5 16q38 0 65.5 -4t46.5 -9.5t30 -10t17 -5.5q-4 -6 -8 -11l-6.5 -10.5t-5.5 -10.5t-3.5 -13.5t-2.5 -16.5q-1 -9 -1 -19l-6 -1
q-10 16 -27 28q-14 11 -38 19.5t-59 8.5q-36 0 -61.5 -11t-42 -31t-24.5 -47.5t-9 -61.5q5 8 15.5 18t27.5 19t41.5 15t57.5 6q35 0 67.5 -9t57 -27.5t39.5 -47t15 -66.5zM227 0q-14 2 -27 3q-11 1 -23 1.5t-20 0.5t-18 -0.5t-20 -1.5l-23 -2l-2 6q8 8 14 26q5 16 9.5 45.5
t4.5 78.5v209q-25 -4 -46 -10t-35 -11q-17 -6 -30 -12q3 8 5 17q2 8 3 15.5t1 12.5v10.5t-1 10.5l-2 12l58 11l45.5 9.5t32.5 9.5h50q-2 -10 -4 -31q-2 -18 -3.5 -49.5t-1.5 -81.5v-122q0 -49 5.5 -79.5t11.5 -47.5q7 -20 16 -30zM572 147q0 27 -9.5 46t-26 31.5t-38.5 18
t-47 5.5q-15 0 -34.5 -4t-37 -15.5t-29.5 -30.5t-12 -49q0 -48 29 -75t87 -27q54 0 86 28t32 72z" />
    <glyph glyph-name="Udieresis" unicode="&#xdc;" horiz-adv-x="257" 
d="M214 165l-38 34l-32 28t-27 22q-10 8 -24 16l-27 15q-15 8 -30 14l2 18q1 8 1 15.5v12.5v12.5t-1 15.5q-1 9 -2 19l30 14q13 6 26.5 14t24.5 16t27 22l32 28l38 35q-1 -17 -2 -31q-1 -12 -1.5 -23t-0.5 -14t0.5 -9.5t0.5 -12.5v-16q-13 -6 -24 -13l-21 -12.5t-20 -13.5
q-5 -4 -12 -9t-15 -10l-18 -12q9 -6 18 -11l15 -9.5t11 -8.5q9 -6 20 -12.5t22 -11.5l24 -12v-18q0 -7 -0.5 -13.5t-0.5 -10.5q0 -3 0.5 -14t1.5 -23q1 -14 2 -31z" />
    <glyph glyph-name="Yacute" unicode="&#xdd;" horiz-adv-x="257" 
d="M237 294q-15 -6 -30 -14q-13 -7 -26 -15t-24 -16l-26.5 -22l-32.5 -28l-39 -34q1 17 2 31q1 12 1.5 23t0.5 14v24q0 8 -1 18l24 12q11 5 22.5 11.5t19.5 12.5q5 4 12 8.5l15 9.5q9 5 18 11l-18 12l-15.5 10t-12.5 9q-8 7 -19 13.5l-22 12.5q-12 7 -24 13q1 9 1 16v22
q0 3 -0.5 14t-1.5 23q-1 14 -2 31q21 -17 39 -34l32 -28.5t27 -22.5t24 -16t26 -14l30 -14q0 -10 -1 -19q-1 -8 -1.5 -15.5t-0.5 -12.5t0.5 -12.5t1.5 -15.5q1 -9 1 -18z" />
    <glyph glyph-name="Thorn" unicode="&#xde;" horiz-adv-x="553" 
d="M501 0q-8 2 -17 4q-15 3 -39 3q-22 0 -37 -3q-9 -2 -17 -4q2 16 5 50q2 29 3.5 82t1.5 138v8q0 63 -0.5 105t-1.5 73q-19 2 -47 3q-24 1 -59.5 1.5t-83.5 0.5h-18v-291q0 -90 2.5 -139.5t5.5 -72.5q4 -27 8 -32q-8 -1 -18 -3q-8 -2 -18.5 -3t-21.5 -3t-23.5 -6.5
t-23.5 -9.5l-27 -13q7 6 13 38q5 27 9 84t4 160v291h-18q-16 0 -30.5 -0.5t-25.5 -1.5q-13 -1 -24 -3q1 6 3 13q3 12 3 30t-3 31q-2 8 -3 15q11 -2 24 -4q11 -2 25.5 -3t30.5 -1h18h-18h18v46q0 90 50 128t146 38q30 0 55.5 -5t44.5 -12q22 -8 39 -18q-4 -5 -8 -12
q-4 -6 -8 -13.5t-7 -15.5q-3 -9 -4.5 -17.5t-3.5 -15.5q-2 -8 -2 -15q-10 14 -25 25q-13 9 -33 16.5t-48 7.5q-52 0 -80 -20t-28 -71v-46h20q106 0 164.5 2t87.5 4q33 3 40 5q-2 -16 -5 -50q-2 -29 -3.5 -82t-1.5 -138v-8q0 -85 1.5 -138t3.5 -82q3 -34 5 -50z" />
    <glyph glyph-name="germandbls" unicode="&#xdf;" horiz-adv-x="584" 
d="M520 0q-8 2 -17 4q-15 3 -38 3t-38 -3q-9 -2 -16 -4q2 16 5 50q2 29 3.5 82t1.5 138v196q0 98 -2 154t-4 83q-10 -13 -16 -30q-3 -9 -4.5 -17.5t-3.5 -15.5q-2 -8 -2 -15q-8 14 -21 25q-11 9 -30 16.5t-47 7.5q-45 0 -73.5 -20t-28.5 -71v-46h20q38 0 66 1t48 3
q23 2 40 4q-1 -7 -3 -15q-3 -13 -3 -31t3 -30q2 -7 3 -13q-17 2 -40 3q-20 1 -48 1.5t-66 0.5h-18v-291q0 -90 2.5 -139.5t5.5 -72.5q4 -27 8 -32q-8 -1 -18 -3q-8 -2 -18.5 -3t-21.5 -3t-23.5 -6.5t-23.5 -9.5l-27 -13q7 6 13 38q5 27 9 84t4 160v291h-18q-16 0 -30.5 -0.5
t-25.5 -1.5q-13 -1 -24 -3q1 6 3 13q3 12 3 30t-3 31q-2 8 -3 15q11 -2 24 -4q11 -2 25.5 -3t30.5 -1h18h-18h18v46q0 90 51.5 128t138.5 38q45 0 76.5 -11t45.5 -19q0 5 -0.5 8t-0.5 5q0 3 -1 4q7 -1 16 -3q8 -2 17.5 -3t20.5 -1t20.5 1t17.5 3q9 2 17 3q-2 -16 -5 -50
q-2 -29 -4 -82t-2 -138v-196q0 -85 2 -138t4 -82q3 -34 5 -50z" />
    <glyph glyph-name="agrave" unicode="&#xe0;" horiz-adv-x="609" 
d="M607 145q-14 7 -45 12q-26 5 -73.5 8.5t-124.5 3.5h-23q0 -63 2.5 -106.5t5.5 -70.5q4 -32 8 -51q-8 1 -17 3q-15 3 -38 3t-38 -3q-9 -2 -16 -3q5 19 9 51q3 27 5.5 70.5t2.5 106.5h-26q-77 0 -124 -3.5t-74 -8.5q-32 -5 -46 -12q1 8 3 17q3 15 3 39q0 23 -3 38
q-2 9 -3 16q14 -7 46 -12q27 -5 74 -8.5t124 -3.5h26v254h-26q-77 0 -124 -3.5t-74 -8.5q-32 -5 -46 -12q1 8 3 17q3 15 3 37q0 24 -3 39q-2 9 -3 17q14 -7 46 -12q27 -5 74 -8.5t124 -3.5h26q0 63 -2.5 106.5t-5.5 70.5q-4 32 -9 51q7 -1 16 -3q15 -3 38 -3t38 3q9 2 17 3
q-4 -19 -8 -51q-3 -27 -5.5 -70.5t-2.5 -106.5h23q77 0 124.5 3.5t73.5 8.5q31 5 45 12q-1 -8 -3 -17q-3 -15 -3 -39q0 -22 3 -37q2 -9 3 -17q-14 7 -45 12q-26 5 -73.5 8.5t-124.5 3.5h-23v-254h23q77 0 124.5 3.5t73.5 8.5q31 5 45 12q-1 -7 -3 -16q-3 -15 -3 -38
q0 -24 3 -39q2 -9 3 -17z" />
    <glyph glyph-name="aacute" unicode="&#xe1;" horiz-adv-x="591" 
d="M375 371q0 -26 -24 -42t-56 -16q-35 0 -55.5 16t-20.5 42t21 44t53 18q34 0 58 -16.5t24 -45.5z" />
    <glyph glyph-name="acircumflex" unicode="&#xe2;" horiz-adv-x="229" 
d="M198 151l-42 -103l-34 -87t-27 -74h-73q16 51 25.5 119t9.5 139q9 -1 20 -2q9 -1 21.5 -1.5t25.5 -0.5q31 0 53 5q11 3 21 5z" />
    <glyph glyph-name="atilde" unicode="&#xe3;" horiz-adv-x="381" 
d="M380 151l-42 -103l-34 -87t-27 -74h-73q16 51 25.5 119t9.5 139q9 -1 20 -2q9 -1 21.5 -1.5t25.5 -0.5q31 0 53 5q11 3 21 5zM175 151l-42 -103l-34.5 -87t-27.5 -74h-72q16 51 25.5 119t9.5 139q9 -1 20 -2q9 -1 21 -1.5t26 -0.5q31 0 53 5q11 3 21 5z" />
    <glyph glyph-name="adieresis" unicode="&#xe4;" horiz-adv-x="1416" 
d="M1381 181q0 -43 -9.5 -78t-32 -60t-58 -39t-88.5 -14q-54 0 -90.5 14t-58.5 39t-31.5 60t-9.5 78q0 39 9.5 73.5t31.5 60t58.5 40t90.5 14.5q53 0 88.5 -14.5t58 -40t32 -60t9.5 -73.5zM937 181q0 -43 -9.5 -78t-32 -60t-58 -39t-88.5 -14q-54 0 -90.5 14t-58.5 39
t-31.5 60t-9.5 78q0 39 9.5 73.5t31.5 60t58.5 40t90.5 14.5q53 0 88.5 -14.5t58 -40t32 -60t9.5 -73.5zM795 779q-37 -47 -78 -106l-79 -120t-89 -153l-80 -153.5l-66 -131.5l-61 -127q-26 0 -49.5 -2.5l-41.5 -4.5q-21 -3 -40 -6l89 137l90.5 147.5l102.5 180.5l56.5 109
l55.5 110l58 120h132v0zM431 561q0 -42 -9.5 -77t-32 -60t-58 -39t-88.5 -14q-54 0 -90.5 14t-58.5 39t-31.5 60t-9.5 77q0 39 9.5 73.5t31.5 60t58.5 40t90.5 14.5q53 0 88.5 -14.5t58 -40t32 -60t9.5 -73.5zM1294 181q0 59 -26.5 90t-74.5 31t-75.5 -31t-27.5 -90
q0 -62 27.5 -93t75.5 -31t74.5 31t26.5 93zM850 181q0 59 -26.5 90t-74.5 31t-75.5 -31t-27.5 -90q0 -62 27.5 -93t75.5 -31t74.5 31t26.5 93zM344 561q0 59 -26.5 90.5t-74.5 31.5t-75.5 -31.5t-27.5 -90.5q0 -62 27.5 -93t75.5 -31t74.5 31t26.5 93z" />
    <glyph glyph-name="aring" unicode="&#xe5;" horiz-adv-x="723" 
d="M503 763q-15 0 -26 1q-10 1 -19 1h-11h-19q-6 0 -13 -1q-6 10 -11 20l-10.5 17.5t-10.5 16.5q-3 5 -7 11t-9 12q-5 7 -10 15l-9 -15q-4 -6 -7.5 -12t-6.5 -10q-5 -7 -10.5 -17t-10.5 -18l-10 -20q-7 1 -14 1h-20h-11.5t-19.5 -1q-11 -1 -25 -1l27 32l23 26.5l19 21.5
t13.5 19t11.5 22l12 25q8 0 15 -1q6 -1 12.5 -1h10.5h11t13 1q8 1 16 1q5 -13 11 -25q5 -11 11.5 -22t13.5 -19l19 -22l23 -27zM721 0l-29 4q-13 2 -27 2.5t-26 0.5q-26 0 -49 -3l-25 -4q-1 19 -6 47q-5 24 -15 62t-29 92l-25 72h-273l-28 -72q-22 -57 -32.5 -95.5
t-14.5 -61.5q-4 -27 -3 -44l-25 4q-11 2 -24 2.5t-25 0.5q-26 0 -44 -3l-21 -4q16 30 41 83l53 119.5l77 186.5q40 101 69 192.5l49 154.5q11 -1 22 -3q10 -2 21.5 -3t23.5 -1t25.5 1t24.5 3q13 2 25 3l43 -124l40 -113l39 -110q42 -112 73 -186t52 -119q25 -53 43 -84z
M356 648h-2l-109 -297h218z" />
    <glyph glyph-name="ae" unicode="&#xe6;" horiz-adv-x="615" 
d="M475 763q-15 0 -26 1q-10 1 -19 1h-11h-19q-6 0 -13 -1q-6 10 -11 20l-10.5 17.5t-10.5 16.5q-3 5 -7 11t-9 12q-5 7 -10 15l-9 -15q-4 -6 -7.5 -12t-6.5 -10q-5 -7 -10.5 -17t-10.5 -18l-10 -20q-7 1 -14 1h-20h-11.5t-19.5 -1q-11 -1 -25 -1l27 32l23 26.5l19 21.5
t13.5 19t11.5 22l12 25q8 0 15 -1q6 -1 12.5 -1h10.5h11t13 1q8 1 16 1q5 -13 11 -25q5 -11 11.5 -22t13.5 -19l19 -22l23 -27zM581 -10q-18 2 -59 5q-35 2 -98.5 3.5t-166.5 1.5h-182q3 16 6 50q2 29 4 82t2 138v196q0 85 -2 138t-4 82q-3 34 -6 50l182 -1
q103 -1 166.5 0.5t98.5 3.5q41 3 59 6q-2 -7 -4 -15q-2 -7 -3 -16t-1 -20q0 -10 1 -19t3 -17q2 -9 4 -16q-19 4 -60 8q-35 3 -97.5 5t-164.5 2h-68q-1 -17 -2 -44q-1 -23 -1.5 -59.5t-0.5 -87.5v-49h24q102 0 165.5 2t98.5 5q41 4 60 7q-2 -7 -4 -15q-2 -7 -3 -16t-1 -20
q0 -10 1 -19t3 -17q2 -9 4 -16q-19 3 -60 6q-35 2 -98.5 3.5t-165.5 1.5h-24v-69q0 -45 0.5 -80.5t1.5 -59.5q1 -28 2 -50h66q103 0 166.5 2.5t98.5 4.5q41 3 59 6q-2 -7 -4 -15q-2 -7 -3 -16t-1 -20q0 -10 1 -19t3 -17q2 -9 4 -16z" />
    <glyph glyph-name="ccedilla" unicode="&#xe7;" horiz-adv-x="723" 
d="M501 902l-23 -27l-24 -26.5t-27 -28.5q-6 -6 -12.5 -14.5t-11.5 -16.5l-12 -18q-10 1 -19 1h-24h-13.5t-23.5 -1q-14 -1 -32 -1l33 29l26.5 23.5t20.5 19.5t16 18t15 20l16 22q8 0 15 -1q6 -1 12 -1.5t9 -0.5q4 0 13 0.5t20 1.5q12 1 26 1zM721 0l-29 4q-13 2 -27 2.5
t-26 0.5q-26 0 -49 -3l-25 -4q-1 19 -6 47q-5 24 -15 62t-29 92l-25 72h-273l-28 -72q-22 -57 -32.5 -95.5t-14.5 -61.5q-4 -27 -3 -44l-25 4q-11 2 -24 2.5t-25 0.5q-26 0 -44 -3l-21 -4q16 30 41 83l53 119.5l77 186.5q40 101 69 192.5l49 154.5q11 -1 22 -3
q10 -2 21.5 -3t23.5 -1t25.5 1t24.5 3q13 2 25 3l43 -124l40 -113l39 -110q42 -112 73 -186t52 -119q25 -53 43 -84zM356 648h-2l-109 -297h218z" />
    <glyph glyph-name="egrave" unicode="&#xe8;" horiz-adv-x="615" 
d="M464 836q0 -22 -15.5 -37t-37.5 -15q-21 0 -36.5 15t-15.5 37t15.5 37t36.5 15q22 0 37.5 -15t15.5 -37zM291 836q0 -22 -15.5 -37t-37.5 -15t-37 15t-15 37t15 37t37 15t37.5 -15t15.5 -37zM581 -10q-18 2 -59 5q-35 2 -98.5 3.5t-166.5 1.5h-182q3 16 6 50q2 29 4 82
t2 138v196q0 85 -2 138t-4 82q-3 34 -6 50l182 -1q103 -1 166.5 0.5t98.5 3.5q41 3 59 6q-2 -7 -4 -15q-2 -7 -3 -16t-1 -20q0 -10 1 -19t3 -17q2 -9 4 -16q-19 4 -60 8q-35 3 -97.5 5t-164.5 2h-68q-1 -17 -2 -44q-1 -23 -1.5 -59.5t-0.5 -87.5v-49h24q102 0 165.5 2
t98.5 5q41 4 60 7q-2 -7 -4 -15q-2 -7 -3 -16t-1 -20q0 -10 1 -19t3 -17q2 -9 4 -16q-19 3 -60 6q-35 2 -98.5 3.5t-165.5 1.5h-24v-69q0 -45 0.5 -80.5t1.5 -59.5q1 -28 2 -50h66q103 0 166.5 2.5t98.5 4.5q41 3 59 6q-2 -7 -4 -15q-2 -7 -3 -16t-1 -20q0 -10 1 -19t3 -17
q2 -9 4 -16z" />
    <glyph glyph-name="eacute" unicode="&#xe9;" horiz-adv-x="615" 
d="M434 770q-18 0 -32 1q-12 1 -23 1h-14h-24q-9 0 -19 -1l-12 18q-5 8 -11 16.5t-13 14.5l-26 28.5l-24 26.5l-23 27q14 0 25 -1q10 -1 19.5 -1.5t13.5 -0.5t10 0.5t12 1.5q7 1 14 1q8 -11 17 -22l15.5 -20t15.5 -18t21 -19.5l26 -23.5zM581 -10q-18 2 -59 5
q-35 2 -98.5 3.5t-166.5 1.5h-182q3 16 6 50q2 29 4 82t2 138v196q0 85 -2 138t-4 82q-3 34 -6 50l182 -1q103 -1 166.5 0.5t98.5 3.5q41 3 59 6q-2 -7 -4 -15q-2 -7 -3 -16t-1 -20q0 -10 1 -19t3 -17q2 -9 4 -16q-19 4 -60 8q-35 3 -97.5 5t-164.5 2h-68q-1 -17 -2 -44
q-1 -23 -1.5 -59.5t-0.5 -87.5v-49h24q102 0 165.5 2t98.5 5q41 4 60 7q-2 -7 -4 -15q-2 -7 -3 -16t-1 -20q0 -10 1 -19t3 -17q2 -9 4 -16q-19 3 -60 6q-35 2 -98.5 3.5t-165.5 1.5h-24v-69q0 -45 0.5 -80.5t1.5 -59.5q1 -28 2 -50h66q103 0 166.5 2.5t98.5 4.5q41 3 59 6
q-2 -7 -4 -15q-2 -7 -3 -16t-1 -20q0 -10 1 -19t3 -17q2 -9 4 -16z" />
    <glyph glyph-name="ecircumflex" unicode="&#xea;" horiz-adv-x="271" 
d="M258 902l-23 -27l-23.5 -26.5t-26.5 -28.5q-6 -6 -12.5 -14.5t-11.5 -16.5l-12 -18q-11 1 -20 1h-24h-13t-23 -1q-14 -1 -32 -1l32 29l26 23.5t21 19.5t16 18t15 20l16 22q8 0 15 -1q6 -1 12 -1.5t9 -0.5q4 0 13 0.5t20 1.5q12 1 26 1zM199 0q-8 2 -19 4q-18 3 -43 3
t-43 -3q-11 -2 -19 -4q3 16 6 50q2 29 4 82t2 138v196q0 85 -2 138t-4 82q-3 34 -6 50q8 -1 19 -3q9 -2 20 -3t23 -1t23 1t20 3q11 2 19 3q-3 -16 -6 -50q-2 -29 -4 -82t-2 -138v-196q0 -85 2 -138t4 -82q3 -34 6 -50z" />
    <glyph glyph-name="edieresis" unicode="&#xeb;" horiz-adv-x="271" 
d="M281 763q-15 0 -26 1q-10 1 -19 1h-11h-18q-6 0 -13 -1q-6 10 -11 20l-10.5 17.5t-11.5 16.5q-3 5 -7 11l-8 12q-4 7 -10 15l-9 -15q-4 -6 -7.5 -12t-6.5 -10q-5 -7 -10.5 -17t-10.5 -18l-10 -20q-7 1 -14 1h-20h-11.5t-19.5 -1q-11 -1 -25 -1l27 32l23 26.5l19 21.5
t13.5 19t11.5 22l12 25q8 0 15 -1q6 -1 12.5 -1h10.5h11.5t12.5 1q7 1 15 1l12 -25q5 -11 11.5 -22t13.5 -19l18.5 -22l22.5 -27zM199 0q-8 2 -19 4q-18 3 -43 3t-43 -3q-11 -2 -19 -4q3 16 6 50q2 29 4 82t2 138v196q0 85 -2 138t-4 82q-3 34 -6 50q8 -1 19 -3q9 -2 20 -3
t23 -1t23 1t20 3q11 2 19 3q-3 -16 -6 -50q-2 -29 -4 -82t-2 -138v-196q0 -85 2 -138t4 -82q3 -34 6 -50z" />
    <glyph glyph-name="igrave" unicode="&#xec;" horiz-adv-x="271" 
d="M276 836q0 -22 -15.5 -37t-37.5 -15q-21 0 -36.5 15t-15.5 37t15.5 37t36.5 15q22 0 37.5 -15t15.5 -37zM103 836q0 -22 -15.5 -37t-37.5 -15t-37 15t-15 37t15 37t37 15t37.5 -15t15.5 -37zM199 0q-8 2 -19 4q-18 3 -43 3t-43 -3q-11 -2 -19 -4q3 16 6 50q2 29 4 82
t2 138v196q0 85 -2 138t-4 82q-3 34 -6 50q8 -1 19 -3q9 -2 20 -3t23 -1t23 1t20 3q11 2 19 3q-3 -16 -6 -50q-2 -29 -4 -82t-2 -138v-196q0 -85 2 -138t4 -82q3 -34 6 -50z" />
    <glyph glyph-name="iacute" unicode="&#xed;" horiz-adv-x="271" 
d="M237 770q-18 0 -32 1q-12 1 -23 1h-14h-24q-9 0 -19 -1l-12 18q-5 8 -11.5 16.5t-12.5 14.5q-14 14 -26.5 28.5l-23.5 26.5l-24 27q14 0 26 -1q11 -1 20 -1.5t13 -0.5t9.5 0.5t11.5 1.5q7 1 15 1l16 -22q7 -10 15 -20t16 -18t21 -19.5l27 -23.5zM199 0q-8 2 -19 4
q-18 3 -43 3t-43 -3q-11 -2 -19 -4q3 16 6 50q2 29 4 82t2 138v196q0 85 -2 138t-4 82q-3 34 -6 50q8 -1 19 -3q9 -2 20 -3t23 -1t23 1t20 3q11 2 19 3q-3 -16 -6 -50q-2 -29 -4 -82t-2 -138v-196q0 -85 2 -138t4 -82q3 -34 6 -50z" />
    <glyph glyph-name="icircumflex" unicode="&#xee;" horiz-adv-x="853" 
d="M551 902l-23 -27l-23.5 -26.5t-26.5 -28.5q-6 -6 -12.5 -14.5t-11.5 -16.5l-12 -18q-10 1 -19 1h-24h-13.5t-23.5 -1q-14 -1 -32 -1l32 29l26 23.5t21 19.5t16 18l16 20q9 11 16 22q7 0 14 -1q6 -1 12 -1.5t10 -0.5t13.5 0.5t19.5 1.5q11 1 25 1zM788 371
q0 -79 -19.5 -148.5t-61.5 -121t-109 -81t-162 -29.5q-107 0 -176.5 30t-110.5 82t-57.5 121t-16.5 147t18.5 146.5t60.5 120t111 81t171 29.5q105 0 173 -30.5t107.5 -82.5t55.5 -120.5t16 -143.5zM681 367q0 51 -9 105t-35.5 98.5t-74.5 72.5t-126 28q-71 0 -119.5 -22
t-78 -62t-42.5 -95t-13 -121q0 -61 13 -116t42.5 -96.5t78 -65.5t119.5 -24q78 0 126 28t74.5 71.5t35.5 96t9 102.5z" />
    <glyph glyph-name="idieresis" unicode="&#xef;" horiz-adv-x="853" 
d="M580 763q-15 0 -26 1q-10 1 -19 1h-11h-18q-6 0 -13 -1q-6 10 -11 20l-10.5 17.5t-11.5 16.5q-3 5 -7 11l-8 12q-4 7 -10 15l-9 -15l-8 -12t-7 -10q-5 -7 -10 -17t-10 -18l-10 -20q-8 1 -15 1h-19h-12t-19 -1q-11 -1 -25 -1l27 32l22.5 26.5l18.5 21.5t14 19t12 22l12 25
q8 0 15 -1q6 -1 12.5 -1h10.5h10t13 1q8 1 16 1l12 -25q5 -11 11.5 -22t13.5 -19l18.5 -22l22.5 -27zM788 371q0 -79 -19.5 -148.5t-61.5 -121t-109 -81t-162 -29.5q-107 0 -176.5 30t-110.5 82t-57.5 121t-16.5 147t18.5 146.5t60.5 120t111 81t171 29.5q105 0 173 -30.5
t107.5 -82.5t55.5 -120.5t16 -143.5zM681 367q0 51 -9 105t-35.5 98.5t-74.5 72.5t-126 28q-71 0 -119.5 -22t-78 -62t-42.5 -95t-13 -121q0 -61 13 -116t42.5 -96.5t78 -65.5t119.5 -24q78 0 126 28t74.5 71.5t35.5 96t9 102.5z" />
    <glyph glyph-name="eth" unicode="&#xf0;" horiz-adv-x="783" 
d="M732 0h-732v731h732v-731v0zM703 26v677h-672v-676l672 -1v0z" />
    <glyph glyph-name="ntilde" unicode="&#xf1;" horiz-adv-x="853" 
d="M502 770q-18 0 -32 1q-12 1 -23 1h-14h-24q-9 0 -19 -1l-12 18q-5 8 -11 16.5t-13 14.5l-26 28.5l-24 26.5l-23 27q14 0 25 -1q10 -1 19.5 -1.5t13.5 -0.5t10 0.5t12 1.5q7 1 14 1q8 -11 17 -22l15.5 -20t15.5 -18t21 -19.5l26 -23.5zM788 371q0 -79 -19.5 -148.5
t-61.5 -121t-109 -81t-162 -29.5q-107 0 -176.5 30t-110.5 82t-57.5 121t-16.5 147t18.5 146.5t60.5 120t111 81t171 29.5q105 0 173 -30.5t107.5 -82.5t55.5 -120.5t16 -143.5zM681 367q0 51 -9 105t-35.5 98.5t-74.5 72.5t-126 28q-71 0 -119.5 -22t-78 -62t-42.5 -95
t-13 -121q0 -61 13 -116t42.5 -96.5t78 -65.5t119.5 -24q78 0 126 28t74.5 71.5t35.5 96t9 102.5z" />
    <glyph glyph-name="ograve" unicode="&#xf2;" horiz-adv-x="771" 
d="M521 902l-23 -27l-24 -26.5t-27 -28.5q-6 -6 -12.5 -14.5t-11.5 -16.5l-12 -18q-10 1 -19 1h-24h-13.5t-23.5 -1q-14 -1 -32 -1l33 29l26.5 23.5t20.5 19.5t16 18t15 20l16 22q8 0 15 -1q6 -1 12 -1.5t9 -0.5q4 0 13 0.5t20 1.5q12 1 26 1zM711 736q-3 -16 -6 -50
q-2 -29 -4 -82t-2 -138v-191q0 -41 -5 -76t-19 -64q-38 -76 -113.5 -112t-172.5 -36q-96 0 -170.5 36.5t-107.5 111.5q-14 30 -20 65.5t-6 74.5v191q0 85 -4 138t-9 82q-6 34 -13 50q13 -1 26 -3q11 -2 24.5 -3t25.5 -1t23 1t20 3q11 2 19 3q-3 -16 -6 -50q-2 -29 -4 -82
t-2 -138v-191q0 -39 9.5 -77t32.5 -67.5t63 -47.5t101 -18q63 0 103 18t63.5 47.5t32.5 67.5t9 77v191q0 85 -2 138t-4 82q-3 34 -6 50q8 -1 19 -3q9 -2 20 -3t23 -1t23 1t20 3q11 2 19 3z" />
    <glyph glyph-name="oacute" unicode="&#xf3;" horiz-adv-x="771" 
d="M535 763q-15 0 -26 1q-10 1 -19 1h-11h-19q-6 0 -13 -1q-6 10 -11 20l-10.5 17.5t-10.5 16.5q-3 5 -7 11t-9 12q-5 7 -10 15l-9 -15q-4 -6 -7.5 -12t-6.5 -10q-5 -7 -10.5 -17t-10.5 -18l-10 -20q-7 1 -14 1h-20h-11.5t-19.5 -1q-11 -1 -25 -1l27 32l23 26.5l19 21.5
t13.5 19t11.5 22l12 25q8 0 15 -1q6 -1 12.5 -1h10.5h11t13 1q8 1 16 1q5 -13 11 -25q5 -11 11.5 -22t13.5 -19l19 -22l23 -27zM711 736q-3 -16 -6 -50q-2 -29 -4 -82t-2 -138v-191q0 -41 -5 -76t-19 -64q-38 -76 -113.5 -112t-172.5 -36q-96 0 -170.5 36.5t-107.5 111.5
q-14 30 -20 65.5t-6 74.5v191q0 85 -4 138t-9 82q-6 34 -13 50q13 -1 26 -3q11 -2 24.5 -3t25.5 -1t23 1t20 3q11 2 19 3q-3 -16 -6 -50q-2 -29 -4 -82t-2 -138v-191q0 -39 9.5 -77t32.5 -67.5t63 -47.5t101 -18q63 0 103 18t63.5 47.5t32.5 67.5t9 77v191q0 85 -2 138
t-4 82q-3 34 -6 50q8 -1 19 -3q9 -2 20 -3t23 -1t23 1t20 3q11 2 19 3z" />
    <glyph glyph-name="ocircumflex" unicode="&#xf4;" horiz-adv-x="771" 
d="M482 770q-18 0 -32 1q-12 1 -23 1h-14h-24q-9 0 -19 -1l-12 18q-5 8 -11 16.5t-13 14.5l-26 28.5l-24 26.5l-23 27q14 0 25 -1q10 -1 19.5 -1.5t13.5 -0.5t10 0.5t12 1.5q7 1 14 1q8 -11 17 -22l15.5 -20t15.5 -18t21 -19.5l26 -23.5zM711 736q-3 -16 -6 -50
q-2 -29 -4 -82t-2 -138v-191q0 -41 -5 -76t-19 -64q-38 -76 -113.5 -112t-172.5 -36q-96 0 -170.5 36.5t-107.5 111.5q-14 30 -20 65.5t-6 74.5v191q0 85 -4 138t-9 82q-6 34 -13 50q13 -1 26 -3q11 -2 24.5 -3t25.5 -1t23 1t20 3q11 2 19 3q-3 -16 -6 -50q-2 -29 -4 -82
t-2 -138v-191q0 -39 9.5 -77t32.5 -67.5t63 -47.5t101 -18q63 0 103 18t63.5 47.5t32.5 67.5t9 77v191q0 85 -2 138t-4 82q-3 34 -6 50q8 -1 19 -3q9 -2 20 -3t23 -1t23 1t20 3q11 2 19 3z" />
    <glyph glyph-name="otilde" unicode="&#xf5;" horiz-adv-x="217" 
d="M165 0q-8 2 -17 4q-15 3 -39 3q-22 0 -37 -3q-9 -2 -17 -4q2 16 5 50q2 29 3.5 82t1.5 138v8q0 85 -1.5 138t-3.5 82q-3 34 -5 50q8 -1 17 -3q8 -2 17 -3t20 -1t21 1t18 3q9 2 17 3q-2 -16 -5 -50q-2 -29 -3.5 -82t-1.5 -138v-8q0 -85 1.5 -138t3.5 -82q3 -34 5 -50z" />
    <glyph glyph-name="odieresis" unicode="&#xf6;" horiz-adv-x="401" 
d="M435 517q0 -58 -18.5 -100t-50.5 -70t-75.5 -41.5t-93.5 -13.5q-38 0 -65.5 4t-46 9.5t-29.5 10.5t-17 6q3 5 7 10l6 10.5t5 10.5q3 6 4.5 15.5t2.5 19.5q1 11 1 23q15 -18 36 -32q18 -12 44 -22.5t61 -10.5q31 0 58.5 9t48 28t33.5 48.5t14 69.5q-6 -7 -16.5 -17
t-27 -19t-39 -15.5t-52.5 -6.5q-35 0 -68 8.5t-59 26.5t-41.5 45.5t-15.5 65.5q0 43 17 73t44 48.5t60.5 26.5t65.5 8q59 0 99 -18.5t64 -50t34 -73t10 -86.5zM345 594q0 16 -5.5 33.5t-19 31.5t-37 23.5t-60.5 9.5q-20 0 -39.5 -6t-34.5 -18.5t-24 -32t-9 -46.5t10 -45
t26 -29t36.5 -15.5t41.5 -4.5q29 0 51 9.5t36 24t21 32t7 33.5z" />
    <glyph glyph-name="divide" unicode="&#xf7;" horiz-adv-x="600" 
d="M477 715q-19 -43 -43.5 -66.5t-71.5 -23.5q-24 0 -41 9.5t-32 21.5t-30 21.5t-35 9.5q-23 0 -39.5 -9t-27.5 -20q-13 -13 -22 -29q1 6 0 13l-2 12.5t-4 11.5q-2 4 -8 8q-3 2 -6 3q34 77 116 77q27 0 44 -9t31 -20.5t28 -20.5t35 -9q24 0 40 8.5t25 19.5q11 12 16 27
q0 -7 1 -13q2 -13 8 -18q3 -1 11 -3q4 -1 7 -1z" />
    <glyph glyph-name="oslash" unicode="&#xf8;" horiz-adv-x="605" 
d="M86 665q3 5 6 11q2 5 4 11.5t2 13.5q0 6 -2 12.5t-4 11.5l-6 12h429q-2 -6 -5 -12q-2 -5 -4 -11.5t-2 -12.5q0 -8 2 -14t4 -11q3 -6 5 -11h-429z" />
    <glyph glyph-name="ugrave" unicode="&#xf9;" horiz-adv-x="605" 
d="M466 789q0 -32 -7.5 -63.5t-26 -56t-50.5 -39.5t-81 -15q-47 0 -78 15t-49 39.5t-25.5 56t-7.5 63.5q5 -1 9 -3q8 -3 17 -3q10 0 17 3q4 2 9 3q3 -28 15 -50q11 -19 33 -35t62 -16q42 0 64.5 16t33.5 35q12 22 15 50q5 -1 9 -3q8 -3 16 -3q9 0 16 3q4 2 9 3z" />
    <glyph glyph-name="uacute" unicode="&#xfa;" horiz-adv-x="605" 
d="M355 676q0 -22 -15.5 -37t-36.5 -15q-22 0 -37 15t-15 37t15 37t37 15q21 0 36.5 -15t15.5 -37z" />
    <glyph glyph-name="ucircumflex" unicode="&#xfb;" horiz-adv-x="605" 
d="M379 705q0 -16 -6 -30.5t-16.5 -25t-24.5 -17t-31 -6.5q-33 -1 -56.5 22.5t-22.5 56.5q0 17 6.5 31t17 24.5t25 16.5t30.5 6q32 0 55 -23t23 -55zM335 705q0 14 -10.5 25t-24.5 11q-15 0 -25.5 -10.5t-10.5 -25.5t10.5 -25.5t25.5 -10.5q14 0 24.5 10.5t10.5 25.5z" />
    <glyph glyph-name="udieresis" unicode="&#xfc;" horiz-adv-x="528" 
d="M455 -115q0 -21 -14.5 -37.5t-38 -27t-53 -16t-60.5 -5.5q-37 0 -62 3t-40 8q-18 5 -28 11q6 3 11 7t8.5 8.5t5.5 11.5q2 3 2 9.5t-1 12.5l-2 16q11 -10 27 -18q14 -7 33.5 -12t45.5 -5q25 0 41.5 3.5t26.5 8.5t14 12t4 13q0 16 -15.5 23.5t-39.5 7.5q-6 0 -13 -1l-14 -2
l-16 -2v8q0 10 -4 15q-3 5 -9 8q-4 2 -7 4l38 58l25 1v-47q38 1 68 -7q26 -7 46.5 -22.5t20.5 -46.5z" />
    <glyph glyph-name="yacute" unicode="&#xfd;" horiz-adv-x="605" 
d="M500 739l-42 -82l-34 -69.5t-27 -59.5h-73q16 40 25.5 94.5t9.5 111.5q9 0 20 -1q9 -1 21.5 -1.5t25.5 -0.5q17 0 30 1t23 3zM295 739l-42 -82l-34.5 -69.5t-27.5 -59.5h-72q16 40 25.5 94.5t9.5 111.5q9 0 20 -1q9 -1 21 -1.5t26 -0.5q16 0 29.5 1t23.5 3z" />
    <glyph glyph-name="thorn" unicode="&#xfe;" horiz-adv-x="528" 
d="M431 -85q-2 -4 -6 -8q-7 -9 -10 -22q-2 -8 -2 -11v-5q-12 -7 -30 -13q-15 -5 -36 -9t-47 -4q-31 0 -60 6t-51 16.5t-35 26t-13 35.5q0 22 12 36.5t31 22t42 10.5t45 3h66q-3 -3 -6 -7q-5 -7 -10 -15q-2 -3 -2.5 -6.5t-2.5 -7.5t-3 -8q-2 0 -13 2.5t-29 2.5q-50 0 -50 -28
q0 -17 21 -28t59 -11q23 0 45.5 3t41.5 8q22 5 43 11z" />
    <glyph glyph-name="ydieresis" unicode="&#xff;" horiz-adv-x="567" 
d="M435 751l-28 -32l-23 -26.5l-19 -21.5t-13.5 -19.5t-11.5 -22.5q-6 -12 -11 -25l-16 2q-7 1 -13 1h-11h-10.5t-12.5 -1q-7 -1 -15 -2q-5 13 -11 25q-5 11 -11.5 22.5t-14.5 19.5l-18.5 21.5l-22.5 26.5l-28 32q14 0 25 -1q10 -1 19.5 -1.5t11.5 -0.5q3 0 8.5 0.5
t11.5 0.5h14l10 -20l10.5 -17.5t10.5 -16.5q3 -4 7 -10.5l8 -12.5q4 -7 8 -15q5 8 10 15q5 6 9 12.5t7 10.5q11 16 21 34q5 10 11 20h13q5 0 11 -0.5t8 -0.5t11 0.5t19 1.5q11 1 26 1z" />
    <glyph glyph-name="OE" unicode="&#x152;" horiz-adv-x="567" 
d="M358 705q0 -16 -6 -30.5t-16.5 -25t-25 -17t-30.5 -6.5q-33 -1 -56.5 22.5t-22.5 56.5q0 17 6.5 31t17 24.5t25 16.5t30.5 6q32 0 54.5 -23t23.5 -55zM581 20q-12 0 -25 -1q-11 -1 -23.5 -2.5t-23.5 -4.5q-10 -2 -19 -5.5t-16 -6.5q-8 -4 -15 -7q-6 11 -10 23
q-4 11 -8 26t-6 32q-38 -42 -87.5 -61.5t-109.5 -19.5q-57 0 -95.5 13t-62 35.5t-33.5 51.5t-10 60q0 60 26.5 95.5t67 55t88 25.5t88.5 6q30 0 52.5 -0.5t37.5 -1.5q18 -1 30 -2v51q0 104 -147 104q-30 0 -55 -9t-42 -24t-26.5 -33t-9.5 -36q-4 8 -10 18q-5 8 -12 18
t-17 21q-5 7 -10.5 11l-9.5 7q-4 4 -9 6q8 26 33 45q21 17 62 30.5t111 13.5q123 0 177.5 -47.5t54.5 -145.5v-173q0 -47 10 -79t22 -52q14 -23 32 -37zM314 705q0 14 -10.5 25t-24.5 11q-15 0 -25.5 -10.5t-10.5 -25.5t10.5 -25.5t25.5 -10.5q14 0 24.5 10.5t10.5 25.5z
M426 273q-11 1 -26 2q-13 1 -31.5 1.5t-43.5 0.5q-31 0 -64 -4.5t-60 -16.5t-44.5 -34.5t-17.5 -58.5q0 -30 13.5 -49t34 -30.5t45 -15.5t46.5 -4q20 0 45.5 8.5t48 26t38.5 45t16 65.5v64z" />
    <glyph glyph-name="oe" unicode="&#x153;" horiz-adv-x="601" 
d="M405 742l-23 -27l-24 -26.5t-27 -28.5q-6 -6 -12.5 -14.5t-11.5 -16.5l-12 -18q-10 1 -19 1h-24h-13.5t-23.5 -1q-14 -1 -32 -1l33 29l26.5 23.5t20.5 19.5t16 18t15 20l16 22q8 0 15 -1q6 -1 12 -1.5t9 -0.5q4 0 13 0.5t20 1.5q12 1 26 1zM594 20q-9 0 -20 -1
q-9 -1 -19.5 -2.5t-21.5 -4.5q-10 -2 -19 -5.5t-16 -6.5q-8 -4 -15 -7q-5 11 -10 25q-5 12 -9 28t-7 35q-41 -51 -86 -69.5t-94 -18.5q-39 0 -77.5 6.5t-68.5 29t-49 66t-19 118.5v65q0 87 -3.5 139.5t-8.5 81.5q-5 34 -12 49q12 -1 23 -3q10 -2 22 -3t23 -1t21.5 1t18.5 3
q10 2 19 3q-2 -16 -5 -50q-2 -29 -3.5 -82t-1.5 -138v-19q0 -52 9.5 -87t27.5 -56.5t45 -30.5t63 -9q46 0 75 19t45.5 49.5t23 68.5t6.5 76v46q0 64 -1.5 105t-3.5 65q-3 28 -6 43q8 -1 17 -3q8 -2 17.5 -3t20.5 -1t21.5 1t18.5 3q10 2 19 3q-2 -16 -5 -50q-2 -29 -3.5 -82
t-1.5 -138v-128q0 -40 7.5 -65.5t17.5 -39.5q11 -17 25 -25z" />
    <glyph glyph-name="Scaron" unicode="&#x160;" horiz-adv-x="567" 
d="M423 676q0 -22 -15.5 -37t-37.5 -15t-37 15t-15 37t15 37t37 15t37.5 -15t15.5 -37zM249 676q0 -22 -15.5 -37t-36.5 -15q-22 0 -37 15t-15 37t15 37t37 15q21 0 36.5 -15t15.5 -37zM581 20q-12 0 -25 -1q-11 -1 -23.5 -2.5t-23.5 -4.5q-10 -2 -19 -5.5t-16 -6.5
q-8 -4 -15 -7q-6 11 -10 23q-4 11 -8 26t-6 32q-38 -42 -87.5 -61.5t-109.5 -19.5q-57 0 -95.5 13t-62 35.5t-33.5 51.5t-10 60q0 60 26.5 95.5t67 55t88 25.5t88.5 6q30 0 52.5 -0.5t37.5 -1.5q18 -1 30 -2v51q0 104 -147 104q-30 0 -55 -9t-42 -24t-26.5 -33t-9.5 -36
q-4 8 -10 18q-5 8 -12 18t-17 21q-5 7 -10.5 11l-9.5 7q-4 4 -9 6q8 26 33 45q21 17 62 30.5t111 13.5q123 0 177.5 -47.5t54.5 -145.5v-173q0 -47 10 -79t22 -52q14 -23 32 -37zM426 273q-11 1 -26 2q-13 1 -31.5 1.5t-43.5 0.5q-31 0 -64 -4.5t-60 -16.5t-44.5 -34.5
t-17.5 -58.5q0 -30 13.5 -49t34 -30.5t45 -15.5t46.5 -4q20 0 45.5 8.5t48 26t38.5 45t16 65.5v64z" />
    <glyph glyph-name="scaron" unicode="&#x161;" horiz-adv-x="605" 
d="M449 676q0 -22 -15.5 -37t-36.5 -15q-22 0 -37 15t-15 37t15 37t37 15q21 0 36.5 -15t15.5 -37zM276 676q0 -22 -15.5 -37t-37.5 -15q-21 0 -36.5 15t-15.5 37t15.5 37t36.5 15q22 0 37.5 -15t15.5 -37zM573 268q0 -58 -17 -108t-50.5 -87t-82.5 -58.5t-114 -21.5
q-76 0 -128 19t-84 55t-46.5 86.5t-14.5 113.5q0 56 14 107.5t46 91.5t84.5 63.5t128.5 23.5q80 0 131 -24t80.5 -63.5t41 -91t11.5 -106.5zM477 265q0 33 -4.5 71t-21 70t-49.5 53.5t-91 21.5q-57 0 -92 -19t-54.5 -49.5t-26.5 -69.5t-7 -79q0 -100 42.5 -149t137.5 -49
q44 0 75.5 16t51.5 43t29.5 63.5t9.5 76.5z" />
    <glyph glyph-name="Ydieresis" unicode="&#x178;" horiz-adv-x="601" 
d="M440 676q0 -22 -15.5 -37t-37.5 -15q-21 0 -36.5 15t-15.5 37t15.5 37t36.5 15q22 0 37.5 -15t15.5 -37zM267 676q0 -22 -15.5 -37t-37.5 -15t-37 15t-15 37t15 37t37 15t37.5 -15t15.5 -37zM594 20q-9 0 -20 -1q-9 -1 -19.5 -2.5t-21.5 -4.5q-10 -2 -19 -5.5t-16 -6.5
q-8 -4 -15 -7q-5 11 -10 25q-5 12 -9 28t-7 35q-41 -51 -86 -69.5t-94 -18.5q-39 0 -77.5 6.5t-68.5 29t-49 66t-19 118.5v65q0 87 -3.5 139.5t-8.5 81.5q-5 34 -12 49q12 -1 23 -3q10 -2 22 -3t23 -1t21.5 1t18.5 3q10 2 19 3q-2 -16 -5 -50q-2 -29 -3.5 -82t-1.5 -138v-19
q0 -52 9.5 -87t27.5 -56.5t45 -30.5t63 -9q46 0 75 19t45.5 49.5t23 68.5t6.5 76v46q0 64 -1.5 105t-3.5 65q-3 28 -6 43q8 -1 17 -3q8 -2 17.5 -3t20.5 -1t21.5 1t18.5 3q10 2 19 3q-2 -16 -5 -50q-2 -29 -3.5 -82t-1.5 -138v-128q0 -40 7.5 -65.5t17.5 -39.5
q11 -17 25 -25z" />
    <glyph glyph-name="florin" unicode="&#x192;" horiz-adv-x="615" 
d="M501 902l-23 -27l-24 -26.5t-27 -28.5q-6 -6 -12.5 -14.5t-11.5 -16.5l-12 -18q-10 1 -19 1h-24h-13.5t-23.5 -1q-14 -1 -32 -1l33 29l26.5 23.5t20.5 19.5t16 18t15 20l16 22q8 0 15 -1q6 -1 12 -1.5t9 -0.5q4 0 13 0.5t20 1.5q12 1 26 1zM581 -10q-18 2 -59 5
q-35 2 -98.5 3.5t-166.5 1.5h-182q3 16 6 50q2 29 4 82t2 138v196q0 85 -2 138t-4 82q-3 34 -6 50l182 -1q103 -1 166.5 0.5t98.5 3.5q41 3 59 6q-2 -7 -4 -15q-2 -7 -3 -16t-1 -20q0 -10 1 -19t3 -17q2 -9 4 -16q-19 4 -60 8q-35 3 -97.5 5t-164.5 2h-68q-1 -17 -2 -44
q-1 -23 -1.5 -59.5t-0.5 -87.5v-49h24q102 0 165.5 2t98.5 5q41 4 60 7q-2 -7 -4 -15q-2 -7 -3 -16t-1 -20q0 -10 1 -19t3 -17q2 -9 4 -16q-19 3 -60 6q-35 2 -98.5 3.5t-165.5 1.5h-24v-69q0 -45 0.5 -80.5t1.5 -59.5q1 -28 2 -50h66q103 0 166.5 2.5t98.5 4.5q41 3 59 6
q-2 -7 -4 -15q-2 -7 -3 -16t-1 -20q0 -10 1 -19t3 -17q2 -9 4 -16z" />
    <glyph glyph-name="circumflex" unicode="&#x2c6;" horiz-adv-x="567" 
d="M413 610q-18 0 -32 1q-12 1 -23 1h-14h-24q-9 0 -19 -1l-12 18q-5 8 -11.5 16.5t-12.5 14.5q-14 14 -26.5 28.5l-23.5 26.5l-24 27q14 0 26 -1q11 -1 20 -1.5t13 -0.5t9.5 0.5t11.5 1.5q7 1 15 1l16 -22q7 -10 15 -20t16 -18t21 -19.5l27 -23.5zM581 20q-12 0 -25 -1
q-11 -1 -23.5 -2.5t-23.5 -4.5q-10 -2 -19 -5.5t-16 -6.5q-8 -4 -15 -7q-6 11 -10 23q-4 11 -8 26t-6 32q-38 -42 -87.5 -61.5t-109.5 -19.5q-57 0 -95.5 13t-62 35.5t-33.5 51.5t-10 60q0 60 26.5 95.5t67 55t88 25.5t88.5 6q30 0 52.5 -0.5t37.5 -1.5q18 -1 30 -2v51
q0 104 -147 104q-30 0 -55 -9t-42 -24t-26.5 -33t-9.5 -36q-4 8 -10 18q-5 8 -12 18t-17 21q-5 7 -10.5 11l-9.5 7q-4 4 -9 6q8 26 33 45q21 17 62 30.5t111 13.5q123 0 177.5 -47.5t54.5 -145.5v-173q0 -47 10 -79t22 -52q14 -23 32 -37zM426 273q-11 1 -26 2
q-13 1 -31.5 1.5t-43.5 0.5q-31 0 -64 -4.5t-60 -16.5t-44.5 -34.5t-17.5 -58.5q0 -30 13.5 -49t34 -30.5t45 -15.5t46.5 -4q20 0 45.5 8.5t48 26t38.5 45t16 65.5v64z" />
    <glyph glyph-name="tilde" unicode="&#x2dc;" horiz-adv-x="605" 
d="M413 610q-18 0 -32 1q-12 1 -23 1h-14h-24q-9 0 -19 -1l-12 18q-5 8 -11.5 16.5t-12.5 14.5q-14 14 -26.5 28.5l-23.5 26.5l-24 27q14 0 26 -1q11 -1 20 -1.5t13 -0.5t9.5 0.5t11.5 1.5q7 1 15 1l16 -22q7 -10 15 -20t16 -18t21 -19.5l27 -23.5zM573 268q0 -58 -17 -108
t-50.5 -87t-82.5 -58.5t-114 -21.5q-76 0 -128 19t-84 55t-46.5 86.5t-14.5 113.5q0 56 14 107.5t46 91.5t84.5 63.5t128.5 23.5q80 0 131 -24t80.5 -63.5t41 -91t11.5 -106.5zM477 265q0 33 -4.5 71t-21 70t-49.5 53.5t-91 21.5q-57 0 -92 -19t-54.5 -49.5t-26.5 -69.5
t-7 -79q0 -100 42.5 -149t137.5 -49q44 0 75.5 16t51.5 43t29.5 63.5t9.5 76.5z" />
    <glyph glyph-name="endash" unicode="&#x2013;" horiz-adv-x="600" 
d="M477 715q-19 -43 -43.5 -66.5t-71.5 -23.5q-24 0 -41 9.5t-32 21.5t-30 21.5t-35 9.5q-23 0 -39.5 -9t-27.5 -20q-13 -13 -22 -29q1 6 0 13l-2 12.5t-4 11.5q-2 4 -8 8q-3 2 -6 3q34 77 116 77q27 0 44 -9t31 -20.5t28 -20.5t35 -9q24 0 40 8.5t25 19.5q11 12 16 27
q0 -7 1 -13q2 -13 8 -18q3 -1 11 -3q4 -1 7 -1zM562 0l-21 4q-9 2 -20 2.5t-22 0.5q-23 0 -40 -3q-10 -2 -18 -4q2 16 5 50q2 29 3.5 82t1.5 138v7q0 104 -33.5 153t-105.5 49q-38 0 -67 -15.5t-48.5 -42.5t-29.5 -64t-10 -80v-7q0 -85 1.5 -138t3.5 -82q3 -34 5 -50
q-8 2 -18 4q-16 3 -39 3q-22 0 -39 -3q-10 -2 -18 -4q2 16 5 50q2 29 3.5 82t1.5 138v196q0 13 -1.5 27t-3.5 26q-3 14 -5 29q8 -1 18 -3q8 -2 18 -3t21 -1t21 1t18 3q10 2 18 3q-2 -6 -5 -17q-5 -20 -5 -51v-7q11 23 35 41q20 16 54.5 28.5t88.5 12.5q56 0 95.5 -13.5
t65 -42t37.5 -74t12 -109.5v-46q0 -85 3 -138t6 -82q4 -34 8 -50z" />
    <glyph glyph-name="emdash" unicode="&#x2014;" horiz-adv-x="605" 
d="M405 742l-23 -27l-24 -26.5t-27 -28.5q-6 -6 -12.5 -14.5t-11.5 -16.5l-12 -18q-10 1 -19 1h-24h-13.5t-23.5 -1q-14 -1 -32 -1l33 29l26.5 23.5t20.5 19.5t16 18t15 20l16 22q8 0 15 -1q6 -1 12 -1.5t9 -0.5q4 0 13 0.5t20 1.5q12 1 26 1zM573 268q0 -58 -17 -108
t-50.5 -87t-82.5 -58.5t-114 -21.5q-76 0 -128 19t-84 55t-46.5 86.5t-14.5 113.5q0 56 14 107.5t46 91.5t84.5 63.5t128.5 23.5q80 0 131 -24t80.5 -63.5t41 -91t11.5 -106.5zM477 265q0 33 -4.5 71t-21 70t-49.5 53.5t-91 21.5q-57 0 -92 -19t-54.5 -49.5t-26.5 -69.5
t-7 -79q0 -100 42.5 -149t137.5 -49q44 0 75.5 16t51.5 43t29.5 63.5t9.5 76.5z" />
    <glyph glyph-name="quoteleft" unicode="&#x2018;" horiz-adv-x="592" 
d="M445 676q0 -22 -15.5 -37t-36.5 -15q-22 0 -37 15t-15 37t15 37t37 15q21 0 36.5 -15t15.5 -37zM272 676q0 -22 -15.5 -37t-37.5 -15q-21 0 -36.5 15t-15.5 37t15.5 37t36.5 15q22 0 37.5 -15t15.5 -37zM562 381q0 -28 -13 -49.5t-33 -36.5t-45.5 -22.5t-50.5 -7.5h-260
q0 -46 17 -81.5t47.5 -59t73.5 -35.5t94 -12q35 0 63.5 6t49.5 14q25 9 45 20q-2 -8 -5 -18q-5 -18 -5 -36q0 -8 1 -15.5t2 -13.5q1 -7 2 -12q-24 -7 -53 -13q-25 -5 -57.5 -9.5t-70.5 -4.5q-56 0 -111.5 14t-100 45.5t-72 82t-27.5 123.5q0 60 15.5 113.5t48.5 94t85 64
t126 23.5q63 0 107.5 -15.5t72.5 -40.5t41 -56t13 -62zM457 381q0 44 -35 75t-97 31q-43 0 -74.5 -16t-51.5 -40t-29.5 -52t-9.5 -52h233q24 0 44 15.5t20 38.5z" />
    <glyph glyph-name="quoteright" unicode="&#x2019;" horiz-adv-x="217" 
d="M230 742l-23 -27l-23.5 -26.5t-26.5 -28.5q-6 -6 -12.5 -14.5t-11.5 -16.5l-12 -18q-11 1 -20 1h-24h-13t-23 -1q-14 -1 -32 -1l32 29l26 23.5t21 19.5t16 18t15 20l16 22q8 0 15 -1q6 -1 12 -1.5t9 -0.5q4 0 13 0.5t20 1.5q12 1 26 1zM165 0q-8 2 -17 4q-15 3 -39 3
q-22 0 -37 -3q-9 -2 -17 -4q2 16 5 50q2 29 3.5 82t1.5 138v8q0 85 -1.5 138t-3.5 82q-3 34 -5 50q8 -1 17 -3q8 -2 17 -3t20 -1t21 1t18 3q9 2 17 3q-2 -16 -5 -50q-2 -29 -3.5 -82t-1.5 -138v-8q0 -85 1.5 -138t3.5 -82q3 -34 5 -50z" />
    <glyph glyph-name="quotesinglbase" unicode="&#x201a;" horiz-adv-x="695" 
d="M665 136q-2 -12 -5 -23q-5 -22 -5 -42q0 -8 1 -16.5t2 -15.5l2 -16q-22 -9 -53 -17q-26 -7 -63.5 -12t-87.5 -5h-14t-14 1v-29q38 1 68 -7q26 -7 46.5 -22.5t20.5 -46.5q0 -21 -14.5 -37.5t-38 -27t-53 -16t-60.5 -5.5q-37 0 -62 3t-40 8q-18 5 -28 11q6 3 11 7t8.5 8.5
t5.5 11.5q2 3 2 9.5t-1 12.5l-2 16q11 -10 27 -18q14 -7 33.5 -12t45.5 -5q25 0 41.5 3.5t26.5 8.5t14 12t4 13q0 16 -15.5 23.5t-39.5 7.5q-6 0 -13 -1l-14 -2l-16 -2v8q0 10 -4 15q-3 5 -9 8q-4 2 -7 4l28 43q-164 14 -245.5 108t-81.5 266q0 98 30.5 170t80.5 118.5
t114.5 69t132.5 22.5q75 0 132 -10t108 -35q-5 -7 -9 -15l-8.5 -15.5t-8.5 -17.5q-8 -22 -10 -45q-1 -13 -1 -26q-17 24 -44 42q-23 16 -61 28.5t-93 12.5q-60 0 -107 -21.5t-79 -60.5t-49 -93.5t-17 -121.5q0 -66 17.5 -119.5t52.5 -91.5t88 -58.5t125 -20.5q43 0 80 9
t65 20q33 13 60 29z" />
    <glyph glyph-name="quotedblleft" unicode="&#x201c;" horiz-adv-x="217" 
d="M221 610q-18 0 -32 1q-12 1 -23 1h-14h-24q-9 0 -19 -1l-12 18q-5 8 -11.5 16.5t-12.5 14.5q-14 14 -26.5 28.5l-23.5 26.5l-24 27q14 0 26 -1q11 -1 20 -1.5t13 -0.5t9.5 0.5t11.5 1.5q7 1 15 1l16 -22q7 -10 15 -20t16 -18t21 -19.5l27 -23.5zM165 0q-8 2 -17 4
q-15 3 -39 3q-22 0 -37 -3q-9 -2 -17 -4q2 16 5 50q2 29 3.5 82t1.5 138v8q0 85 -1.5 138t-3.5 82q-3 34 -5 50q8 -1 17 -3q8 -2 17 -3t20 -1t21 1t18 3q9 2 17 3q-2 -16 -5 -50q-2 -29 -3.5 -82t-1.5 -138v-8q0 -85 1.5 -138t3.5 -82q3 -34 5 -50z" />
    <glyph glyph-name="quotedblright" unicode="&#x201d;" horiz-adv-x="217" 
d="M253 603q-15 0 -26 1q-10 1 -19 1h-11h-18q-6 0 -13 -1q-6 10 -11 20l-10.5 17.5t-11.5 16.5q-3 5 -7 11l-8 12q-4 7 -10 15l-9 -15q-4 -6 -7.5 -12t-6.5 -10q-5 -7 -10.5 -17t-10.5 -18l-10 -20q-7 1 -14 1h-20h-11.5t-19.5 -1q-11 -1 -25 -1l27 32l23 26.5l19 21.5
t13.5 19t11.5 22l12 25q8 0 15 -1q6 -1 12.5 -1h10.5h11.5t12.5 1q7 1 15 1l12 -25q5 -11 11.5 -22t13.5 -19l18.5 -22l22.5 -27zM165 0q-8 2 -17 4q-15 3 -39 3q-22 0 -37 -3q-9 -2 -17 -4q2 16 5 50q2 29 3.5 82t1.5 138v8q0 85 -1.5 138t-3.5 82q-3 34 -5 50q8 -1 17 -3
q8 -2 17 -3t20 -1t21 1t18 3q9 2 17 3q-2 -16 -5 -50q-2 -29 -3.5 -82t-1.5 -138v-8q0 -85 1.5 -138t3.5 -82q3 -34 5 -50z" />
    <glyph glyph-name="quotedblbase" unicode="&#x201e;" horiz-adv-x="772" 
d="M566 875q-19 -44 -43 -67t-72 -23q-24 0 -41 9.5t-32 21.5t-30 21.5t-35 9.5q-23 0 -39.5 -9t-27.5 -20q-13 -13 -22 -29q1 6 1 13q0 14 -6 24q-2 3 -4.5 4.5t-4.5 3.5q-3 2 -5 3q33 77 115 77q27 0 44 -9t31 -20.5t28 -20.5t35 -9q24 0 40 8.5t25 19.5q11 12 16 27
q0 -7 1 -13q2 -12 9 -18q3 -1 11 -3q4 -1 6 -1zM715 -17q-10 6 -21 10q-10 4 -22.5 7t-26.5 3h-21t-18 -1q-9 -1 -17 -2l-412 578v-308q0 -85 3.5 -138t8.5 -82q5 -34 12 -50l-24 4q-21 3 -46 3q-11 0 -25 -0.5t-27 -2.5l-30 -4q10 16 19 50q8 29 13.5 82t5.5 138v283
q0 53 -8 88t-18 56q-11 25 -26 39q19 -1 37 -3q15 -2 31.5 -3t27.5 -1t21.5 1t18.5 3q10 2 17 3l413 -575v305q0 87 -5.5 140t-13.5 82q-9 34 -19 48q15 -1 30 -3q13 -2 27 -3t25 -1t22.5 1t20.5 3q11 2 21 3q-5 -16 -9 -50q-4 -29 -6.5 -82t-2.5 -138v-196q0 -79 3.5 -134
t8.5 -89q5 -40 12 -64z" />
    <glyph glyph-name="dagger" unicode="&#x2020;" horiz-adv-x="771" 
d="M523 836q0 -22 -15.5 -37t-37.5 -15t-37 15t-15 37t15 37t37 15t37.5 -15t15.5 -37zM349 836q0 -22 -15.5 -37t-36.5 -15q-22 0 -37 15t-15 37t15 37t37 15q21 0 36.5 -15t15.5 -37zM711 736q-3 -16 -6 -50q-2 -29 -4 -82t-2 -138v-191q0 -41 -5 -76t-19 -64
q-38 -76 -113.5 -112t-172.5 -36q-96 0 -170.5 36.5t-107.5 111.5q-14 30 -20 65.5t-6 74.5v191q0 85 -4 138t-9 82q-6 34 -13 50q13 -1 26 -3q11 -2 24.5 -3t25.5 -1t23 1t20 3q11 2 19 3q-3 -16 -6 -50q-2 -29 -4 -82t-2 -138v-191q0 -39 9.5 -77t32.5 -67.5t63 -47.5
t101 -18q63 0 103 18t63.5 47.5t32.5 67.5t9 77v191q0 85 -2 138t-4 82q-3 34 -6 50q8 -1 19 -3q9 -2 20 -3t23 -1t23 1t20 3q11 2 19 3z" />
    <glyph glyph-name="daggerdbl" unicode="&#x2021;" horiz-adv-x="567" 
d="M405 742l-23 -27l-24 -26.5t-27 -28.5q-6 -6 -12.5 -14.5t-11.5 -16.5l-12 -18q-10 1 -19 1h-24h-13.5t-23.5 -1q-14 -1 -32 -1l33 29l26.5 23.5t20.5 19.5t16 18t15 20l16 22q8 0 15 -1q6 -1 12 -1.5t9 -0.5q4 0 13 0.5t20 1.5q12 1 26 1zM581 20q-12 0 -25 -1
q-11 -1 -23.5 -2.5t-23.5 -4.5q-10 -2 -19 -5.5t-16 -6.5q-8 -4 -15 -7q-6 11 -10 23q-4 11 -8 26t-6 32q-38 -42 -87.5 -61.5t-109.5 -19.5q-57 0 -95.5 13t-62 35.5t-33.5 51.5t-10 60q0 60 26.5 95.5t67 55t88 25.5t88.5 6q30 0 52.5 -0.5t37.5 -1.5q18 -1 30 -2v51
q0 104 -147 104q-30 0 -55 -9t-42 -24t-26.5 -33t-9.5 -36q-4 8 -10 18q-5 8 -12 18t-17 21q-5 7 -10.5 11l-9.5 7q-4 4 -9 6q8 26 33 45q21 17 62 30.5t111 13.5q123 0 177.5 -47.5t54.5 -145.5v-173q0 -47 10 -79t22 -52q14 -23 32 -37zM426 273q-11 1 -26 2
q-13 1 -31.5 1.5t-43.5 0.5q-31 0 -64 -4.5t-60 -16.5t-44.5 -34.5t-17.5 -58.5q0 -30 13.5 -49t34 -30.5t45 -15.5t46.5 -4q20 0 45.5 8.5t48 26t38.5 45t16 65.5v64z" />
    <glyph glyph-name="bullet" unicode="&#x2022;" horiz-adv-x="217" 
d="M248 676q0 -22 -15.5 -37t-37.5 -15q-21 0 -36.5 15t-15.5 37t15.5 37t36.5 15q22 0 37.5 -15t15.5 -37zM75 676q0 -22 -15.5 -37t-37.5 -15t-37 15t-15 37t15 37t37 15t37.5 -15t15.5 -37zM165 0q-8 2 -17 4q-15 3 -39 3q-22 0 -37 -3q-9 -2 -17 -4q2 16 5 50
q2 29 3.5 82t1.5 138v8q0 85 -1.5 138t-3.5 82q-3 34 -5 50q8 -1 17 -3q8 -2 17 -3t20 -1t21 1t18 3q9 2 17 3q-2 -16 -5 -50q-2 -29 -3.5 -82t-1.5 -138v-8q0 -85 1.5 -138t3.5 -82q3 -34 5 -50z" />
    <glyph glyph-name="ellipsis" unicode="&#x2026;" horiz-adv-x="853" 
d="M577 836q0 -22 -15.5 -37t-36.5 -15q-22 0 -37 15t-15 37t15 37t37 15q21 0 36.5 -15t15.5 -37zM404 836q0 -22 -15.5 -37t-37.5 -15q-21 0 -36.5 15t-15.5 37t15.5 37t36.5 15q22 0 37.5 -15t15.5 -37zM788 371q0 -79 -19.5 -148.5t-61.5 -121t-109 -81t-162 -29.5
q-107 0 -176.5 30t-110.5 82t-57.5 121t-16.5 147t18.5 146.5t60.5 120t111 81t171 29.5q105 0 173 -30.5t107.5 -82.5t55.5 -120.5t16 -143.5zM681 367q0 51 -9 105t-35.5 98.5t-74.5 72.5t-126 28q-71 0 -119.5 -22t-78 -62t-42.5 -95t-13 -121q0 -61 13 -116t42.5 -96.5
t78 -65.5t119.5 -24q78 0 126 28t74.5 71.5t35.5 96t9 102.5z" />
    <glyph glyph-name="perthousand" unicode="&#x2030;" horiz-adv-x="567" 
d="M435 603q-15 0 -26 1q-10 1 -19 1h-11h-19q-6 0 -13 -1q-6 10 -11 20l-10.5 17.5t-10.5 16.5q-3 5 -7 11t-9 12q-5 7 -10 15l-9 -15q-4 -6 -7.5 -12t-6.5 -10q-5 -7 -10.5 -17t-10.5 -18l-10 -20q-7 1 -14 1h-20h-11.5t-19.5 -1q-11 -1 -25 -1l27 32l23 26.5l19 21.5
t13.5 19t11.5 22l12 25q8 0 15 -1q6 -1 12.5 -1h10.5h11t13 1q8 1 16 1q5 -13 11 -25q5 -11 11.5 -22t13.5 -19l19 -22l23 -27zM581 20q-12 0 -25 -1q-11 -1 -23.5 -2.5t-23.5 -4.5q-10 -2 -19 -5.5t-16 -6.5q-8 -4 -15 -7q-6 11 -10 23q-4 11 -8 26t-6 32
q-38 -42 -87.5 -61.5t-109.5 -19.5q-57 0 -95.5 13t-62 35.5t-33.5 51.5t-10 60q0 60 26.5 95.5t67 55t88 25.5t88.5 6q30 0 52.5 -0.5t37.5 -1.5q18 -1 30 -2v51q0 104 -147 104q-30 0 -55 -9t-42 -24t-26.5 -33t-9.5 -36q-4 8 -10 18q-5 8 -12 18t-17 21q-5 7 -10.5 11
l-9.5 7q-4 4 -9 6q8 26 33 45q21 17 62 30.5t111 13.5q123 0 177.5 -47.5t54.5 -145.5v-173q0 -47 10 -79t22 -52q14 -23 32 -37zM426 273q-11 1 -26 2q-13 1 -31.5 1.5t-43.5 0.5q-31 0 -64 -4.5t-60 -16.5t-44.5 -34.5t-17.5 -58.5q0 -30 13.5 -49t34 -30.5t45 -15.5
t46.5 -4q20 0 45.5 8.5t48 26t38.5 45t16 65.5v64z" />
    <glyph glyph-name="guilsinglleft" unicode="&#x2039;" horiz-adv-x="567" 
d="M470 715q-19 -44 -43 -67t-72 -23q-24 0 -41 9.5t-32 21.5t-30 21.5t-35 9.5q-23 0 -39.5 -9t-27.5 -20q-13 -13 -22 -29q1 6 1 13q0 14 -6 24q-2 3 -4.5 4.5t-4.5 3.5q-3 2 -5 3q33 77 115 77q27 0 44 -9t31 -20.5t28 -20.5t35 -9q24 0 40 8.5t25 19.5q11 12 16 27
q0 -7 1 -13q2 -12 9 -18q3 -1 11 -3q4 -1 6 -1zM581 20q-12 0 -25 -1q-11 -1 -23.5 -2.5t-23.5 -4.5q-10 -2 -19 -5.5t-16 -6.5q-8 -4 -15 -7q-6 11 -10 23q-4 11 -8 26t-6 32q-38 -42 -87.5 -61.5t-109.5 -19.5q-57 0 -95.5 13t-62 35.5t-33.5 51.5t-10 60q0 60 26.5 95.5
t67 55t88 25.5t88.5 6q30 0 52.5 -0.5t37.5 -1.5q18 -1 30 -2v51q0 104 -147 104q-30 0 -55 -9t-42 -24t-26.5 -33t-9.5 -36q-4 8 -10 18q-5 8 -12 18t-17 21q-5 7 -10.5 11l-9.5 7q-4 4 -9 6q8 26 33 45q21 17 62 30.5t111 13.5q123 0 177.5 -47.5t54.5 -145.5v-173
q0 -47 10 -79t22 -52q14 -23 32 -37zM426 273q-11 1 -26 2q-13 1 -31.5 1.5t-43.5 0.5q-31 0 -64 -4.5t-60 -16.5t-44.5 -34.5t-17.5 -58.5q0 -30 13.5 -49t34 -30.5t45 -15.5t46.5 -4q20 0 45.5 8.5t48 26t38.5 45t16 65.5v64z" />
    <glyph glyph-name="guilsinglright" unicode="&#x203a;" horiz-adv-x="605" 
d="M489 715q-19 -43 -43.5 -66.5t-71.5 -23.5q-24 0 -41 9.5t-32 21.5t-30 21.5t-35 9.5q-23 0 -39.5 -9t-27.5 -20q-13 -13 -22 -29q1 6 0 13l-2 12.5t-4 11.5q-2 4 -8 8q-3 2 -6 3q34 77 116 77q27 0 44 -9t31 -20.5t28 -20.5t35 -9q24 0 40 8.5t25 19.5q11 12 16 27
q0 -7 1 -13q2 -13 8 -18q3 -1 11 -3q4 -1 7 -1zM573 268q0 -58 -17 -108t-50.5 -87.5t-82.5 -58.5t-114 -21q-76 1 -128 20t-84 54.5t-46.5 86t-14.5 113.5q0 56 14 108t46 91.5t84.5 63t128.5 23.5q80 0 131 -24t80.5 -63.5t41 -91t11.5 -106.5zM477 265q0 35 -4.5 74
t-21 72t-49.5 55.5t-91 22.5q-57 0 -92 -19.5t-54.5 -51t-26.5 -72t-7 -82.5q0 -103 42.5 -154.5t137.5 -51.5q44 0 75.5 16.5t51.5 45t29.5 66t9.5 79.5z" />
    <glyph glyph-name="Euro" unicode="&#x20ac;" horiz-adv-x="717" 
d="M501 836q0 -22 -15.5 -37t-36.5 -15q-22 0 -37 15t-15 37t15 37t37 15q21 0 36.5 -15t15.5 -37zM328 836q0 -22 -15.5 -37t-37.5 -15q-21 0 -36.5 15t-15.5 37t15.5 37t36.5 15q22 0 37.5 -15t15.5 -37zM721 0l-29 4q-13 2 -27 2.5t-26 0.5q-26 0 -49 -3l-25 -4
q-1 19 -6 47q-5 24 -15 62t-29 92l-25 72h-273l-28 -72q-22 -57 -32.5 -95.5t-14.5 -61.5q-4 -27 -3 -44l-25 4q-11 2 -24 2.5t-25 0.5q-26 0 -44 -3l-21 -4q16 30 41 83l53 119.5l77 186.5q40 101 69 192.5l49 154.5q11 -1 22 -3q10 -2 21.5 -3t23.5 -1t25.5 1t24.5 3
q13 2 25 3l43 -124l40 -113l39 -110q42 -112 73 -186t52 -119q25 -53 43 -84zM356 648h-2l-109 -297h218z" />
    <glyph glyph-name="trademark" unicode="&#x2122;" horiz-adv-x="605" 
d="M455 603q-15 0 -26 1q-10 1 -19 1h-11h-19q-6 0 -13 -1q-6 10 -11 20l-10.5 17.5t-10.5 16.5q-3 5 -7 11t-9 12q-5 7 -10 15l-9 -15q-4 -6 -7.5 -12t-6.5 -10q-5 -7 -10.5 -17t-10.5 -18l-10 -20q-7 1 -14 1h-20h-11.5t-19.5 -1q-11 -1 -25 -1l27 32l23 26.5l19 21.5
t13.5 19t11.5 22l12 25q8 0 15 -1q6 -1 12.5 -1h10.5h11t13 1q8 1 16 1q5 -13 11 -25q5 -11 11.5 -22t13.5 -19l19 -22l23 -27zM573 268q0 -58 -17 -108t-50.5 -87t-82.5 -58.5t-114 -21.5q-76 0 -128 19t-84 55t-46.5 86.5t-14.5 113.5q0 56 14 107.5t46 91.5t84.5 63.5
t128.5 23.5q80 0 131 -24t80.5 -63.5t41 -91t11.5 -106.5zM477 265q0 33 -4.5 71t-21 70t-49.5 53.5t-91 21.5q-57 0 -92 -19t-54.5 -49.5t-26.5 -69.5t-7 -79q0 -100 42.5 -149t137.5 -49q44 0 75.5 16t51.5 43t29.5 63.5t9.5 76.5z" />
  </font>
</defs>
</svg>
